{"glyphs":{"0":{"ha":794,"x_min":50,"x_max":743,"o":"m 743 496 q 724 282 743 376 q 665 122 706 188 q 558 21 624 56 q 396 -14 492 -14 q 200 47 276 -14 q 87 222 124 108 q 50 496 50 336 q 83 771 50 657 q 193 946 117 885 q 396 1007 269 1007 q 592 947 515 1007 q 706 772 668 886 q 743 496 743 657 m 258 496 q 271 308 258 383 q 313 194 283 232 q 396 156 343 156 q 478 193 449 156 q 522 306 508 231 q 535 496 535 382 q 522 685 535 610 q 478 799 508 761 q 396 838 449 838 q 313 799 343 838 q 271 685 283 761 q 258 496 258 610 z "},"1":{"ha":794,"x_min":82,"x_max":574,"o":"m 574 0 l 364 0 l 364 574 q 365 632 364 597 q 367 704 365 667 q 369 771 368 742 q 340 741 363 763 q 297 703 317 719 l 183 611 l 82 738 l 401 992 l 574 992 l 574 0 z "},"2":{"ha":794,"x_min":53,"x_max":749,"o":"m 749 0 l 56 0 l 56 146 l 304 397 q 425 527 379 475 q 492 622 471 579 q 513 713 513 664 q 480 801 513 772 q 392 831 447 831 q 281 804 335 831 q 167 729 226 778 l 53 864 q 144 933 96 901 q 255 985 192 965 q 407 1006 318 1006 q 574 970 504 1006 q 683 874 644 935 q 721 738 721 814 q 688 588 721 656 q 594 453 656 519 q 444 306 532 386 l 317 186 l 317 176 l 749 176 l 749 0 z "},"3":{"ha":794,"x_min":53,"x_max":739,"o":"m 710 769 q 681 651 710 701 q 605 569 653 601 q 496 522 557 538 l 496 518 q 677 446 615 504 q 739 289 739 388 q 697 134 739 203 q 566 26 654 65 q 339 -14 478 -14 q 186 0 257 -14 q 53 40 115 14 l 53 218 q 187 169 117 186 q 317 153 257 153 q 474 192 429 153 q 519 301 519 231 q 499 372 519 343 q 426 415 478 400 q 281 429 374 429 l 206 429 l 206 590 l 282 590 q 422 608 374 590 q 487 655 469 625 q 504 724 504 685 q 472 806 504 776 q 363 836 439 836 q 276 824 315 836 q 206 796 238 813 q 151 764 175 779 l 54 908 q 191 978 113 950 q 378 1006 269 1006 q 620 944 531 1006 q 710 769 710 882 z "},"4":{"ha":794,"x_min":24,"x_max":771,"o":"m 771 206 l 651 206 l 651 0 l 447 0 l 447 206 l 24 206 l 24 351 l 458 992 l 651 992 l 651 368 l 771 368 l 771 206 m 447 536 q 448 592 447 560 q 450 658 449 625 q 453 716 451 690 q 456 751 454 742 l 450 751 q 424 697 438 724 q 390 643 410 671 l 208 368 l 447 368 l 447 536 z "},"5":{"ha":794,"x_min":68,"x_max":731,"o":"m 417 633 q 578 599 507 633 q 690 497 649 564 q 731 332 731 431 q 686 147 731 225 q 553 28 642 69 q 335 -14 465 -14 q 188 0 257 -14 q 68 40 119 14 l 68 221 q 192 176 119 194 q 328 157 264 157 q 433 174 390 157 q 497 225 475 190 q 519 314 519 260 q 471 426 519 388 q 321 464 422 464 q 240 456 282 464 q 171 442 199 449 l 88 486 l 125 992 l 663 992 l 663 814 l 308 814 l 290 619 q 341 628 314 624 q 417 633 368 633 z "},"6":{"ha":794,"x_min":49,"x_max":749,"o":"m 49 421 q 61 590 49 507 q 105 748 74 674 q 192 880 136 822 q 335 970 249 938 q 546 1003 422 1003 q 614 1001 575 1003 q 679 993 653 999 l 679 825 q 622 835 653 832 q 560 839 590 839 q 406 817 467 839 q 311 753 346 794 q 260 655 276 711 q 242 529 244 599 l 250 529 q 298 588 269 563 q 368 629 326 614 q 465 644 410 644 q 616 608 553 644 q 714 501 679 571 q 749 331 749 431 q 708 146 749 224 q 591 27 667 68 q 411 -14 515 -14 q 269 13 335 -14 q 153 92 203 39 q 76 228 104 146 q 49 421 49 310 m 407 154 q 507 197 468 154 q 546 328 546 239 q 513 442 546 400 q 411 483 479 483 q 331 463 365 483 q 276 411 296 443 q 257 346 257 379 q 267 277 257 311 q 295 215 276 243 q 342 171 314 188 q 407 154 369 154 z "},"7":{"ha":794,"x_min":38,"x_max":749,"o":"m 154 0 l 526 815 l 38 815 l 38 992 l 749 992 l 749 860 l 374 0 l 154 0 z "},"8":{"ha":794,"x_min":49,"x_max":744,"o":"m 397 1004 q 555 978 483 1004 q 670 899 626 951 q 714 765 714 846 q 690 660 714 706 q 627 582 667 615 q 536 524 588 549 q 637 459 589 496 q 715 373 685 422 q 744 257 744 324 q 701 114 744 175 q 578 19 657 53 q 397 -14 500 -14 q 208 18 286 -14 q 90 110 131 50 q 49 251 49 169 q 74 369 49 319 q 143 456 100 419 q 239 518 186 493 q 158 581 194 546 q 101 662 122 617 q 79 767 79 707 q 124 899 79 846 q 241 978 168 951 q 397 1004 314 1004 m 243 264 q 281 175 243 210 q 394 140 319 140 q 511 174 472 140 q 550 263 550 207 q 528 328 550 300 q 473 380 506 357 q 406 422 440 403 l 388 432 q 312 388 344 413 q 261 333 279 363 q 243 264 243 303 m 396 851 q 310 825 344 851 q 276 750 276 799 q 293 691 276 717 q 338 647 310 665 q 397 611 365 628 q 456 644 429 626 q 500 688 483 663 q 517 750 517 714 q 483 825 517 799 q 396 851 449 851 z "},"9":{"ha":794,"x_min":44,"x_max":744,"o":"m 744 568 q 732 399 744 483 q 688 241 719 315 q 601 109 657 167 q 458 19 544 51 q 247 -14 371 -14 q 179 -12 218 -14 q 114 -4 140 -10 l 114 164 q 172 154 142 158 q 233 150 203 150 q 387 172 326 150 q 482 236 447 194 q 533 335 517 278 q 551 460 549 392 l 543 460 q 497 401 524 428 q 428 360 469 375 q 324 344 388 344 q 176 381 239 344 q 79 488 114 418 q 44 658 44 558 q 85 844 44 767 q 203 962 126 921 q 382 1003 279 1003 q 524 976 458 1003 q 640 897 590 950 q 717 761 689 843 q 744 568 744 679 m 386 835 q 286 793 325 835 q 247 661 247 751 q 281 547 247 589 q 382 506 314 506 q 463 526 429 506 q 517 578 497 547 q 536 643 536 610 q 526 712 536 678 q 498 774 517 746 q 451 818 479 801 q 386 835 424 835 z "},"\u0000":{"ha":0,"x_min":0,"x_max":0,"o":""},"\r":{"ha":361,"x_min":0,"x_max":0,"o":""}," ":{"ha":361,"x_min":0,"x_max":0,"o":""},"!":{"ha":397,"x_min":79,"x_max":317,"o":"m 282 329 l 117 329 l 82 992 l 317 992 l 282 329 m 79 97 q 114 187 79 161 q 199 213 149 213 q 282 187 247 213 q 317 97 317 161 q 282 9 317 36 q 199 -18 247 -18 q 114 9 149 -18 q 79 97 79 36 z "},"\"":{"ha":656,"x_min":90,"x_max":565,"o":"m 279 992 l 251 633 l 118 633 l 90 992 l 279 992 m 565 992 l 538 633 l 404 633 l 376 992 l 565 992 z "},"#":{"ha":897,"x_min":31,"x_max":867,"o":"m 678 572 l 646 415 l 821 415 l 821 275 l 619 275 l 567 0 l 418 0 l 471 275 l 339 275 l 288 0 l 142 0 l 192 275 l 31 275 l 31 415 l 218 415 l 250 572 l 79 572 l 79 714 l 275 714 l 328 990 l 476 990 l 424 714 l 558 714 l 611 990 l 757 990 l 704 714 l 867 714 l 867 572 l 678 572 m 365 415 l 499 415 l 531 572 l 397 572 l 365 415 z "},"$":{"ha":794,"x_min":60,"x_max":740,"o":"m 351 56 q 190 73 261 58 q 61 114 119 88 l 61 293 q 199 242 118 265 q 351 215 279 219 l 351 425 q 180 506 244 467 q 88 594 115 546 q 60 711 60 643 q 97 831 60 781 q 199 913 133 882 q 351 950 265 943 l 351 1054 l 444 1054 l 444 953 q 591 935 522 950 q 725 890 660 919 l 661 732 q 549 768 606 756 q 444 785 493 781 l 444 585 q 588 524 519 557 q 698 442 656 492 q 740 310 740 392 q 667 140 740 208 q 444 58 593 72 l 444 -81 l 351 -81 l 351 56 m 444 219 q 514 248 492 228 q 536 300 536 268 q 526 334 536 319 q 495 362 515 349 q 444 389 475 375 l 444 219 m 351 782 q 304 769 324 778 q 274 745 285 760 q 264 711 264 731 q 273 677 264 692 q 301 649 282 663 q 351 622 321 636 l 351 782 z "},"%":{"ha":1251,"x_min":43,"x_max":1208,"o":"m 276 1006 q 453 924 393 1006 q 514 696 514 843 q 457 466 514 549 q 276 383 400 383 q 103 466 163 383 q 43 696 43 549 q 99 924 43 843 q 276 1006 154 1006 m 278 864 q 229 822 244 864 q 214 696 214 781 q 229 567 214 610 q 278 524 244 524 q 327 567 311 524 q 343 694 343 610 q 327 822 343 781 q 278 864 311 864 m 981 992 l 431 0 l 268 0 l 818 992 l 981 992 m 971 610 q 1148 528 1088 610 q 1208 300 1208 447 q 1151 70 1208 153 q 971 -12 1094 -12 q 797 70 857 -12 q 738 300 738 153 q 793 528 738 447 q 971 610 849 610 m 972 468 q 924 426 939 468 q 908 299 908 385 q 924 171 908 214 q 972 128 939 128 q 1022 170 1006 128 q 1038 299 1038 213 q 1022 426 1038 385 q 972 468 1006 468 z "},"&":{"ha":1042,"x_min":56,"x_max":1042,"o":"m 431 1006 q 574 981 511 1006 q 672 908 636 956 q 708 790 708 860 q 651 629 708 694 q 510 515 594 564 l 703 328 q 751 427 731 375 q 786 532 772 479 l 1001 532 q 940 365 981 454 q 838 199 900 276 l 1042 0 l 786 0 l 708 76 q 622 28 668 49 q 525 -3 576 8 q 415 -14 474 -14 q 222 22 303 -14 q 99 121 142 57 q 56 268 56 185 q 77 390 56 339 q 140 478 99 440 q 238 549 181 517 q 180 627 201 590 q 149 700 158 664 q 140 776 140 736 q 177 899 140 847 q 280 978 214 950 q 431 1006 346 1006 m 358 425 q 313 385 332 406 q 284 340 294 364 q 274 288 274 317 q 318 194 274 228 q 429 160 363 160 q 513 171 474 160 q 583 201 551 182 l 358 425 m 429 846 q 363 828 394 846 q 332 763 332 811 q 349 696 332 728 q 396 631 367 664 q 485 694 454 663 q 517 768 517 726 q 489 828 517 810 q 429 846 461 846 z "},"'":{"ha":369,"x_min":90,"x_max":279,"o":"m 279 992 l 251 633 l 118 633 l 90 992 l 279 992 z "},"(":{"ha":471,"x_min":56,"x_max":429,"o":"m 56 381 q 77 603 56 494 q 144 810 99 711 q 260 992 190 908 l 429 992 q 285 704 335 861 q 236 382 236 547 q 258 169 236 275 q 323 -35 281 63 q 428 -219 365 -133 l 260 -219 q 144 -41 190 -137 q 77 163 99 56 q 56 381 56 269 z "},")":{"ha":471,"x_min":42,"x_max":415,"o":"m 415 381 q 394 163 415 269 q 327 -41 372 56 q 211 -219 282 -137 l 43 -219 q 148 -35 106 -133 q 213 169 190 63 q 235 382 235 275 q 213 599 235 492 q 148 806 190 706 q 42 992 106 906 l 211 992 q 327 810 282 908 q 394 603 372 711 q 415 381 415 494 z "},"*":{"ha":757,"x_min":43,"x_max":714,"o":"m 467 1056 l 439 806 l 692 876 l 714 706 l 483 689 l 635 488 l 481 406 l 375 618 l 282 407 l 122 488 l 272 689 l 43 707 l 69 876 l 317 806 l 289 1056 l 467 1056 z "},"+":{"ha":794,"x_min":60,"x_max":733,"o":"m 471 564 l 733 564 l 733 415 l 471 415 l 471 154 l 322 154 l 322 415 l 60 415 l 60 564 l 322 564 l 322 828 l 471 828 l 471 564 z "},",":{"ha":396,"x_min":43,"x_max":311,"o":"m 311 146 q 279 41 299 97 q 238 -72 260 -15 q 192 -179 215 -128 l 43 -179 q 69 -63 57 -124 q 93 56 82 -3 q 111 161 104 114 l 301 161 l 311 146 z "},"-":{"ha":447,"x_min":42,"x_max":406,"o":"m 42 288 l 42 457 l 406 457 l 406 288 l 42 288 z "},".":{"ha":396,"x_min":79,"x_max":317,"o":"m 79 97 q 114 187 79 161 q 199 213 149 213 q 282 187 247 213 q 317 97 317 161 q 282 9 317 36 q 199 -18 247 -18 q 114 9 149 -18 q 79 97 79 36 z "},"/":{"ha":574,"x_min":10,"x_max":567,"o":"m 567 992 l 197 0 l 10 0 l 379 992 l 567 992 z "},":":{"ha":396,"x_min":79,"x_max":317,"o":"m 79 97 q 114 187 79 161 q 199 213 149 213 q 282 187 247 213 q 317 97 317 161 q 282 9 317 36 q 199 -18 247 -18 q 114 9 149 -18 q 79 97 79 36 m 79 657 q 114 747 79 721 q 199 772 149 772 q 282 747 247 772 q 317 657 317 721 q 282 569 317 596 q 199 542 247 542 q 114 569 149 542 q 79 657 79 596 z "},";":{"ha":396,"x_min":43,"x_max":317,"o":"m 311 146 q 279 41 299 97 q 238 -72 260 -15 q 192 -179 215 -128 l 43 -179 q 63 -93 53 -137 q 81 -3 72 -49 q 98 83 90 42 q 111 161 106 125 l 301 161 l 311 146 m 79 657 q 114 747 79 721 q 199 772 149 772 q 282 747 247 772 q 317 657 317 721 q 282 569 317 596 q 199 542 247 542 q 114 569 149 542 q 79 657 79 596 z "},"<":{"ha":794,"x_min":60,"x_max":733,"o":"m 733 138 l 60 435 l 60 532 l 733 868 l 733 706 l 269 490 l 733 300 l 733 138 z "},"=":{"ha":794,"x_min":60,"x_max":733,"o":"m 60 547 l 60 694 l 733 694 l 733 547 l 60 547 m 60 283 l 60 432 l 733 432 l 733 283 l 60 283 z "},">":{"ha":794,"x_min":60,"x_max":733,"o":"m 60 300 l 524 490 l 60 706 l 60 868 l 733 532 l 733 435 l 60 138 l 60 300 z "},"?":{"ha":663,"x_min":4,"x_max":629,"o":"m 188 379 q 200 461 188 425 q 241 529 213 497 q 317 594 269 561 q 384 649 358 625 q 422 696 410 672 q 433 749 433 719 q 401 816 433 793 q 310 839 368 839 q 194 821 251 839 q 78 772 138 803 l 4 921 q 151 982 72 958 q 325 1006 231 1006 q 549 936 469 1006 q 629 760 629 867 q 611 661 629 703 q 557 584 593 619 q 467 508 521 549 q 404 458 426 479 q 374 418 382 438 q 367 369 367 399 l 367 329 l 188 329 l 188 379 m 165 97 q 200 187 165 161 q 285 213 235 213 q 368 187 333 213 q 403 97 403 161 q 368 9 403 36 q 285 -18 333 -18 q 200 9 235 -18 q 165 97 165 36 z "},"@":{"ha":1246,"x_min":69,"x_max":1176,"o":"m 1176 497 q 1161 371 1176 433 q 1115 257 1146 308 q 1036 176 1083 206 q 925 146 989 146 q 835 170 874 146 q 781 233 796 194 l 769 233 q 695 172 742 199 q 583 146 649 146 q 392 220 460 146 q 325 415 325 294 q 365 580 325 508 q 479 692 406 651 q 653 733 553 733 q 788 722 718 733 q 897 696 858 710 l 883 411 q 882 383 882 397 q 882 364 882 368 q 898 288 882 307 q 933 269 914 269 q 986 301 965 269 q 1017 384 1007 332 q 1028 499 1028 436 q 981 697 1028 615 q 852 821 933 778 q 667 864 771 864 q 474 829 557 864 q 333 732 390 794 q 248 585 276 669 q 219 400 219 500 q 265 188 219 275 q 397 57 310 101 q 610 13 483 13 q 778 31 690 13 q 938 75 865 49 l 938 -56 q 789 -100 871 -83 q 615 -117 707 -117 q 321 -56 443 -117 q 134 120 199 6 q 69 396 69 235 q 111 631 69 522 q 231 820 153 739 q 419 947 310 901 q 665 992 529 992 q 870 958 776 992 q 1033 859 964 924 q 1139 703 1101 794 q 1176 497 1176 613 m 482 413 q 514 303 482 336 q 599 269 546 269 q 697 320 668 269 q 731 453 725 371 l 739 603 q 704 608 724 606 q 661 610 685 610 q 556 581 596 610 q 499 508 517 553 q 482 413 482 463 z "},"A":{"ha":958,"x_min":0,"x_max":958,"o":"m 732 0 l 660 236 l 299 236 l 226 0 l 0 0 l 350 996 l 607 996 l 958 0 l 732 0 m 538 643 q 519 703 531 667 q 497 776 508 739 q 479 842 486 814 q 460 773 472 814 q 438 695 449 732 q 422 643 428 658 l 351 413 l 610 413 l 538 643 z "},"B":{"ha":933,"x_min":125,"x_max":860,"o":"m 433 992 q 733 936 632 992 q 835 740 835 881 q 817 639 835 685 q 765 564 799 593 q 682 526 731 535 l 682 519 q 772 485 732 510 q 836 413 813 460 q 860 288 860 365 q 816 133 860 197 q 690 34 772 68 q 496 0 608 0 l 125 0 l 125 992 l 433 992 m 457 599 q 584 628 549 599 q 619 713 619 657 q 578 794 619 769 q 446 819 536 819 l 335 819 l 335 599 l 457 599 m 335 432 l 335 174 l 472 174 q 604 210 567 174 q 642 308 642 247 q 626 374 642 346 q 571 417 610 401 q 465 432 532 432 l 335 432 z "},"C":{"ha":885,"x_min":81,"x_max":836,"o":"m 546 831 q 440 807 486 831 q 361 740 393 783 q 313 633 329 696 q 297 493 297 571 q 323 313 297 388 q 404 200 349 239 q 546 161 460 161 q 667 175 607 161 q 799 214 728 189 l 799 38 q 669 -1 733 11 q 526 -14 606 -14 q 274 49 374 -14 q 128 227 175 113 q 81 494 81 342 q 111 701 81 607 q 201 863 142 794 q 347 968 260 931 q 546 1006 433 1006 q 694 987 619 1006 q 836 936 768 968 l 768 765 q 656 811 713 792 q 546 831 600 831 z "},"D":{"ha":1028,"x_min":125,"x_max":947,"o":"m 947 506 q 883 226 947 339 q 698 57 819 114 q 406 0 576 0 l 125 0 l 125 992 l 436 992 q 706 936 592 992 q 884 773 821 881 q 947 506 947 665 m 729 500 q 697 681 729 610 q 602 785 665 751 q 447 819 539 819 l 335 819 l 335 174 l 425 174 q 654 256 579 174 q 729 500 729 338 z "},"E":{"ha":778,"x_min":125,"x_max":696,"o":"m 696 0 l 125 0 l 125 992 l 696 992 l 696 819 l 335 819 l 335 601 l 671 601 l 671 429 l 335 429 l 335 174 l 696 174 l 696 0 z "},"F":{"ha":763,"x_min":125,"x_max":693,"o":"m 332 0 l 125 0 l 125 992 l 693 992 l 693 819 l 332 819 l 332 564 l 668 564 l 668 392 l 332 392 l 332 0 z "},"G":{"ha":1006,"x_min":81,"x_max":894,"o":"m 501 557 l 894 557 l 894 43 q 733 1 817 17 q 542 -14 649 -14 q 291 44 394 -14 q 134 217 188 103 q 81 497 81 331 q 141 767 81 653 q 317 943 201 881 q 599 1006 432 1006 q 754 989 678 1006 q 893 944 831 972 l 824 776 q 719 815 778 800 q 597 831 661 831 q 438 789 506 831 q 334 672 371 747 q 297 493 297 596 q 324 321 297 396 q 407 203 350 246 q 556 161 464 161 q 631 165 600 161 q 689 175 663 169 l 689 382 l 501 382 l 501 557 z "},"H":{"ha":1063,"x_min":125,"x_max":938,"o":"m 938 0 l 728 0 l 728 428 l 335 428 l 335 0 l 125 0 l 125 992 l 335 992 l 335 603 l 728 603 l 728 992 l 938 992 l 938 0 z "},"I":{"ha":540,"x_min":44,"x_max":496,"o":"m 496 0 l 44 0 l 44 119 l 165 175 l 165 817 l 44 872 l 44 992 l 496 992 l 496 872 l 375 817 l 375 175 l 496 119 l 496 0 z "},"J":{"ha":460,"x_min":-103,"x_max":335,"o":"m 21 -292 q -50 -287 -19 -292 q -103 -276 -81 -282 l -103 -101 q -56 -111 -81 -107 q -4 -115 -32 -115 q 62 -101 32 -115 q 108 -49 92 -87 q 125 63 125 -10 l 125 992 l 335 992 l 335 64 q 295 -142 335 -64 q 185 -256 256 -221 q 21 -292 114 -292 z "},"K":{"ha":922,"x_min":125,"x_max":922,"o":"m 922 0 l 683 0 l 424 418 l 335 354 l 335 0 l 125 0 l 125 992 l 335 992 l 335 538 q 376 596 356 567 q 418 654 397 625 l 686 992 l 919 992 l 574 553 l 922 0 z "},"L":{"ha":785,"x_min":125,"x_max":738,"o":"m 125 0 l 125 992 l 335 992 l 335 174 l 738 174 l 738 0 l 125 0 z "},"M":{"ha":1310,"x_min":125,"x_max":1185,"o":"m 544 0 l 306 778 l 300 778 q 304 694 301 750 q 310 576 307 639 q 313 461 313 513 l 313 0 l 125 0 l 125 992 l 411 992 l 646 233 l 650 233 l 899 992 l 1185 992 l 1185 0 l 989 0 l 989 469 q 991 578 989 517 q 995 694 993 639 q 999 776 997 749 l 993 776 l 738 0 l 544 0 z "},"N":{"ha":1129,"x_min":125,"x_max":1004,"o":"m 1004 0 l 738 0 l 306 750 l 300 750 q 305 656 303 703 q 309 561 307 608 q 313 467 311 514 l 313 0 l 125 0 l 125 992 l 390 992 l 821 249 l 825 249 q 822 340 824 294 q 819 431 821 386 q 815 522 817 476 l 815 992 l 1004 992 l 1004 0 z "},"O":{"ha":1106,"x_min":81,"x_max":1025,"o":"m 1025 497 q 997 288 1025 382 q 910 126 968 194 q 763 22 853 58 q 553 -14 674 -14 q 342 23 432 -14 q 195 127 253 60 q 109 289 138 194 q 81 499 81 383 q 131 767 81 653 q 287 944 182 881 q 554 1007 392 1007 q 819 944 715 1007 q 974 766 924 881 q 1025 497 1025 651 m 301 497 q 328 318 301 393 q 410 203 354 243 q 553 163 465 163 q 698 203 643 163 q 778 318 753 243 q 804 497 804 393 q 746 743 804 654 q 554 832 688 832 q 410 792 465 832 q 328 676 354 751 q 301 497 301 601 z "},"P":{"ha":872,"x_min":125,"x_max":810,"o":"m 442 992 q 722 909 633 992 q 810 682 810 826 q 790 558 810 617 q 726 452 771 499 q 607 379 681 406 q 425 353 533 353 l 335 353 l 335 0 l 125 0 l 125 992 l 442 992 m 431 819 l 335 819 l 335 525 l 404 525 q 507 540 464 525 q 574 589 550 556 q 597 675 597 622 q 557 784 597 749 q 431 819 517 819 z "},"Q":{"ha":1106,"x_min":81,"x_max":1025,"o":"m 1025 497 q 999 294 1025 386 q 918 135 972 203 q 781 31 864 68 l 1019 -236 l 750 -236 l 568 -14 q 560 -14 564 -14 q 553 -14 557 -14 q 342 23 432 -14 q 195 127 253 60 q 109 289 138 194 q 81 499 81 383 q 131 767 81 653 q 287 944 182 881 q 554 1007 392 1007 q 819 944 715 1007 q 974 766 924 881 q 1025 497 1025 651 m 301 497 q 328 318 301 393 q 410 203 354 243 q 553 163 465 163 q 698 203 643 163 q 778 318 753 243 q 804 497 804 393 q 746 743 804 654 q 554 832 688 832 q 410 792 465 832 q 328 676 354 751 q 301 497 301 601 z "},"R":{"ha":917,"x_min":125,"x_max":917,"o":"m 414 992 q 636 959 549 992 q 767 860 724 926 q 810 694 810 794 q 784 576 810 626 q 716 490 758 525 q 625 432 674 454 l 917 0 l 683 0 l 447 381 l 335 381 l 335 0 l 125 0 l 125 992 l 414 992 m 399 819 l 335 819 l 335 551 l 403 551 q 552 586 507 551 q 597 689 597 621 q 576 765 597 736 q 510 806 554 793 q 399 819 467 819 z "},"S":{"ha":765,"x_min":64,"x_max":710,"o":"m 710 275 q 667 122 710 188 q 542 22 624 57 q 344 -14 461 -14 q 244 -7 293 -14 q 149 13 194 0 q 64 46 104 26 l 64 242 q 210 185 135 211 q 361 160 286 160 q 444 174 413 160 q 490 211 475 188 q 504 265 504 235 q 478 329 504 303 q 410 378 453 356 q 311 428 367 401 q 236 467 276 444 q 159 524 196 490 q 99 607 122 558 q 75 724 75 656 q 116 876 75 813 q 233 972 157 939 q 411 1006 308 1006 q 559 988 489 1006 q 706 936 629 969 l 638 772 q 515 815 569 800 q 404 831 461 831 q 338 818 365 831 q 295 783 310 806 q 281 731 281 761 q 301 672 281 696 q 364 625 322 647 q 468 572 406 603 q 598 497 544 536 q 681 406 651 458 q 710 275 710 353 z "},"T":{"ha":804,"x_min":28,"x_max":776,"o":"m 507 0 l 297 0 l 297 817 l 28 817 l 28 992 l 776 992 l 776 817 l 507 817 l 507 0 z "},"U":{"ha":1050,"x_min":118,"x_max":932,"o":"m 932 350 q 887 165 932 247 q 751 34 842 82 q 521 -14 660 -14 q 221 87 324 -14 q 118 353 118 188 l 118 992 l 328 992 l 328 385 q 378 213 328 263 q 526 163 428 163 q 639 186 596 163 q 702 260 682 210 q 722 386 722 310 l 722 992 l 932 992 l 932 350 z "},"V":{"ha":903,"x_min":0,"x_max":903,"o":"m 903 992 l 565 0 l 336 0 l 0 992 l 213 992 l 399 401 q 415 345 404 386 q 436 259 425 304 q 451 183 447 214 q 466 259 456 214 q 488 345 476 304 q 503 401 499 386 l 690 992 l 903 992 z "},"W":{"ha":1343,"x_min":0,"x_max":1343,"o":"m 1343 992 l 1090 0 l 851 0 l 717 521 q 706 567 713 536 q 692 633 700 597 q 679 702 685 669 q 671 753 674 735 q 663 702 669 735 q 650 634 657 669 q 636 567 643 599 q 625 519 629 536 l 492 0 l 253 0 l 0 992 l 207 992 l 333 450 q 346 392 339 426 q 360 322 353 358 q 373 250 367 285 q 382 190 379 215 q 390 251 385 217 q 403 320 396 285 q 416 387 410 356 q 428 436 422 418 l 572 992 l 771 992 l 915 436 q 926 387 919 418 q 940 319 933 356 q 953 249 947 283 q 961 190 958 215 q 974 273 965 225 q 992 369 982 321 q 1010 450 1003 418 l 1136 992 l 1343 992 z "},"X":{"ha":926,"x_min":0,"x_max":926,"o":"m 926 0 l 686 0 l 456 375 l 225 0 l 0 0 l 329 511 l 21 992 l 253 992 l 467 635 l 676 992 l 903 992 l 592 500 l 926 0 z "},"Y":{"ha":867,"x_min":0,"x_max":867,"o":"m 433 583 l 640 992 l 867 992 l 538 386 l 538 0 l 329 0 l 329 379 l 0 992 l 228 992 l 433 583 z "},"Z":{"ha":804,"x_min":33,"x_max":771,"o":"m 771 0 l 33 0 l 33 136 l 508 818 l 46 818 l 46 992 l 758 992 l 758 856 l 283 174 l 771 174 l 771 0 z "},"[":{"ha":460,"x_min":97,"x_max":425,"o":"m 425 -219 l 97 -219 l 97 992 l 425 992 l 425 849 l 274 849 l 274 -76 l 425 -76 l 425 -219 z "},"\\":{"ha":574,"x_min":8,"x_max":565,"o":"m 196 992 l 565 0 l 378 0 l 8 992 l 196 992 z "},"]":{"ha":460,"x_min":35,"x_max":363,"o":"m 35 -76 l 186 -76 l 186 849 l 35 849 l 35 992 l 363 992 l 363 -219 l 35 -219 l 35 -76 z "},"^":{"ha":794,"x_min":32,"x_max":763,"o":"m 32 353 l 329 997 l 426 997 l 763 353 l 600 353 l 382 789 l 192 353 l 32 353 z "},"_":{"ha":571,"x_min":-3,"x_max":574,"o":"m 574 -219 l -3 -219 l -3 -125 l 574 -125 l 574 -219 z "},"`":{"ha":503,"x_min":56,"x_max":447,"o":"m 288 1064 q 337 995 308 1033 q 395 922 365 957 q 447 860 425 886 l 447 842 l 310 842 q 248 887 283 860 q 176 944 213 914 q 107 1003 139 975 q 56 1050 75 1031 l 56 1064 l 288 1064 z "},"a":{"ha":839,"x_min":58,"x_max":735,"o":"m 419 774 q 653 708 572 774 q 735 506 735 642 l 735 0 l 590 0 l 550 103 l 544 103 q 478 36 513 63 q 401 -2 444 10 q 293 -14 357 -14 q 173 12 226 -14 q 89 91 119 38 q 58 226 58 144 q 143 405 58 347 q 397 468 228 463 l 529 472 l 529 506 q 498 593 529 565 q 411 621 467 621 q 303 605 356 621 q 197 565 250 589 l 129 706 q 265 756 190 738 q 419 774 339 774 m 449 349 q 310 313 349 346 q 271 225 271 279 q 299 158 271 178 q 371 138 326 138 q 483 177 438 138 q 529 289 529 217 l 529 351 l 449 349 z "},"b":{"ha":879,"x_min":108,"x_max":817,"o":"m 315 810 q 313 725 315 767 q 307 660 310 683 l 315 660 q 397 740 346 707 q 531 772 449 772 q 738 673 658 772 q 817 381 817 574 q 780 163 817 251 q 678 31 743 75 q 525 -14 613 -14 q 394 16 442 -14 q 315 83 346 46 l 301 83 l 267 0 l 108 0 l 108 1056 l 315 1056 l 315 810 m 464 607 q 378 585 410 607 q 331 517 346 563 q 315 404 317 472 l 315 382 q 348 213 315 272 q 467 154 381 154 q 568 213 531 154 q 606 383 606 272 q 567 551 606 494 q 464 607 529 607 z "},"c":{"ha":714,"x_min":63,"x_max":671,"o":"m 417 -14 q 225 27 304 -14 q 104 154 146 68 q 63 375 63 240 q 110 601 63 514 q 241 731 157 689 q 435 772 325 772 q 570 757 513 772 q 671 721 628 742 l 610 561 q 519 593 561 581 q 435 606 476 606 q 344 580 381 606 q 291 503 308 554 q 274 376 274 453 q 292 252 274 301 q 347 178 311 203 q 435 154 383 154 q 550 172 500 154 q 647 219 600 189 l 647 43 q 548 -1 600 13 q 417 -14 496 -14 z "},"d":{"ha":879,"x_min":63,"x_max":771,"o":"m 349 -14 q 142 85 222 -14 q 63 378 63 185 q 143 672 63 572 q 354 772 224 772 q 450 758 408 772 q 522 718 492 743 q 572 661 551 693 l 579 661 q 569 726 575 683 q 564 813 564 768 l 564 1056 l 771 1056 l 771 0 l 613 0 l 572 99 l 564 99 q 515 42 544 68 q 444 1 485 17 q 349 -14 404 -14 m 421 151 q 542 202 507 151 q 578 354 576 253 l 578 376 q 544 546 578 488 q 418 604 510 604 q 311 545 350 604 q 272 375 272 486 q 311 208 272 264 q 421 151 350 151 z "},"e":{"ha":821,"x_min":63,"x_max":761,"o":"m 421 772 q 602 732 526 772 q 719 615 678 692 q 761 428 761 539 l 761 328 l 272 328 q 324 190 275 240 q 461 140 374 140 q 594 155 535 140 q 718 200 654 169 l 718 40 q 601 -1 663 13 q 451 -14 539 -14 q 250 28 338 -14 q 113 157 163 71 q 63 374 63 243 q 108 595 63 507 q 233 728 153 683 q 421 772 314 772 m 422 625 q 323 586 363 625 q 276 465 283 547 l 567 465 q 551 547 567 511 q 503 604 535 583 q 422 625 471 625 z "},"f":{"ha":538,"x_min":28,"x_max":600,"o":"m 528 603 l 349 603 l 349 0 l 142 0 l 142 603 l 28 603 l 28 703 l 142 758 l 142 814 q 174 965 142 911 q 267 1040 207 1018 q 410 1063 328 1063 q 520 1053 471 1063 q 600 1031 569 1043 l 547 879 q 496 892 524 886 q 432 899 468 899 q 369 872 389 899 q 349 806 349 846 l 349 758 l 528 758 l 528 603 z "},"g":{"ha":879,"x_min":63,"x_max":771,"o":"m 354 772 q 479 744 424 772 q 574 661 535 717 l 579 661 l 596 758 l 771 758 l 771 -1 q 728 -183 771 -110 q 601 -295 686 -257 q 392 -333 517 -333 q 242 -324 311 -333 q 108 -289 174 -314 l 108 -124 q 252 -167 178 -153 q 404 -182 326 -182 q 524 -139 485 -182 q 564 -10 564 -96 l 564 6 q 566 54 564 29 q 569 99 568 79 l 564 99 q 471 13 525 39 q 349 -14 417 -14 q 138 90 214 -14 q 63 378 63 193 q 140 668 63 564 q 354 772 218 772 m 419 604 q 338 578 371 604 q 290 502 306 553 q 274 375 274 451 q 310 205 274 261 q 422 149 346 149 q 492 159 463 149 q 540 194 521 169 q 568 257 558 218 q 578 351 578 296 l 578 376 q 561 508 578 458 q 510 581 544 558 q 419 604 475 604 z "},"h":{"ha":913,"x_min":108,"x_max":808,"o":"m 315 840 q 312 733 315 785 q 306 661 308 682 l 317 661 q 375 724 342 700 q 449 760 408 749 q 536 772 490 772 q 679 743 618 772 q 774 653 740 714 q 808 494 808 592 l 808 0 l 601 0 l 601 443 q 572 566 601 525 q 479 607 542 607 q 381 578 417 607 q 331 493 346 549 q 315 357 315 438 l 315 0 l 108 0 l 108 1056 l 315 1056 l 315 840 z "},"i":{"ha":424,"x_min":100,"x_max":325,"o":"m 315 758 l 315 0 l 108 0 l 108 758 l 315 758 m 213 1056 q 292 1034 258 1056 q 325 954 325 1013 q 292 875 325 897 q 213 853 258 853 q 133 875 165 853 q 100 954 100 897 q 133 1034 100 1013 q 213 1056 165 1056 z "},"j":{"ha":424,"x_min":-89,"x_max":325,"o":"m 47 -333 q -26 -328 13 -333 q -89 -317 -64 -324 l -89 -154 q -42 -163 -64 -160 q 8 -167 -19 -167 q 79 -143 50 -167 q 108 -51 108 -119 l 108 758 l 315 758 l 315 -82 q 289 -208 315 -151 q 203 -299 263 -265 q 47 -333 144 -333 m 100 954 q 133 1034 100 1013 q 213 1056 165 1056 q 292 1034 258 1056 q 325 954 325 1013 q 292 875 325 897 q 213 853 258 853 q 133 875 165 853 q 100 954 100 897 z "},"k":{"ha":861,"x_min":108,"x_max":861,"o":"m 315 583 q 312 498 315 540 q 304 413 308 456 l 307 413 q 335 451 321 432 q 365 490 350 471 q 397 528 381 510 l 610 758 l 843 758 l 542 429 l 861 0 l 622 0 l 404 307 l 315 236 l 315 0 l 108 0 l 108 1056 l 315 1056 l 315 583 z "},"l":{"ha":424,"x_min":108,"x_max":315,"o":"m 315 0 l 108 0 l 108 1056 l 315 1056 l 315 0 z "},"m":{"ha":1364,"x_min":108,"x_max":1260,"o":"m 999 772 q 1194 706 1128 772 q 1260 494 1260 640 l 1260 0 l 1053 0 l 1053 443 q 1025 566 1053 525 q 939 607 997 607 q 822 549 857 607 q 788 381 788 490 l 788 0 l 581 0 l 581 443 q 568 533 581 497 q 531 588 556 569 q 467 607 506 607 q 376 578 410 607 q 329 493 343 549 q 315 357 315 438 l 315 0 l 108 0 l 108 758 l 267 758 l 294 661 l 306 661 q 364 724 329 700 q 441 760 399 749 q 526 772 483 772 q 668 745 610 772 q 757 661 726 718 l 775 661 q 872 746 810 719 q 999 772 933 772 z "},"n":{"ha":913,"x_min":108,"x_max":808,"o":"m 539 772 q 735 706 661 772 q 808 494 808 640 l 808 0 l 601 0 l 601 443 q 572 566 601 525 q 479 607 543 607 q 350 542 385 607 q 315 357 315 478 l 315 0 l 108 0 l 108 758 l 267 758 l 294 661 l 306 661 q 367 724 331 700 q 447 760 403 749 q 539 772 492 772 z "},"o":{"ha":860,"x_min":63,"x_max":797,"o":"m 797 381 q 772 213 797 286 q 698 88 746 139 q 582 12 650 38 q 428 -14 514 -14 q 281 12 349 -14 q 165 88 214 38 q 90 213 117 139 q 63 381 63 286 q 107 594 63 507 q 235 726 151 681 q 432 772 318 772 q 621 726 539 772 q 750 594 703 681 q 797 381 797 507 m 274 381 q 290 255 274 306 q 340 178 306 204 q 431 153 375 153 q 520 178 486 153 q 570 255 554 204 q 586 381 586 306 q 570 506 586 456 q 519 581 554 556 q 429 606 485 606 q 310 549 347 606 q 274 381 274 493 z "},"p":{"ha":879,"x_min":108,"x_max":817,"o":"m 531 772 q 738 673 658 772 q 817 381 817 574 q 779 163 817 251 q 676 31 742 75 q 525 -14 611 -14 q 431 0 471 -14 q 364 36 392 14 q 315 83 336 58 l 304 83 q 313 28 310 57 q 315 -28 315 0 l 315 -333 l 108 -333 l 108 758 l 276 758 l 306 660 l 315 660 q 365 716 336 690 q 435 757 394 742 q 531 772 476 772 m 464 607 q 378 585 410 607 q 331 517 346 563 q 315 404 317 472 l 315 382 q 329 258 315 308 q 376 181 343 207 q 467 154 410 154 q 544 181 514 154 q 590 258 575 207 q 606 383 606 310 q 572 551 606 494 q 464 607 538 607 z "},"q":{"ha":879,"x_min":63,"x_max":771,"o":"m 564 -15 q 566 42 564 13 q 572 99 568 71 l 564 99 q 483 19 535 51 q 349 -14 432 -14 q 142 85 221 -14 q 63 378 63 185 q 99 595 63 507 q 201 728 136 683 q 353 772 267 772 q 488 740 436 772 q 572 661 540 708 l 578 661 l 596 758 l 771 758 l 771 -333 l 564 -333 l 564 -15 m 422 149 q 513 171 479 149 q 561 238 546 193 q 578 351 576 283 l 578 376 q 544 546 578 488 q 419 604 510 604 q 310 545 346 604 q 274 375 274 486 q 310 205 274 261 q 422 149 346 149 z "},"r":{"ha":631,"x_min":108,"x_max":601,"o":"m 532 772 q 568 771 547 772 q 601 767 589 769 l 586 572 q 558 577 576 575 q 525 579 539 579 q 447 569 485 579 q 380 536 410 558 q 333 477 350 514 q 315 386 315 440 l 315 0 l 108 0 l 108 758 l 265 758 l 296 631 l 306 631 q 361 701 328 669 q 438 753 394 733 q 532 772 482 772 z "},"s":{"ha":690,"x_min":63,"x_max":638,"o":"m 638 225 q 601 95 638 149 q 493 14 565 42 q 314 -14 421 -14 q 178 -3 235 -14 q 64 31 121 7 l 64 201 q 196 156 125 174 q 321 138 267 138 q 408 156 382 138 q 433 203 433 174 q 423 238 433 222 q 378 272 413 253 q 269 322 343 292 q 153 383 199 353 q 85 455 107 413 q 63 561 63 497 q 144 719 63 667 q 363 772 226 772 q 497 758 433 772 q 629 713 561 744 l 567 564 q 461 603 511 588 q 360 619 411 619 q 291 607 314 619 q 268 569 268 594 q 280 537 268 551 q 326 506 292 522 q 426 461 360 489 q 539 406 492 435 q 612 335 586 378 q 638 225 638 293 z "},"t":{"ha":603,"x_min":32,"x_max":558,"o":"m 428 151 q 494 158 463 151 q 558 175 526 165 l 558 21 q 476 -3 525 7 q 368 -14 426 -14 q 247 8 300 -14 q 162 85 193 31 q 131 238 131 140 l 131 603 l 32 603 l 32 690 l 146 760 l 206 919 l 338 919 l 338 758 l 550 758 l 550 603 l 338 603 l 338 238 q 363 173 338 194 q 428 151 388 151 z "},"u":{"ha":913,"x_min":104,"x_max":804,"o":"m 804 758 l 804 0 l 646 0 l 618 97 l 607 97 q 547 34 583 58 q 465 -2 510 10 q 374 -14 421 -14 q 232 15 293 -14 q 138 106 171 44 q 104 264 104 167 l 104 758 l 311 758 l 311 315 q 340 193 311 235 q 433 151 369 151 q 533 181 497 151 q 583 265 568 210 q 597 401 597 321 l 597 758 l 804 758 z "},"v":{"ha":790,"x_min":0,"x_max":790,"o":"m 289 0 l 0 758 l 217 758 l 363 326 q 377 274 371 301 q 387 219 383 246 q 392 171 390 193 l 397 171 q 403 221 399 194 q 413 274 407 247 q 428 326 419 301 l 574 758 l 790 758 l 501 0 l 289 0 z "},"w":{"ha":1189,"x_min":14,"x_max":1175,"o":"m 674 265 q 658 335 668 289 q 635 435 647 382 q 611 534 622 489 q 596 600 600 579 l 590 600 q 576 534 586 579 q 553 435 565 489 q 529 335 540 382 q 513 263 518 288 l 451 0 l 229 0 l 14 758 l 219 758 l 307 422 q 324 339 317 388 q 339 245 332 290 q 349 174 346 200 l 354 174 q 360 226 356 193 q 370 293 364 258 q 381 356 376 328 q 389 394 386 385 l 482 758 l 710 758 l 799 394 q 812 332 804 375 q 826 244 819 289 q 832 174 832 200 l 838 174 q 847 242 840 197 q 863 338 854 288 q 882 422 872 388 l 972 758 l 1175 758 l 957 0 l 732 0 l 674 265 z "},"x":{"ha":803,"x_min":7,"x_max":796,"o":"m 264 388 l 19 758 l 254 758 l 401 517 l 550 758 l 785 758 l 538 388 l 796 0 l 561 0 l 401 260 l 242 0 l 7 0 l 264 388 z "},"y":{"ha":790,"x_min":0,"x_max":790,"o":"m 0 758 l 226 758 l 369 332 q 381 290 376 311 q 390 247 386 269 q 394 200 393 225 l 399 200 q 410 269 403 236 q 428 332 418 301 l 568 758 l 790 758 l 469 -97 q 394 -228 440 -175 q 286 -307 347 -281 q 153 -333 225 -333 q 92 -330 118 -333 q 47 -322 67 -326 l 47 -158 q 84 -164 63 -161 q 129 -167 106 -167 q 203 -149 172 -167 q 256 -99 235 -131 q 289 -32 276 -68 l 301 6 l 0 758 z "},"z":{"ha":678,"x_min":38,"x_max":636,"o":"m 636 0 l 38 0 l 38 122 l 389 600 l 58 600 l 58 758 l 624 758 l 624 624 l 282 158 l 636 158 l 636 0 z "},"{":{"ha":547,"x_min":21,"x_max":492,"o":"m 492 -219 q 309 -200 374 -219 q 219 -139 244 -181 q 194 -31 194 -97 l 194 183 q 174 254 194 228 q 116 292 154 281 q 21 304 78 304 l 21 467 q 116 478 78 467 q 174 517 154 490 q 194 588 194 544 l 194 803 q 219 911 194 869 q 309 972 244 953 q 492 992 374 992 l 492 839 q 429 831 456 839 q 388 802 403 822 q 374 743 374 782 l 374 540 q 333 439 374 476 q 215 390 293 401 l 215 382 q 333 333 293 371 q 374 232 374 296 l 374 29 q 388 -30 374 -10 q 429 -58 403 -50 q 492 -67 456 -65 l 492 -219 z "},"|":{"ha":765,"x_min":308,"x_max":457,"o":"m 308 1051 l 457 1051 l 457 -315 l 308 -315 l 308 1051 z "},"}":{"ha":547,"x_min":56,"x_max":526,"o":"m 56 -67 q 118 -58 92 -65 q 159 -30 144 -50 q 174 29 174 -10 l 174 232 q 215 333 174 296 q 332 382 256 371 l 332 390 q 215 439 256 401 q 174 540 174 476 l 174 743 q 159 802 174 782 q 118 831 144 822 q 56 839 92 839 l 56 992 q 239 972 175 992 q 328 911 303 953 q 353 803 353 869 l 353 588 q 373 517 353 544 q 432 478 393 490 q 526 467 471 467 l 526 304 q 432 292 471 304 q 373 254 393 281 q 353 183 353 228 l 353 -31 q 328 -139 353 -97 q 239 -200 303 -181 q 56 -219 175 -219 l 56 -67 z "},"~":{"ha":794,"x_min":60,"x_max":733,"o":"m 372 418 q 285 448 321 440 q 218 456 250 456 q 137 432 179 456 q 60 374 94 408 l 60 531 q 138 585 94 567 q 233 604 182 604 q 315 597 274 604 q 421 561 356 589 q 508 531 472 539 q 575 524 544 524 q 657 547 615 524 q 733 606 699 571 l 733 449 q 656 394 699 413 q 560 375 613 375 q 478 383 519 375 q 372 418 438 392 z "}," ":{"ha":361,"x_min":0,"x_max":0,"o":""},"¡":{"ha":397,"x_min":79,"x_max":317,"o":"m 114 411 l 279 411 l 314 -250 l 79 -250 l 114 411 m 317 643 q 282 553 317 579 q 197 528 247 528 q 115 553 150 528 q 79 643 79 579 q 115 731 79 704 q 197 758 150 758 q 282 731 247 758 q 317 643 317 704 z "},"¢":{"ha":794,"x_min":97,"x_max":706,"o":"m 503 899 q 617 882 568 896 q 706 849 667 868 l 644 689 q 553 721 596 708 q 469 733 511 733 q 380 708 415 733 q 326 631 344 682 q 308 504 308 581 q 327 380 308 429 q 382 306 346 331 q 469 282 418 282 q 581 296 535 282 q 682 333 628 310 l 682 161 q 595 128 639 140 q 503 114 551 117 l 503 -14 l 382 -14 l 382 119 q 229 176 293 132 q 131 302 165 221 q 97 503 97 383 q 133 715 97 633 q 233 838 168 796 q 382 893 297 881 l 382 1006 l 503 1006 l 503 899 z "},"£":{"ha":794,"x_min":56,"x_max":767,"o":"m 475 1006 q 617 990 550 1006 q 739 950 685 974 l 676 794 q 582 826 629 814 q 492 838 535 838 q 415 812 447 838 q 382 721 382 786 l 382 590 l 636 590 l 636 442 l 382 442 l 382 344 q 367 263 382 296 q 328 209 351 229 q 279 176 304 189 l 767 176 l 767 0 l 56 0 l 56 168 q 122 205 94 185 q 163 258 149 225 q 178 343 178 290 l 178 442 l 57 442 l 57 590 l 178 590 l 178 722 q 218 887 178 825 q 326 977 258 949 q 475 1006 393 1006 z "},"¤":{"ha":794,"x_min":76,"x_max":717,"o":"m 128 490 q 138 560 128 526 q 164 624 147 594 l 76 710 l 176 810 l 263 724 q 326 750 292 740 q 396 760 361 760 q 465 751 432 760 q 529 722 499 742 l 615 810 l 717 713 l 629 625 q 656 562 646 597 q 665 490 665 526 q 656 419 665 453 q 629 356 647 386 l 714 271 l 615 172 l 529 257 q 466 232 500 242 q 396 222 432 222 q 324 231 358 222 q 261 257 290 239 l 176 174 l 78 272 l 164 357 q 137 421 146 388 q 128 490 128 454 m 268 490 q 285 426 268 456 q 332 380 303 397 q 396 363 361 363 q 462 380 432 363 q 509 426 492 397 q 526 490 526 456 q 509 556 526 526 q 462 602 492 585 q 396 619 432 619 q 332 602 361 619 q 285 556 303 585 q 268 490 268 526 z "},"¥":{"ha":794,"x_min":4,"x_max":788,"o":"m 396 583 l 575 992 l 788 992 l 528 485 l 660 485 l 660 364 l 493 364 l 493 271 l 660 271 l 660 150 l 493 150 l 493 0 l 299 0 l 299 150 l 131 150 l 131 271 l 299 271 l 299 364 l 131 364 l 131 485 l 260 485 l 4 992 l 218 992 l 396 583 z "},"¦":{"ha":765,"x_min":308,"x_max":457,"o":"m 308 1051 l 457 1051 l 457 499 l 308 499 l 308 1051 m 308 238 l 457 238 l 457 -315 l 308 -315 l 308 238 z "},"§":{"ha":675,"x_min":72,"x_max":607,"o":"m 82 543 q 109 644 82 603 q 172 711 136 686 q 106 778 129 739 q 82 868 82 817 q 158 1009 82 956 q 357 1063 233 1063 q 486 1047 426 1063 q 603 1006 546 1031 l 547 876 q 453 916 501 899 q 353 933 406 933 q 272 918 297 933 q 247 871 247 903 q 263 831 247 849 q 310 796 278 813 q 392 758 342 779 q 505 701 457 733 q 580 626 553 668 q 607 529 607 585 q 583 420 607 461 q 522 354 560 379 q 585 292 564 328 q 607 206 607 256 q 526 46 607 106 q 308 -14 446 -14 q 177 0 235 -14 q 72 40 119 14 l 72 181 q 149 147 108 163 q 232 123 190 132 q 308 114 274 114 q 413 137 385 114 q 440 193 440 160 q 430 233 440 217 q 390 267 419 250 q 300 310 360 285 q 182 369 231 339 q 108 440 133 399 q 82 543 82 482 m 233 558 q 250 507 233 531 q 302 462 267 483 q 390 418 338 440 l 400 414 q 436 453 419 429 q 453 511 453 476 q 440 563 453 539 q 392 608 426 586 q 294 651 358 629 q 252 617 271 642 q 233 558 233 593 z "},"¨":{"ha":843,"x_min":189,"x_max":654,"o":"m 189 953 q 217 1023 189 1001 q 283 1044 244 1044 q 351 1023 322 1044 q 379 953 379 1001 q 351 885 379 907 q 283 863 322 863 q 217 885 244 863 q 189 953 189 908 m 463 953 q 490 1023 463 1001 q 558 1044 518 1044 q 626 1023 597 1044 q 654 953 654 1001 q 626 885 654 907 q 558 863 597 863 q 491 885 519 863 q 463 953 463 908 z "},"©":{"ha":1156,"x_min":68,"x_max":1088,"o":"m 599 178 q 387 265 457 178 q 317 496 317 353 q 350 660 317 589 q 447 773 383 732 q 604 814 511 814 q 692 803 647 814 q 775 772 736 792 l 735 679 q 667 706 700 697 q 606 715 635 715 q 478 657 524 715 q 433 496 433 599 q 473 333 433 390 q 604 275 513 275 q 676 284 636 275 q 750 307 715 293 l 750 211 q 682 188 717 197 q 599 178 647 178 m 578 -14 q 374 24 467 -14 q 212 130 281 61 q 106 292 143 199 q 68 496 68 385 q 106 694 68 601 q 214 856 144 786 q 376 966 283 926 q 578 1006 469 1006 q 776 968 683 1006 q 938 862 868 931 q 1048 700 1008 793 q 1088 496 1088 607 q 1050 292 1088 385 q 944 130 1013 199 q 782 24 875 61 q 578 -14 689 -14 m 578 75 q 738 106 664 75 q 869 194 813 138 q 958 327 926 250 q 990 496 990 404 q 959 660 990 583 q 872 794 928 736 q 741 885 817 853 q 578 918 665 918 q 413 887 489 918 q 281 799 338 856 q 194 665 225 743 q 163 496 163 588 q 193 327 163 404 q 279 194 224 250 q 410 106 335 138 q 578 75 486 75 z "},"ª":{"ha":532,"x_min":32,"x_max":472,"o":"m 278 1003 q 424 953 376 1003 q 472 818 472 903 l 472 518 l 381 518 l 360 593 q 288 532 331 554 q 196 510 246 510 q 110 526 147 510 q 52 576 72 543 q 32 661 32 610 q 60 748 32 715 q 141 797 88 781 q 269 815 194 813 l 336 818 l 336 829 q 315 879 336 861 q 250 897 293 897 q 181 886 219 897 q 103 856 143 875 l 58 947 q 157 986 103 969 q 278 1003 211 1003 m 269 733 q 190 708 208 729 q 171 663 171 686 q 186 624 171 636 q 224 613 201 613 q 306 641 276 613 q 336 713 336 669 l 336 738 l 269 733 z "},"«":{"ha":854,"x_min":56,"x_max":799,"o":"m 56 389 l 307 697 l 456 617 l 267 381 l 456 144 l 307 64 l 56 371 l 56 389 m 399 389 l 650 697 l 799 617 l 610 381 l 799 144 l 650 64 l 399 371 l 399 389 z "},"¬":{"ha":794,"x_min":60,"x_max":733,"o":"m 733 564 l 733 168 l 585 168 l 585 415 l 60 415 l 60 564 l 733 564 z "},"­":{"ha":447,"x_min":42,"x_max":406,"o":"m 42 288 l 42 457 l 406 457 l 406 288 l 42 288 z "},"®":{"ha":1156,"x_min":68,"x_max":1088,"o":"m 381 192 l 381 806 l 565 806 q 732 758 679 806 q 785 619 785 710 q 751 516 785 554 q 676 461 718 478 l 838 192 l 711 192 l 579 425 l 493 425 l 493 192 l 381 192 m 563 518 q 644 546 617 518 q 671 617 671 574 q 647 688 671 665 q 561 710 622 710 l 493 710 l 493 518 l 563 518 m 578 -14 q 374 24 467 -14 q 212 130 281 61 q 106 292 143 199 q 68 496 68 385 q 106 694 68 601 q 214 856 144 786 q 376 966 283 926 q 578 1006 469 1006 q 776 968 683 1006 q 938 862 868 931 q 1048 700 1008 793 q 1088 496 1088 607 q 1050 292 1088 385 q 944 130 1013 199 q 782 24 875 61 q 578 -14 689 -14 m 578 75 q 738 106 664 75 q 869 194 813 138 q 958 327 926 250 q 990 496 990 404 q 959 660 990 583 q 872 794 928 736 q 741 885 817 853 q 578 918 665 918 q 413 887 489 918 q 281 799 338 856 q 194 665 225 743 q 163 496 163 588 q 193 327 163 404 q 279 194 224 250 q 410 106 335 138 q 578 75 486 75 z "},"¯":{"ha":694,"x_min":-4,"x_max":699,"o":"m 699 1056 l -4 1056 l -4 1192 l 699 1192 l 699 1056 z "},"°":{"ha":594,"x_min":54,"x_max":539,"o":"m 297 538 q 172 567 226 538 q 85 650 117 597 q 54 771 54 703 q 85 892 54 839 q 172 975 117 944 q 297 1006 226 1006 q 424 976 369 1006 q 508 893 478 946 q 539 771 539 840 q 508 650 539 703 q 424 567 478 597 q 297 538 369 538 m 297 667 q 372 695 342 667 q 403 771 403 724 q 372 849 403 821 q 297 878 342 878 q 223 849 254 878 q 192 771 192 821 q 223 695 192 724 q 297 667 254 667 z "},"±":{"ha":794,"x_min":60,"x_max":733,"o":"m 60 0 l 60 149 l 733 149 l 733 0 l 60 0 m 471 606 l 733 606 l 733 457 l 471 457 l 471 196 l 322 196 l 322 457 l 60 457 l 60 606 l 322 606 l 322 869 l 471 869 l 471 606 z "},"²":{"ha":526,"x_min":32,"x_max":476,"o":"m 476 578 l 38 578 l 38 692 l 189 840 q 254 908 231 881 q 288 957 278 935 q 297 1003 297 979 q 281 1042 297 1028 q 238 1056 265 1056 q 181 1042 211 1056 q 115 996 151 1028 l 32 1099 q 131 1162 76 1138 q 260 1186 186 1186 q 405 1142 350 1186 q 460 1017 460 1099 q 444 940 460 975 q 396 866 429 904 q 308 778 363 828 l 238 714 l 476 714 l 476 578 z "},"³":{"ha":526,"x_min":40,"x_max":471,"o":"m 256 1185 q 396 1142 340 1185 q 451 1028 451 1100 q 424 947 451 981 q 336 893 397 913 l 336 885 q 438 831 406 871 q 471 743 471 792 q 411 614 471 661 q 225 567 351 567 q 129 578 174 567 q 40 614 85 590 l 40 743 q 130 699 85 717 q 224 682 175 682 q 297 701 274 682 q 321 754 321 719 q 297 804 321 782 q 208 826 274 826 l 132 826 l 132 935 l 194 935 q 285 958 265 935 q 306 1008 306 981 q 289 1051 306 1035 q 238 1068 272 1068 q 177 1056 206 1068 q 110 1015 149 1043 l 42 1111 q 135 1164 83 1143 q 256 1185 186 1185 z "},"´":{"ha":503,"x_min":56,"x_max":447,"o":"m 447 1050 q 396 1003 428 1031 q 327 944 364 975 q 255 887 290 914 q 193 842 219 860 l 56 842 l 56 860 q 108 922 78 886 q 167 995 138 957 q 215 1064 196 1033 l 447 1064 l 447 1050 z "},"µ":{"ha":917,"x_min":108,"x_max":808,"o":"m 808 758 l 808 0 l 651 0 l 622 101 l 613 101 q 569 38 594 64 q 514 -1 544 13 q 443 -14 483 -14 q 368 2 401 -14 q 313 47 335 18 l 308 47 q 313 3 311 33 q 315 -59 314 -26 q 315 -117 315 -92 l 315 -333 l 108 -333 l 108 758 l 315 758 l 315 315 q 345 193 315 235 q 439 151 375 151 q 537 181 501 151 q 587 265 572 210 q 601 401 601 321 l 601 758 l 808 758 z "},"¶":{"ha":910,"x_min":76,"x_max":792,"o":"m 792 -176 l 682 -176 l 682 919 l 569 919 l 569 -176 l 460 -176 l 460 379 q 415 370 439 374 q 361 367 390 367 q 211 399 275 367 q 112 506 147 431 q 76 707 76 581 q 115 916 76 840 q 222 1024 153 992 q 382 1056 292 1056 l 792 1056 l 792 -176 z "},"·":{"ha":396,"x_min":79,"x_max":317,"o":"m 79 489 q 114 578 79 553 q 199 604 149 604 q 282 578 247 604 q 317 489 317 553 q 282 401 317 428 q 199 374 247 374 q 114 401 149 374 q 79 489 79 428 z "},"¸":{"ha":285,"x_min":-25,"x_max":283,"o":"m 283 -169 q 238 -290 283 -247 q 74 -333 193 -333 q 19 -329 43 -333 q -25 -319 -6 -325 l -25 -206 q 23 -215 -6 -211 q 72 -219 51 -219 q 106 -210 92 -219 q 121 -178 121 -201 q 96 -133 121 -153 q 8 -104 71 -114 l 61 0 l 192 0 l 174 -42 q 226 -67 201 -50 q 267 -110 251 -85 q 283 -169 283 -135 z "},"¹":{"ha":526,"x_min":63,"x_max":396,"o":"m 396 1172 l 396 578 l 235 578 l 235 881 q 235 928 235 899 q 238 984 236 957 q 240 1021 239 1011 q 216 994 232 1010 q 189 968 200 978 l 136 926 l 63 1013 l 267 1172 l 396 1172 z "},"º":{"ha":539,"x_min":39,"x_max":500,"o":"m 500 757 q 438 574 500 639 q 268 510 375 510 q 103 574 168 510 q 39 757 39 639 q 101 939 39 875 q 271 1003 164 1003 q 388 974 336 1003 q 470 891 440 946 q 500 757 500 836 m 176 757 q 199 655 176 689 q 269 621 221 621 q 340 655 318 621 q 361 757 361 689 q 340 858 361 825 q 269 892 318 892 q 199 858 221 892 q 176 757 176 825 z "},"»":{"ha":854,"x_min":56,"x_max":799,"o":"m 799 371 l 547 64 l 399 144 l 588 381 l 399 617 l 547 697 l 799 389 l 799 371 m 456 371 l 204 64 l 56 144 l 244 381 l 56 617 l 204 697 l 456 389 l 456 371 z "},"¼":{"ha":1153,"x_min":31,"x_max":1140,"o":"m 217 0 l 767 992 l 929 992 l 379 0 l 217 0 m 203 700 q 203 747 203 718 q 206 803 204 776 q 208 840 207 831 q 184 813 200 829 q 157 788 168 797 l 104 746 l 31 832 l 235 992 l 364 992 l 364 397 l 203 397 l 203 700 m 894 0 l 894 103 l 635 103 l 635 207 l 896 599 l 1056 599 l 1056 217 l 1140 217 l 1140 103 l 1056 103 l 1056 0 l 894 0 m 760 217 l 894 217 l 894 328 q 896 388 894 356 q 899 453 897 419 q 875 400 892 435 q 846 346 858 365 l 760 217 z "},"½":{"ha":1214,"x_min":31,"x_max":1164,"o":"m 217 0 l 767 992 l 929 992 l 379 0 l 217 0 m 203 700 q 203 734 203 714 q 205 776 204 754 q 206 815 206 797 q 208 840 207 832 q 184 813 200 829 q 157 788 168 797 l 104 746 l 31 832 l 235 992 l 364 992 l 364 397 l 203 397 l 203 700 m 725 0 l 725 114 l 876 263 q 942 330 918 303 q 975 379 965 357 q 985 425 985 401 q 969 464 985 450 q 925 478 953 478 q 869 464 899 478 q 803 418 839 450 l 719 521 q 819 584 764 560 q 947 608 874 608 q 1092 565 1038 608 q 1147 439 1147 521 q 1132 362 1147 397 q 1083 288 1117 326 q 996 200 1050 250 l 925 136 l 1164 136 l 1164 0 l 725 0 z "},"¾":{"ha":1174,"x_min":61,"x_max":1161,"o":"m 265 0 l 815 992 l 978 992 l 428 0 l 265 0 m 246 386 q 150 398 194 386 q 61 433 106 410 l 61 563 q 151 519 106 536 q 244 501 196 501 q 318 520 294 501 q 342 574 342 539 q 318 624 342 601 q 229 646 294 646 l 153 646 l 153 754 l 215 754 q 306 777 286 754 q 326 828 326 800 q 310 871 326 854 q 258 888 293 888 q 198 875 226 888 q 131 835 169 863 l 63 931 q 156 983 104 963 q 276 1004 207 1004 q 417 962 361 1004 q 472 847 472 919 q 445 766 472 800 q 357 713 418 732 l 357 704 q 459 651 426 690 q 492 563 492 611 q 432 433 492 481 q 246 386 372 386 m 915 0 l 915 103 l 656 103 l 656 207 l 917 599 l 1076 599 l 1076 217 l 1161 217 l 1161 103 l 1076 103 l 1076 0 l 915 0 m 781 217 l 915 217 l 915 328 q 917 388 915 356 q 919 453 918 419 q 896 400 913 435 q 867 346 879 365 l 781 217 z "},"¿":{"ha":663,"x_min":38,"x_max":663,"o":"m 479 360 q 467 278 479 314 q 426 210 454 242 q 350 144 397 179 q 283 92 308 115 q 245 44 257 68 q 233 -10 233 21 q 266 -76 233 -53 q 357 -100 299 -100 q 472 -82 415 -100 q 589 -33 529 -64 l 663 -182 q 515 -243 594 -219 q 342 -267 436 -267 q 117 -197 197 -267 q 38 -21 38 -128 q 56 78 38 36 q 110 156 74 119 q 200 231 146 192 q 263 281 242 261 q 292 322 285 301 q 300 369 300 342 l 300 410 l 479 410 l 479 360 m 501 642 q 467 552 501 578 q 382 526 432 526 q 299 552 335 526 q 264 642 264 578 q 299 730 264 703 q 382 757 335 757 q 467 730 432 757 q 501 642 501 703 z "},"À":{"ha":958,"x_min":0,"x_max":958,"o":"m 732 0 l 660 236 l 299 236 l 226 0 l 0 0 l 350 996 l 607 996 l 958 0 l 732 0 m 538 643 q 519 703 531 667 q 497 776 508 739 q 479 842 486 814 q 460 773 472 814 q 438 695 449 732 q 422 643 428 658 l 351 413 l 610 413 l 538 643 m 460 1297 q 509 1228 481 1267 q 567 1155 538 1190 q 619 1093 597 1119 l 619 1075 l 482 1075 q 420 1120 456 1093 q 348 1178 385 1147 q 279 1236 311 1208 q 228 1283 247 1264 l 228 1297 l 460 1297 z "},"Á":{"ha":958,"x_min":0,"x_max":958,"o":"m 732 0 l 660 236 l 299 236 l 226 0 l 0 0 l 350 996 l 607 996 l 958 0 l 732 0 m 538 643 q 519 703 531 667 q 497 776 508 739 q 479 842 486 814 q 460 773 472 814 q 438 695 449 732 q 422 643 428 658 l 351 413 l 610 413 l 538 643 m 772 1283 q 721 1236 753 1264 q 652 1178 689 1208 q 580 1120 615 1147 q 518 1075 544 1093 l 381 1075 l 381 1093 q 433 1155 403 1119 q 492 1228 463 1190 q 540 1297 521 1267 l 772 1297 l 772 1283 z "},"Â":{"ha":958,"x_min":0,"x_max":958,"o":"m 732 0 l 660 236 l 299 236 l 226 0 l 0 0 l 350 996 l 607 996 l 958 0 l 732 0 m 538 643 q 519 703 531 667 q 497 776 508 739 q 479 842 486 814 q 460 773 472 814 q 438 695 449 732 q 422 643 428 658 l 351 413 l 610 413 l 538 643 m 600 1297 q 651 1228 619 1267 q 715 1154 682 1190 q 774 1093 749 1118 l 774 1075 l 636 1075 q 557 1127 600 1097 q 478 1194 514 1157 q 400 1128 442 1157 q 322 1075 358 1099 l 185 1075 l 185 1093 q 244 1155 211 1119 q 308 1228 276 1190 q 358 1297 339 1267 l 600 1297 z "},"Ã":{"ha":958,"x_min":0,"x_max":958,"o":"m 732 0 l 660 236 l 299 236 l 226 0 l 0 0 l 350 996 l 607 996 l 958 0 l 732 0 m 538 643 q 519 703 531 667 q 497 776 508 739 q 479 842 486 814 q 460 773 472 814 q 438 695 449 732 q 422 643 428 658 l 351 413 l 610 413 l 538 643 m 199 1074 q 219 1167 203 1128 q 260 1233 235 1207 q 316 1271 285 1258 q 383 1283 347 1283 q 438 1273 411 1283 q 491 1248 465 1263 q 542 1223 517 1233 q 592 1213 567 1213 q 632 1231 613 1213 q 660 1285 651 1249 l 761 1285 q 700 1126 753 1178 q 576 1075 647 1075 q 522 1085 549 1075 q 469 1110 496 1096 q 418 1135 443 1125 q 368 1146 393 1146 q 328 1128 347 1146 q 300 1074 308 1110 l 199 1074 z "},"Ä":{"ha":958,"x_min":0,"x_max":958,"o":"m 732 0 l 660 236 l 299 236 l 226 0 l 0 0 l 350 996 l 607 996 l 958 0 l 732 0 m 538 643 q 519 703 531 667 q 497 776 508 739 q 479 842 486 814 q 460 773 472 814 q 438 695 449 732 q 422 643 428 658 l 351 413 l 610 413 l 538 643 m 246 1186 q 274 1256 246 1235 q 340 1278 301 1278 q 408 1256 379 1278 q 436 1186 436 1235 q 408 1118 436 1140 q 340 1096 379 1096 q 274 1119 301 1096 q 246 1186 246 1142 m 519 1186 q 547 1256 519 1235 q 615 1278 575 1278 q 683 1256 654 1278 q 711 1186 711 1235 q 683 1118 711 1140 q 615 1096 654 1096 q 548 1119 576 1096 q 519 1186 519 1142 z "},"Å":{"ha":958,"x_min":0,"x_max":958,"o":"m 732 0 l 660 236 l 299 236 l 226 0 l 0 0 l 350 996 l 607 996 l 958 0 l 732 0 m 538 643 q 519 703 531 667 q 497 776 508 739 q 479 842 486 814 q 460 773 472 814 q 438 695 449 732 q 422 643 428 658 l 351 413 l 610 413 l 538 643 m 478 900 q 356 943 403 900 q 310 1061 310 986 q 356 1179 310 1136 q 478 1222 403 1222 q 600 1179 550 1222 q 650 1063 650 1136 q 601 943 650 986 q 478 900 551 900 m 478 996 q 524 1013 506 996 q 543 1061 543 1031 q 524 1109 543 1092 q 478 1126 506 1126 q 431 1109 450 1126 q 413 1061 413 1092 q 429 1013 413 1031 q 478 996 446 996 z "},"Æ":{"ha":1322,"x_min":0,"x_max":1240,"o":"m 1240 0 l 649 0 l 649 236 l 315 236 l 214 0 l 0 0 l 444 992 l 1240 992 l 1240 819 l 858 819 l 858 601 l 1215 601 l 1215 429 l 858 429 l 858 174 l 1240 174 l 1240 0 m 392 413 l 649 413 l 649 813 l 563 813 l 392 413 z "},"Ç":{"ha":885,"x_min":81,"x_max":836,"o":"m 546 831 q 440 807 486 831 q 361 740 393 783 q 313 633 329 696 q 297 493 297 571 q 323 313 297 388 q 404 200 349 239 q 546 161 460 161 q 667 175 607 161 q 799 214 728 189 l 799 38 q 669 -1 733 11 q 526 -14 606 -14 q 274 49 374 -14 q 128 227 175 113 q 81 494 81 342 q 111 701 81 607 q 201 863 142 794 q 347 968 260 931 q 546 1006 433 1006 q 694 987 619 1006 q 836 936 768 968 l 768 765 q 656 811 713 792 q 546 831 600 831 m 675 -169 q 630 -290 675 -247 q 465 -333 585 -333 q 410 -329 435 -333 q 367 -319 386 -325 l 367 -206 q 415 -215 386 -211 q 464 -219 443 -219 q 498 -210 483 -219 q 513 -178 513 -201 q 488 -133 513 -153 q 400 -104 463 -114 l 453 0 l 583 0 l 565 -42 q 618 -67 593 -50 q 659 -110 643 -85 q 675 -169 675 -135 z "},"È":{"ha":778,"x_min":125,"x_max":696,"o":"m 696 0 l 125 0 l 125 992 l 696 992 l 696 819 l 335 819 l 335 601 l 671 601 l 671 429 l 335 429 l 335 174 l 696 174 l 696 0 m 399 1297 q 448 1228 419 1267 q 506 1155 476 1190 q 558 1093 536 1119 l 558 1075 l 421 1075 q 359 1120 394 1093 q 287 1178 324 1147 q 218 1236 250 1208 q 167 1283 186 1264 l 167 1297 l 399 1297 z "},"É":{"ha":778,"x_min":125,"x_max":711,"o":"m 696 0 l 125 0 l 125 992 l 696 992 l 696 819 l 335 819 l 335 601 l 671 601 l 671 429 l 335 429 l 335 174 l 696 174 l 696 0 m 711 1283 q 660 1236 692 1264 q 591 1178 628 1208 q 519 1120 554 1147 q 457 1075 483 1093 l 319 1075 l 319 1093 q 372 1155 342 1119 q 431 1228 401 1190 q 479 1297 460 1267 l 711 1297 l 711 1283 z "},"Ê":{"ha":778,"x_min":124,"x_max":713,"o":"m 696 0 l 125 0 l 125 992 l 696 992 l 696 819 l 335 819 l 335 601 l 671 601 l 671 429 l 335 429 l 335 174 l 696 174 l 696 0 m 539 1297 q 590 1228 558 1267 q 654 1154 621 1190 q 713 1093 688 1118 l 713 1075 l 575 1075 q 496 1127 539 1097 q 417 1194 453 1157 q 339 1128 381 1157 q 261 1075 297 1099 l 124 1075 l 124 1093 q 183 1155 150 1119 q 247 1228 215 1190 q 297 1297 278 1267 l 539 1297 z "},"Ë":{"ha":778,"x_min":125,"x_max":696,"o":"m 696 0 l 125 0 l 125 992 l 696 992 l 696 819 l 335 819 l 335 601 l 671 601 l 671 429 l 335 429 l 335 174 l 696 174 l 696 0 m 185 1186 q 213 1256 185 1235 q 279 1278 240 1278 q 347 1256 318 1278 q 375 1186 375 1235 q 347 1118 375 1140 q 279 1096 318 1096 q 213 1119 240 1096 q 185 1186 185 1142 m 458 1186 q 486 1256 458 1235 q 554 1278 514 1278 q 622 1256 593 1278 q 650 1186 650 1235 q 622 1118 650 1140 q 554 1096 593 1096 q 487 1119 515 1096 q 458 1186 458 1142 z "},"Ì":{"ha":540,"x_min":19,"x_max":496,"o":"m 496 0 l 44 0 l 44 119 l 165 175 l 165 817 l 44 872 l 44 992 l 496 992 l 496 872 l 375 817 l 375 175 l 496 119 l 496 0 m 251 1297 q 301 1228 272 1267 q 359 1155 329 1190 q 411 1093 389 1119 l 411 1075 l 274 1075 q 212 1120 247 1093 q 140 1178 176 1147 q 71 1236 103 1208 q 19 1283 39 1264 l 19 1297 l 251 1297 z "},"Í":{"ha":540,"x_min":44,"x_max":564,"o":"m 496 0 l 44 0 l 44 119 l 165 175 l 165 817 l 44 872 l 44 992 l 496 992 l 496 872 l 375 817 l 375 175 l 496 119 l 496 0 m 564 1283 q 513 1236 544 1264 q 444 1178 481 1208 q 372 1120 407 1147 q 310 1075 336 1093 l 172 1075 l 172 1093 q 224 1155 194 1119 q 283 1228 254 1190 q 332 1297 313 1267 l 564 1297 l 564 1283 z "},"Î":{"ha":540,"x_min":-24,"x_max":565,"o":"m 496 0 l 44 0 l 44 119 l 165 175 l 165 817 l 44 872 l 44 992 l 496 992 l 496 872 l 375 817 l 375 175 l 496 119 l 496 0 m 392 1297 q 442 1228 411 1267 q 507 1154 474 1190 q 565 1093 540 1118 l 565 1075 l 428 1075 q 349 1127 392 1097 q 269 1194 306 1157 q 192 1128 233 1157 q 114 1075 150 1099 l -24 1075 l -24 1093 q 35 1155 3 1119 q 99 1228 68 1190 q 150 1297 131 1267 l 392 1297 z "},"Ï":{"ha":540,"x_min":38,"x_max":503,"o":"m 496 0 l 44 0 l 44 119 l 165 175 l 165 817 l 44 872 l 44 992 l 496 992 l 496 872 l 375 817 l 375 175 l 496 119 l 496 0 m 38 1186 q 65 1256 38 1235 q 132 1278 93 1278 q 199 1256 171 1278 q 228 1186 228 1235 q 199 1118 228 1140 q 132 1096 171 1096 q 65 1119 93 1096 q 38 1186 38 1142 m 311 1186 q 339 1256 311 1235 q 407 1278 367 1278 q 474 1256 446 1278 q 503 1186 503 1235 q 474 1118 503 1140 q 407 1096 446 1096 q 340 1119 368 1096 q 311 1186 311 1142 z "},"Ð":{"ha":1028,"x_min":32,"x_max":947,"o":"m 436 992 q 706 936 592 992 q 884 773 821 881 q 947 506 947 665 q 883 226 947 339 q 698 57 819 114 q 406 0 576 0 l 125 0 l 125 404 l 32 404 l 32 576 l 125 576 l 125 992 l 436 992 m 446 819 l 335 819 l 335 576 l 496 576 l 496 404 l 335 404 l 335 174 l 424 174 q 653 256 576 174 q 729 500 729 338 q 696 681 729 610 q 599 785 663 751 q 446 819 536 819 z "},"Ñ":{"ha":1129,"x_min":125,"x_max":1004,"o":"m 1004 0 l 738 0 l 306 750 l 300 750 q 305 656 303 703 q 309 561 307 608 q 313 467 311 514 l 313 0 l 125 0 l 125 992 l 390 992 l 821 249 l 825 249 q 822 340 824 294 q 819 431 821 386 q 815 522 817 476 l 815 992 l 1004 992 l 1004 0 m 285 1074 q 305 1167 289 1128 q 346 1233 321 1207 q 402 1271 371 1258 q 469 1283 433 1283 q 524 1273 497 1283 q 577 1248 551 1263 q 628 1223 603 1233 q 678 1213 653 1213 q 718 1231 699 1213 q 746 1285 738 1249 l 847 1285 q 786 1126 839 1178 q 663 1075 733 1075 q 608 1085 635 1075 q 556 1110 582 1096 q 504 1135 529 1125 q 454 1146 479 1146 q 414 1128 433 1146 q 386 1074 394 1110 l 285 1074 z "},"Ò":{"ha":1106,"x_min":81,"x_max":1025,"o":"m 1025 497 q 997 288 1025 382 q 910 126 968 194 q 763 22 853 58 q 553 -14 674 -14 q 342 23 432 -14 q 195 127 253 60 q 109 289 138 194 q 81 499 81 383 q 131 767 81 653 q 287 944 182 881 q 554 1007 392 1007 q 819 944 715 1007 q 974 766 924 881 q 1025 497 1025 651 m 301 497 q 328 318 301 393 q 410 203 354 243 q 553 163 465 163 q 698 203 643 163 q 778 318 753 243 q 804 497 804 393 q 746 743 804 654 q 554 832 688 832 q 410 792 465 832 q 328 676 354 751 q 301 497 301 601 m 533 1297 q 583 1228 554 1267 q 641 1155 611 1190 q 693 1093 671 1119 l 693 1075 l 556 1075 q 494 1120 529 1093 q 422 1178 458 1147 q 353 1236 385 1208 q 301 1283 321 1264 l 301 1297 l 533 1297 z "},"Ó":{"ha":1106,"x_min":81,"x_max":1025,"o":"m 1025 497 q 997 288 1025 382 q 910 126 968 194 q 763 22 853 58 q 553 -14 674 -14 q 342 23 432 -14 q 195 127 253 60 q 109 289 138 194 q 81 499 81 383 q 131 767 81 653 q 287 944 182 881 q 554 1007 392 1007 q 819 944 715 1007 q 974 766 924 881 q 1025 497 1025 651 m 301 497 q 328 318 301 393 q 410 203 354 243 q 553 163 465 163 q 698 203 643 163 q 778 318 753 243 q 804 497 804 393 q 746 743 804 654 q 554 832 688 832 q 410 792 465 832 q 328 676 354 751 q 301 497 301 601 m 846 1283 q 794 1236 826 1264 q 726 1178 763 1208 q 653 1120 689 1147 q 592 1075 618 1093 l 454 1075 l 454 1093 q 506 1155 476 1119 q 565 1228 536 1190 q 614 1297 594 1267 l 846 1297 l 846 1283 z "},"Ô":{"ha":1106,"x_min":81,"x_max":1025,"o":"m 1025 497 q 997 288 1025 382 q 910 126 968 194 q 763 22 853 58 q 553 -14 674 -14 q 342 23 432 -14 q 195 127 253 60 q 109 289 138 194 q 81 499 81 383 q 131 767 81 653 q 287 944 182 881 q 554 1007 392 1007 q 819 944 715 1007 q 974 766 924 881 q 1025 497 1025 651 m 301 497 q 328 318 301 393 q 410 203 354 243 q 553 163 465 163 q 698 203 643 163 q 778 318 753 243 q 804 497 804 393 q 746 743 804 654 q 554 832 688 832 q 410 792 465 832 q 328 676 354 751 q 301 497 301 601 m 674 1297 q 724 1228 693 1267 q 789 1154 756 1190 q 847 1093 822 1118 l 847 1075 l 710 1075 q 631 1127 674 1097 q 551 1194 588 1157 q 474 1128 515 1157 q 396 1075 432 1099 l 258 1075 l 258 1093 q 317 1155 285 1119 q 381 1228 350 1190 q 432 1297 413 1267 l 674 1297 z "},"Õ":{"ha":1106,"x_min":81,"x_max":1025,"o":"m 1025 497 q 997 288 1025 382 q 910 126 968 194 q 763 22 853 58 q 553 -14 674 -14 q 342 23 432 -14 q 195 127 253 60 q 109 289 138 194 q 81 499 81 383 q 131 767 81 653 q 287 944 182 881 q 554 1007 392 1007 q 819 944 715 1007 q 974 766 924 881 q 1025 497 1025 651 m 301 497 q 328 318 301 393 q 410 203 354 243 q 553 163 465 163 q 698 203 643 163 q 778 318 753 243 q 804 497 804 393 q 746 743 804 654 q 554 832 688 832 q 410 792 465 832 q 328 676 354 751 q 301 497 301 601 m 272 1074 q 292 1167 276 1128 q 333 1233 308 1207 q 390 1271 358 1258 q 457 1283 421 1283 q 512 1273 485 1283 q 565 1248 539 1263 q 615 1223 590 1233 q 665 1213 640 1213 q 706 1231 686 1213 q 733 1285 725 1249 l 835 1285 q 774 1126 826 1178 q 650 1075 721 1075 q 596 1085 622 1075 q 543 1110 569 1096 q 492 1135 517 1125 q 442 1146 467 1146 q 401 1128 421 1146 q 374 1074 382 1110 l 272 1074 z "},"Ö":{"ha":1106,"x_min":81,"x_max":1025,"o":"m 1025 497 q 997 288 1025 382 q 910 126 968 194 q 763 22 853 58 q 553 -14 674 -14 q 342 23 432 -14 q 195 127 253 60 q 109 289 138 194 q 81 499 81 383 q 131 767 81 653 q 287 944 182 881 q 554 1007 392 1007 q 819 944 715 1007 q 974 766 924 881 q 1025 497 1025 651 m 301 497 q 328 318 301 393 q 410 203 354 243 q 553 163 465 163 q 698 203 643 163 q 778 318 753 243 q 804 497 804 393 q 746 743 804 654 q 554 832 688 832 q 410 792 465 832 q 328 676 354 751 q 301 497 301 601 m 319 1186 q 347 1256 319 1235 q 414 1278 375 1278 q 481 1256 453 1278 q 510 1186 510 1235 q 481 1118 510 1140 q 414 1096 453 1096 q 347 1119 375 1096 q 319 1186 319 1142 m 593 1186 q 621 1256 593 1235 q 689 1278 649 1278 q 756 1256 728 1278 q 785 1186 785 1235 q 756 1118 785 1140 q 689 1096 728 1096 q 622 1119 650 1096 q 593 1186 593 1142 z "},"×":{"ha":794,"x_min":88,"x_max":706,"o":"m 601 799 l 706 697 l 499 490 l 703 285 l 601 182 l 394 386 l 190 183 l 89 286 l 290 490 l 88 694 l 190 799 l 394 596 l 601 799 z "},"Ø":{"ha":1106,"x_min":81,"x_max":1025,"o":"m 1025 497 q 997 288 1025 382 q 910 126 968 194 q 763 22 853 58 q 553 -14 674 -14 q 429 -3 486 -14 q 325 31 372 8 l 264 -61 l 154 13 l 215 104 q 114 272 147 172 q 81 499 81 372 q 131 767 81 653 q 287 944 182 881 q 554 1007 392 1007 q 682 995 624 1007 q 788 960 740 983 l 844 1044 l 953 974 l 893 885 q 992 719 960 818 q 1025 497 1025 621 m 804 497 q 769 699 804 621 l 431 189 q 486 169 456 176 q 553 163 517 163 q 698 203 643 163 q 778 318 753 243 q 804 497 804 393 m 301 497 q 310 382 301 435 q 339 289 319 329 l 682 801 q 624 824 656 817 q 554 832 592 832 q 410 792 465 832 q 328 676 354 751 q 301 497 301 601 z "},"Ù":{"ha":1050,"x_min":118,"x_max":932,"o":"m 932 350 q 887 165 932 247 q 751 34 842 82 q 521 -14 660 -14 q 221 87 324 -14 q 118 353 118 188 l 118 992 l 328 992 l 328 385 q 378 213 328 263 q 526 163 428 163 q 639 186 596 163 q 702 260 682 210 q 722 386 722 310 l 722 992 l 932 992 l 932 350 m 506 1297 q 555 1228 526 1267 q 613 1155 583 1190 q 665 1093 643 1119 l 665 1075 l 528 1075 q 466 1120 501 1093 q 394 1178 431 1147 q 325 1236 357 1208 q 274 1283 293 1264 l 274 1297 l 506 1297 z "},"Ú":{"ha":1050,"x_min":118,"x_max":932,"o":"m 932 350 q 887 165 932 247 q 751 34 842 82 q 521 -14 660 -14 q 221 87 324 -14 q 118 353 118 188 l 118 992 l 328 992 l 328 385 q 378 213 328 263 q 526 163 428 163 q 639 186 596 163 q 702 260 682 210 q 722 386 722 310 l 722 992 l 932 992 l 932 350 m 818 1283 q 767 1236 799 1264 q 698 1178 735 1208 q 626 1120 661 1147 q 564 1075 590 1093 l 426 1075 l 426 1093 q 478 1155 449 1119 q 538 1228 508 1190 q 586 1297 567 1267 l 818 1297 l 818 1283 z "},"Û":{"ha":1050,"x_min":118,"x_max":932,"o":"m 932 350 q 887 165 932 247 q 751 34 842 82 q 521 -14 660 -14 q 221 87 324 -14 q 118 353 118 188 l 118 992 l 328 992 l 328 385 q 378 213 328 263 q 526 163 428 163 q 639 186 596 163 q 702 260 682 210 q 722 386 722 310 l 722 992 l 932 992 l 932 350 m 646 1297 q 697 1228 665 1267 q 761 1154 728 1190 q 819 1093 794 1118 l 819 1075 l 682 1075 q 603 1127 646 1097 q 524 1194 560 1157 q 446 1128 488 1157 q 368 1075 404 1099 l 231 1075 l 231 1093 q 290 1155 257 1119 q 353 1228 322 1190 q 404 1297 385 1267 l 646 1297 z "},"Ü":{"ha":1050,"x_min":118,"x_max":932,"o":"m 932 350 q 887 165 932 247 q 751 34 842 82 q 521 -14 660 -14 q 221 87 324 -14 q 118 353 118 188 l 118 992 l 328 992 l 328 385 q 378 213 328 263 q 526 163 428 163 q 639 186 596 163 q 702 260 682 210 q 722 386 722 310 l 722 992 l 932 992 l 932 350 m 292 1186 q 319 1256 292 1235 q 386 1278 347 1278 q 453 1256 425 1278 q 482 1186 482 1235 q 453 1118 482 1140 q 386 1096 425 1096 q 319 1119 347 1096 q 292 1186 292 1142 m 565 1186 q 593 1256 565 1235 q 661 1278 621 1278 q 728 1256 700 1278 q 757 1186 757 1235 q 728 1118 757 1140 q 661 1096 700 1096 q 594 1119 622 1096 q 565 1186 565 1142 z "},"Ý":{"ha":867,"x_min":0,"x_max":867,"o":"m 433 583 l 640 992 l 867 992 l 538 386 l 538 0 l 329 0 l 329 379 l 0 992 l 228 992 l 433 583 m 726 1283 q 675 1236 707 1264 q 606 1178 643 1208 q 534 1120 569 1147 q 472 1075 499 1093 l 335 1075 l 335 1093 q 387 1155 357 1119 q 446 1228 417 1190 q 494 1297 475 1267 l 726 1297 l 726 1283 z "},"Þ":{"ha":872,"x_min":125,"x_max":810,"o":"m 810 522 q 790 401 810 458 q 728 297 771 343 q 615 225 686 251 q 439 199 543 199 l 335 199 l 335 0 l 125 0 l 125 992 l 335 992 l 335 836 l 456 836 q 724 751 639 836 q 810 522 810 665 m 403 368 q 511 384 468 368 q 576 434 554 400 q 597 522 597 468 q 554 631 597 596 q 419 665 511 665 l 335 665 l 335 368 l 403 368 z "},"ß":{"ha":988,"x_min":108,"x_max":939,"o":"m 847 842 q 828 753 847 790 q 779 688 808 715 q 721 639 750 660 q 672 601 692 618 q 653 565 653 583 q 667 534 653 549 q 712 499 681 519 q 794 446 743 479 q 872 387 840 418 q 922 316 904 356 q 939 221 939 276 q 903 92 939 144 q 799 13 868 39 q 626 -14 729 -14 q 510 -3 560 -14 q 421 29 461 7 l 421 193 q 476 165 443 179 q 545 143 508 151 q 613 135 582 135 q 697 156 667 135 q 726 218 726 176 q 717 260 726 243 q 680 299 707 278 q 599 350 653 319 q 508 411 542 383 q 461 469 475 439 q 447 535 447 499 q 466 608 447 578 q 513 661 485 639 q 570 704 542 683 q 617 749 599 725 q 636 806 636 772 q 592 875 636 849 q 482 901 547 901 q 396 887 433 901 q 337 842 358 872 q 315 765 315 813 l 315 0 l 108 0 l 108 772 q 158 935 108 871 q 292 1031 207 1000 q 482 1063 376 1063 q 669 1037 586 1063 q 799 962 751 1011 q 847 842 847 913 z "},"à":{"ha":839,"x_min":58,"x_max":735,"o":"m 419 774 q 653 708 572 774 q 735 506 735 642 l 735 0 l 590 0 l 550 103 l 544 103 q 478 36 513 63 q 401 -2 444 10 q 293 -14 357 -14 q 173 12 226 -14 q 89 91 119 38 q 58 226 58 144 q 143 405 58 347 q 397 468 228 463 l 529 472 l 529 506 q 498 593 529 565 q 411 621 467 621 q 303 605 356 621 q 197 565 250 589 l 129 706 q 265 756 190 738 q 419 774 339 774 m 449 349 q 310 313 349 346 q 271 225 271 279 q 299 158 271 178 q 371 138 326 138 q 483 177 438 138 q 529 289 529 217 l 529 351 l 449 349 m 400 1064 q 449 995 421 1033 q 508 922 478 957 q 560 860 538 886 l 560 842 l 422 842 q 360 887 396 860 q 288 944 325 914 q 219 1003 251 975 q 168 1050 188 1031 l 168 1064 l 400 1064 z "},"á":{"ha":839,"x_min":58,"x_max":735,"o":"m 419 774 q 653 708 572 774 q 735 506 735 642 l 735 0 l 590 0 l 550 103 l 544 103 q 478 36 513 63 q 401 -2 444 10 q 293 -14 357 -14 q 173 12 226 -14 q 89 91 119 38 q 58 226 58 144 q 143 405 58 347 q 397 468 228 463 l 529 472 l 529 506 q 498 593 529 565 q 411 621 467 621 q 303 605 356 621 q 197 565 250 589 l 129 706 q 265 756 190 738 q 419 774 339 774 m 449 349 q 310 313 349 346 q 271 225 271 279 q 299 158 271 178 q 371 138 326 138 q 483 177 438 138 q 529 289 529 217 l 529 351 l 449 349 m 713 1050 q 661 1003 693 1031 q 592 944 629 975 q 520 887 556 914 q 458 842 485 860 l 321 842 l 321 860 q 373 922 343 886 q 432 995 403 957 q 481 1064 461 1033 l 713 1064 l 713 1050 z "},"â":{"ha":839,"x_min":58,"x_max":735,"o":"m 419 774 q 653 708 572 774 q 735 506 735 642 l 735 0 l 590 0 l 550 103 l 544 103 q 478 36 513 63 q 401 -2 444 10 q 293 -14 357 -14 q 173 12 226 -14 q 89 91 119 38 q 58 226 58 144 q 143 405 58 347 q 397 468 228 463 l 529 472 l 529 506 q 498 593 529 565 q 411 621 467 621 q 303 605 356 621 q 197 565 250 589 l 129 706 q 265 756 190 738 q 419 774 339 774 m 449 349 q 310 313 349 346 q 271 225 271 279 q 299 158 271 178 q 371 138 326 138 q 483 177 438 138 q 529 289 529 217 l 529 351 l 449 349 m 540 1064 q 591 995 560 1033 q 656 921 622 957 q 714 860 689 885 l 714 842 l 576 842 q 497 894 540 864 q 418 961 454 924 q 340 894 382 924 q 263 842 299 865 l 125 842 l 125 860 q 184 922 151 886 q 248 995 217 957 q 299 1064 279 1033 l 540 1064 z "},"ã":{"ha":839,"x_min":58,"x_max":735,"o":"m 419 774 q 653 708 572 774 q 735 506 735 642 l 735 0 l 590 0 l 550 103 l 544 103 q 478 36 513 63 q 401 -2 444 10 q 293 -14 357 -14 q 173 12 226 -14 q 89 91 119 38 q 58 226 58 144 q 143 405 58 347 q 397 468 228 463 l 529 472 l 529 506 q 498 593 529 565 q 411 621 467 621 q 303 605 356 621 q 197 565 250 589 l 129 706 q 265 756 190 738 q 419 774 339 774 m 449 349 q 310 313 349 346 q 271 225 271 279 q 299 158 271 178 q 371 138 326 138 q 483 177 438 138 q 529 289 529 217 l 529 351 l 449 349 m 139 840 q 159 934 143 894 q 200 999 175 974 q 256 1038 225 1025 q 324 1050 288 1050 q 378 1040 351 1050 q 431 1015 406 1029 q 482 990 457 1000 q 532 979 507 979 q 572 997 553 979 q 600 1051 592 1015 l 701 1051 q 640 893 693 944 q 517 842 588 842 q 463 852 489 842 q 410 877 436 863 q 358 902 383 892 q 308 913 333 913 q 268 894 288 913 q 240 840 249 876 l 139 840 z "},"ä":{"ha":839,"x_min":58,"x_max":735,"o":"m 419 774 q 653 708 572 774 q 735 506 735 642 l 735 0 l 590 0 l 550 103 l 544 103 q 478 36 513 63 q 401 -2 444 10 q 293 -14 357 -14 q 173 12 226 -14 q 89 91 119 38 q 58 226 58 144 q 143 405 58 347 q 397 468 228 463 l 529 472 l 529 506 q 498 593 529 565 q 411 621 467 621 q 303 605 356 621 q 197 565 250 589 l 129 706 q 265 756 190 738 q 419 774 339 774 m 449 349 q 310 313 349 346 q 271 225 271 279 q 299 158 271 178 q 371 138 326 138 q 483 177 438 138 q 529 289 529 217 l 529 351 l 449 349 m 186 953 q 214 1023 186 1001 q 281 1044 242 1044 q 348 1023 319 1044 q 376 953 376 1001 q 348 885 376 907 q 281 863 319 863 q 214 885 242 863 q 186 953 186 908 m 460 953 q 488 1023 460 1001 q 556 1044 515 1044 q 623 1023 594 1044 q 651 953 651 1001 q 623 885 651 907 q 556 863 594 863 q 488 885 517 863 q 460 953 460 908 z "},"å":{"ha":839,"x_min":58,"x_max":735,"o":"m 419 774 q 653 708 572 774 q 735 506 735 642 l 735 0 l 590 0 l 550 103 l 544 103 q 478 36 513 63 q 401 -2 444 10 q 293 -14 357 -14 q 173 12 226 -14 q 89 91 119 38 q 58 226 58 144 q 143 405 58 347 q 397 468 228 463 l 529 472 l 529 506 q 498 593 529 565 q 411 621 467 621 q 303 605 356 621 q 197 565 250 589 l 129 706 q 265 756 190 738 q 419 774 339 774 m 449 349 q 310 313 349 346 q 271 225 271 279 q 299 158 271 178 q 371 138 326 138 q 483 177 438 138 q 529 289 529 217 l 529 351 l 449 349 m 417 840 q 295 883 342 840 q 249 1001 249 926 q 295 1119 249 1076 q 417 1163 342 1163 q 539 1119 489 1163 q 589 1003 589 1076 q 540 883 589 926 q 417 840 490 840 m 417 936 q 463 953 444 936 q 482 1001 482 971 q 463 1049 482 1032 q 417 1067 444 1067 q 370 1049 389 1067 q 351 1001 351 1032 q 368 953 351 971 q 417 936 385 936 z "},"æ":{"ha":1274,"x_min":58,"x_max":1214,"o":"m 890 772 q 1059 732 986 772 q 1173 615 1132 692 q 1214 428 1214 539 l 1214 328 l 724 328 q 776 190 726 240 q 913 140 825 140 q 1044 155 982 140 q 1171 200 1107 169 l 1171 40 q 1053 -1 1114 13 q 901 -14 992 -14 q 785 1 840 -14 q 685 48 729 17 q 607 126 640 79 q 526 47 567 78 q 432 1 485 15 q 300 -14 379 -14 q 180 12 235 -14 q 92 91 125 38 q 58 226 58 144 q 95 359 58 307 q 205 438 132 411 q 386 468 278 464 l 515 472 l 515 529 q 485 599 515 576 q 403 621 456 621 q 298 606 349 621 q 196 568 247 592 l 129 706 q 263 756 189 738 q 415 774 336 774 q 550 751 492 774 q 647 685 608 729 q 751 751 692 729 q 890 772 810 772 m 439 349 q 308 313 344 346 q 271 225 271 279 q 297 158 271 178 q 365 138 322 138 q 442 155 408 138 q 495 206 475 172 q 515 289 515 240 l 515 351 l 439 349 m 886 625 q 776 586 818 625 q 728 465 735 547 l 1019 465 q 1003 547 1019 511 q 958 604 988 583 q 886 625 929 625 z "},"ç":{"ha":714,"x_min":63,"x_max":671,"o":"m 417 -14 q 225 27 304 -14 q 104 154 146 68 q 63 375 63 240 q 110 601 63 514 q 241 731 157 689 q 435 772 325 772 q 570 757 513 772 q 671 721 628 742 l 610 561 q 519 593 561 581 q 435 606 476 606 q 344 580 381 606 q 291 503 308 554 q 274 376 274 453 q 292 252 274 301 q 347 178 311 203 q 435 154 383 154 q 550 172 500 154 q 647 219 600 189 l 647 43 q 548 -1 600 13 q 417 -14 496 -14 m 565 -169 q 520 -290 565 -247 q 356 -333 475 -333 q 301 -329 325 -333 q 257 -319 276 -325 l 257 -206 q 305 -215 276 -211 q 354 -219 333 -219 q 388 -210 374 -219 q 403 -178 403 -201 q 378 -133 403 -153 q 290 -104 353 -114 l 343 0 l 474 0 l 456 -42 q 508 -67 483 -50 q 549 -110 533 -85 q 565 -169 565 -135 z "},"è":{"ha":821,"x_min":63,"x_max":761,"o":"m 421 772 q 602 732 526 772 q 719 615 678 692 q 761 428 761 539 l 761 328 l 272 328 q 324 190 275 240 q 461 140 374 140 q 594 155 535 140 q 718 200 654 169 l 718 40 q 601 -1 663 13 q 451 -14 539 -14 q 250 28 338 -14 q 113 157 163 71 q 63 374 63 243 q 108 595 63 507 q 233 728 153 683 q 421 772 314 772 m 422 625 q 323 586 363 625 q 276 465 283 547 l 567 465 q 551 547 567 511 q 503 604 535 583 q 422 625 471 625 m 392 1064 q 441 995 413 1033 q 499 922 469 957 q 551 860 529 886 l 551 842 l 414 842 q 352 887 388 860 q 280 944 317 914 q 211 1003 243 975 q 160 1050 179 1031 l 160 1064 l 392 1064 z "},"é":{"ha":821,"x_min":63,"x_max":761,"o":"m 421 772 q 602 732 526 772 q 719 615 678 692 q 761 428 761 539 l 761 328 l 272 328 q 324 190 275 240 q 461 140 374 140 q 594 155 535 140 q 718 200 654 169 l 718 40 q 601 -1 663 13 q 451 -14 539 -14 q 250 28 338 -14 q 113 157 163 71 q 63 374 63 243 q 108 595 63 507 q 233 728 153 683 q 421 772 314 772 m 422 625 q 323 586 363 625 q 276 465 283 547 l 567 465 q 551 547 567 511 q 503 604 535 583 q 422 625 471 625 m 704 1050 q 653 1003 685 1031 q 584 944 621 975 q 512 887 547 914 q 450 842 476 860 l 313 842 l 313 860 q 365 922 335 886 q 424 995 394 957 q 472 1064 453 1033 l 704 1064 l 704 1050 z "},"ê":{"ha":821,"x_min":63,"x_max":761,"o":"m 421 772 q 602 732 526 772 q 719 615 678 692 q 761 428 761 539 l 761 328 l 272 328 q 324 190 275 240 q 461 140 374 140 q 594 155 535 140 q 718 200 654 169 l 718 40 q 601 -1 663 13 q 451 -14 539 -14 q 250 28 338 -14 q 113 157 163 71 q 63 374 63 243 q 108 595 63 507 q 233 728 153 683 q 421 772 314 772 m 422 625 q 323 586 363 625 q 276 465 283 547 l 567 465 q 551 547 567 511 q 503 604 535 583 q 422 625 471 625 m 532 1064 q 583 995 551 1033 q 647 921 614 957 q 706 860 681 885 l 706 842 l 568 842 q 489 894 532 864 q 410 961 446 924 q 332 894 374 924 q 254 842 290 865 l 117 842 l 117 860 q 176 922 143 886 q 240 995 208 957 q 290 1064 271 1033 l 532 1064 z "},"ë":{"ha":821,"x_min":63,"x_max":761,"o":"m 421 772 q 602 732 526 772 q 719 615 678 692 q 761 428 761 539 l 761 328 l 272 328 q 324 190 275 240 q 461 140 374 140 q 594 155 535 140 q 718 200 654 169 l 718 40 q 601 -1 663 13 q 451 -14 539 -14 q 250 28 338 -14 q 113 157 163 71 q 63 374 63 243 q 108 595 63 507 q 233 728 153 683 q 421 772 314 772 m 422 625 q 323 586 363 625 q 276 465 283 547 l 567 465 q 551 547 567 511 q 503 604 535 583 q 422 625 471 625 m 178 953 q 206 1023 178 1001 q 272 1044 233 1044 q 340 1023 311 1044 q 368 953 368 1001 q 340 885 368 907 q 272 863 311 863 q 206 885 233 863 q 178 953 178 908 m 451 953 q 479 1023 451 1001 q 547 1044 507 1044 q 615 1023 586 1044 q 643 953 643 1001 q 615 885 643 907 q 547 863 586 863 q 480 885 508 863 q 451 953 451 908 z "},"ì":{"ha":424,"x_min":-39,"x_max":353,"o":"m 315 0 l 108 0 l 108 758 l 315 758 l 315 0 m 193 1064 q 242 995 214 1033 q 301 922 271 957 q 353 860 331 886 l 353 842 l 215 842 q 153 887 189 860 q 81 944 118 914 q 13 1003 44 975 q -39 1050 -19 1031 l -39 1064 l 193 1064 z "},"í":{"ha":424,"x_min":108,"x_max":506,"o":"m 315 0 l 108 0 l 108 758 l 315 758 l 315 0 m 506 1050 q 454 1003 486 1031 q 385 944 422 975 q 313 887 349 914 q 251 842 278 860 l 114 842 l 114 860 q 166 922 136 886 q 225 995 196 957 q 274 1064 254 1033 l 506 1064 l 506 1050 z "},"î":{"ha":424,"x_min":-82,"x_max":507,"o":"m 315 0 l 108 0 l 108 758 l 315 758 l 315 0 m 333 1064 q 384 995 353 1033 q 449 921 415 957 q 507 860 482 885 l 507 842 l 369 842 q 290 894 333 864 q 211 961 247 924 q 133 894 175 924 q 56 842 92 865 l -82 842 l -82 860 q -23 922 -56 886 q 41 995 10 957 q 92 1064 72 1033 l 333 1064 z "},"ï":{"ha":424,"x_min":-21,"x_max":444,"o":"m 315 0 l 108 0 l 108 758 l 315 758 l 315 0 m -21 953 q 7 1023 -21 1001 q 74 1044 35 1044 q 141 1023 113 1044 q 169 953 169 1001 q 141 885 169 907 q 74 863 113 863 q 7 885 35 863 q -21 953 -21 908 m 253 953 q 281 1023 253 1001 q 349 1044 308 1044 q 416 1023 388 1044 q 444 953 444 1001 q 416 885 444 907 q 349 863 388 863 q 281 885 310 863 q 253 953 253 908 z "},"ð":{"ha":860,"x_min":63,"x_max":797,"o":"m 311 1063 q 403 1017 360 1040 q 486 967 447 993 l 639 1061 l 707 957 l 592 886 q 705 751 660 825 q 774 588 750 678 q 797 389 797 499 q 752 171 797 261 q 624 33 707 81 q 428 -14 542 -14 q 240 26 322 -14 q 110 144 157 67 q 63 332 63 222 q 104 518 63 442 q 219 635 146 594 q 389 675 293 675 q 472 667 436 675 q 533 645 507 660 q 575 608 560 631 l 581 611 q 526 712 558 667 q 450 799 494 757 l 294 703 l 226 808 l 346 881 q 297 912 322 896 q 243 943 271 928 l 311 1063 m 431 522 q 340 501 375 522 q 290 437 306 479 q 274 331 274 394 q 290 231 274 274 q 340 163 306 188 q 431 139 375 139 q 550 195 514 139 q 586 361 586 251 q 577 422 586 393 q 549 474 568 451 q 500 509 529 496 q 431 522 471 522 z "},"ñ":{"ha":913,"x_min":108,"x_max":808,"o":"m 539 772 q 735 706 661 772 q 808 494 808 640 l 808 0 l 601 0 l 601 443 q 572 566 601 525 q 479 607 543 607 q 350 542 385 607 q 315 357 315 478 l 315 0 l 108 0 l 108 758 l 267 758 l 294 661 l 306 661 q 367 724 331 700 q 447 760 403 749 q 539 772 492 772 m 176 840 q 197 934 181 894 q 238 999 213 974 q 294 1038 263 1025 q 361 1050 325 1050 q 416 1040 389 1050 q 469 1015 443 1029 q 519 990 494 1000 q 569 979 544 979 q 610 997 590 979 q 638 1051 629 1015 l 739 1051 q 678 893 731 944 q 554 842 625 842 q 500 852 526 842 q 447 877 474 863 q 396 902 421 892 q 346 913 371 913 q 306 894 325 913 q 278 840 286 876 l 176 840 z "},"ò":{"ha":860,"x_min":63,"x_max":797,"o":"m 797 381 q 772 213 797 286 q 698 88 746 139 q 582 12 650 38 q 428 -14 514 -14 q 281 12 349 -14 q 165 88 214 38 q 90 213 117 139 q 63 381 63 286 q 107 594 63 507 q 235 726 151 681 q 432 772 318 772 q 621 726 539 772 q 750 594 703 681 q 797 381 797 507 m 274 381 q 290 255 274 306 q 340 178 306 204 q 431 153 375 153 q 520 178 486 153 q 570 255 554 204 q 586 381 586 306 q 570 506 586 456 q 519 581 554 556 q 429 606 485 606 q 310 549 347 606 q 274 381 274 493 m 411 1064 q 460 995 432 1033 q 519 922 489 957 q 571 860 549 886 l 571 842 l 433 842 q 372 887 407 860 q 299 944 336 914 q 231 1003 263 975 q 179 1050 199 1031 l 179 1064 l 411 1064 z "},"ó":{"ha":860,"x_min":63,"x_max":797,"o":"m 797 381 q 772 213 797 286 q 698 88 746 139 q 582 12 650 38 q 428 -14 514 -14 q 281 12 349 -14 q 165 88 214 38 q 90 213 117 139 q 63 381 63 286 q 107 594 63 507 q 235 726 151 681 q 432 772 318 772 q 621 726 539 772 q 750 594 703 681 q 797 381 797 507 m 274 381 q 290 255 274 306 q 340 178 306 204 q 431 153 375 153 q 520 178 486 153 q 570 255 554 204 q 586 381 586 306 q 570 506 586 456 q 519 581 554 556 q 429 606 485 606 q 310 549 347 606 q 274 381 274 493 m 724 1050 q 672 1003 704 1031 q 603 944 640 975 q 531 887 567 914 q 469 842 496 860 l 332 842 l 332 860 q 384 922 354 886 q 443 995 414 957 q 492 1064 472 1033 l 724 1064 l 724 1050 z "},"ô":{"ha":860,"x_min":63,"x_max":797,"o":"m 797 381 q 772 213 797 286 q 698 88 746 139 q 582 12 650 38 q 428 -14 514 -14 q 281 12 349 -14 q 165 88 214 38 q 90 213 117 139 q 63 381 63 286 q 107 594 63 507 q 235 726 151 681 q 432 772 318 772 q 621 726 539 772 q 750 594 703 681 q 797 381 797 507 m 274 381 q 290 255 274 306 q 340 178 306 204 q 431 153 375 153 q 520 178 486 153 q 570 255 554 204 q 586 381 586 306 q 570 506 586 456 q 519 581 554 556 q 429 606 485 606 q 310 549 347 606 q 274 381 274 493 m 551 1064 q 602 995 571 1033 q 667 921 633 957 q 725 860 700 885 l 725 842 l 588 842 q 508 894 551 864 q 429 961 465 924 q 351 894 393 924 q 274 842 310 865 l 136 842 l 136 860 q 195 922 163 886 q 259 995 228 957 q 310 1064 290 1033 l 551 1064 z "},"õ":{"ha":860,"x_min":63,"x_max":797,"o":"m 797 381 q 772 213 797 286 q 698 88 746 139 q 582 12 650 38 q 428 -14 514 -14 q 281 12 349 -14 q 165 88 214 38 q 90 213 117 139 q 63 381 63 286 q 107 594 63 507 q 235 726 151 681 q 432 772 318 772 q 621 726 539 772 q 750 594 703 681 q 797 381 797 507 m 274 381 q 290 255 274 306 q 340 178 306 204 q 431 153 375 153 q 520 178 486 153 q 570 255 554 204 q 586 381 586 306 q 570 506 586 456 q 519 581 554 556 q 429 606 485 606 q 310 549 347 606 q 274 381 274 493 m 150 840 q 170 934 154 894 q 211 999 186 974 q 267 1038 236 1025 q 335 1050 299 1050 q 390 1040 363 1050 q 442 1015 417 1029 q 493 990 468 1000 q 543 979 518 979 q 583 997 564 979 q 611 1051 603 1015 l 713 1051 q 651 893 704 944 q 528 842 599 842 q 474 852 500 842 q 421 877 447 863 q 369 902 394 892 q 319 913 344 913 q 279 894 299 913 q 251 840 260 876 l 150 840 z "},"ö":{"ha":860,"x_min":63,"x_max":797,"o":"m 797 381 q 772 213 797 286 q 698 88 746 139 q 582 12 650 38 q 428 -14 514 -14 q 281 12 349 -14 q 165 88 214 38 q 90 213 117 139 q 63 381 63 286 q 107 594 63 507 q 235 726 151 681 q 432 772 318 772 q 621 726 539 772 q 750 594 703 681 q 797 381 797 507 m 274 381 q 290 255 274 306 q 340 178 306 204 q 431 153 375 153 q 520 178 486 153 q 570 255 554 204 q 586 381 586 306 q 570 506 586 456 q 519 581 554 556 q 429 606 485 606 q 310 549 347 606 q 274 381 274 493 m 197 953 q 225 1023 197 1001 q 292 1044 253 1044 q 359 1023 331 1044 q 388 953 388 1001 q 359 885 388 907 q 292 863 331 863 q 225 885 253 863 q 197 953 197 908 m 471 953 q 499 1023 471 1001 q 567 1044 526 1044 q 634 1023 606 1044 q 663 953 663 1001 q 634 885 663 907 q 567 863 606 863 q 499 885 528 863 q 471 953 471 908 z "},"÷":{"ha":794,"x_min":60,"x_max":733,"o":"m 60 415 l 60 564 l 733 564 l 733 415 l 60 415 m 396 150 q 329 174 357 150 q 301 253 301 199 q 329 333 301 310 q 396 356 357 356 q 462 333 433 356 q 490 253 490 310 q 462 174 490 199 q 396 150 433 150 m 396 624 q 329 648 357 624 q 301 726 301 672 q 329 806 301 783 q 396 829 357 829 q 462 806 433 829 q 490 726 490 783 q 462 648 490 672 q 396 624 433 624 z "},"ø":{"ha":860,"x_min":63,"x_max":797,"o":"m 797 381 q 752 166 797 254 q 624 32 707 78 q 428 -14 542 -14 q 345 -6 385 -14 q 269 17 306 3 l 224 -51 l 119 19 l 165 88 q 90 212 117 139 q 63 381 63 285 q 161 671 63 569 q 432 772 260 772 q 520 763 478 772 q 600 738 563 754 l 638 793 l 740 719 l 701 663 q 772 542 747 613 q 797 381 797 471 m 274 381 q 277 319 274 347 q 286 268 281 292 l 501 590 q 469 601 488 597 q 429 606 450 606 q 310 549 347 606 q 274 381 274 493 m 586 381 q 584 432 586 408 q 578 476 582 456 l 368 163 q 397 155 382 157 q 431 153 413 153 q 520 178 486 153 q 570 255 554 204 q 586 381 586 306 z "},"ù":{"ha":913,"x_min":104,"x_max":804,"o":"m 804 758 l 804 0 l 646 0 l 618 97 l 607 97 q 547 34 583 58 q 465 -2 510 10 q 374 -14 421 -14 q 232 15 293 -14 q 138 106 171 44 q 104 264 104 167 l 104 758 l 311 758 l 311 315 q 340 193 311 235 q 433 151 369 151 q 533 181 497 151 q 583 265 568 210 q 597 401 597 321 l 597 758 l 804 758 m 438 1064 q 487 995 458 1033 q 545 922 515 957 q 597 860 575 886 l 597 842 l 460 842 q 398 887 433 860 q 326 944 363 914 q 257 1003 289 975 q 206 1050 225 1031 l 206 1064 l 438 1064 z "},"ú":{"ha":913,"x_min":104,"x_max":804,"o":"m 804 758 l 804 0 l 646 0 l 618 97 l 607 97 q 547 34 583 58 q 465 -2 510 10 q 374 -14 421 -14 q 232 15 293 -14 q 138 106 171 44 q 104 264 104 167 l 104 758 l 311 758 l 311 315 q 340 193 311 235 q 433 151 369 151 q 533 181 497 151 q 583 265 568 210 q 597 401 597 321 l 597 758 l 804 758 m 750 1050 q 699 1003 731 1031 q 630 944 667 975 q 558 887 593 914 q 496 842 522 860 l 358 842 l 358 860 q 410 922 381 886 q 469 995 440 957 q 518 1064 499 1033 l 750 1064 l 750 1050 z "},"û":{"ha":913,"x_min":104,"x_max":804,"o":"m 804 758 l 804 0 l 646 0 l 618 97 l 607 97 q 547 34 583 58 q 465 -2 510 10 q 374 -14 421 -14 q 232 15 293 -14 q 138 106 171 44 q 104 264 104 167 l 104 758 l 311 758 l 311 315 q 340 193 311 235 q 433 151 369 151 q 533 181 497 151 q 583 265 568 210 q 597 401 597 321 l 597 758 l 804 758 m 578 1064 q 628 995 597 1033 q 693 921 660 957 q 751 860 726 885 l 751 842 l 614 842 q 535 894 578 864 q 456 961 492 924 q 378 894 419 924 q 300 842 336 865 l 163 842 l 163 860 q 222 922 189 886 q 285 995 254 957 q 336 1064 317 1033 l 578 1064 z "},"ü":{"ha":913,"x_min":104,"x_max":804,"o":"m 804 758 l 804 0 l 646 0 l 618 97 l 607 97 q 547 34 583 58 q 465 -2 510 10 q 374 -14 421 -14 q 232 15 293 -14 q 138 106 171 44 q 104 264 104 167 l 104 758 l 311 758 l 311 315 q 340 193 311 235 q 433 151 369 151 q 533 181 497 151 q 583 265 568 210 q 597 401 597 321 l 597 758 l 804 758 m 224 953 q 251 1023 224 1001 q 318 1044 279 1044 q 385 1023 357 1044 q 414 953 414 1001 q 385 885 414 907 q 318 863 357 863 q 251 885 279 863 q 224 953 224 908 m 497 953 q 525 1023 497 1001 q 593 1044 553 1044 q 660 1023 632 1044 q 689 953 689 1001 q 660 885 689 907 q 593 863 632 863 q 526 885 554 863 q 497 953 497 908 z "},"ý":{"ha":790,"x_min":0,"x_max":790,"o":"m 0 758 l 226 758 l 369 332 q 381 290 376 311 q 390 247 386 269 q 394 200 393 225 l 399 200 q 410 269 403 236 q 428 332 418 301 l 568 758 l 790 758 l 469 -97 q 394 -228 440 -175 q 286 -307 347 -281 q 153 -333 225 -333 q 92 -330 118 -333 q 47 -322 67 -326 l 47 -158 q 84 -164 63 -161 q 129 -167 106 -167 q 203 -149 172 -167 q 256 -99 235 -131 q 289 -32 276 -68 l 301 6 l 0 758 m 689 1050 q 638 1003 669 1031 q 569 944 606 975 q 497 887 532 914 q 435 842 461 860 l 297 842 l 297 860 q 349 922 319 886 q 408 995 379 957 q 457 1064 438 1033 l 689 1064 l 689 1050 z "},"þ":{"ha":879,"x_min":108,"x_max":817,"o":"m 817 381 q 781 163 817 251 q 681 31 744 75 q 531 -14 617 -14 q 435 -1 476 -14 q 365 33 394 11 q 315 79 336 54 l 306 79 q 310 46 308 65 q 314 8 313 26 q 315 -26 315 -11 l 315 -333 l 108 -333 l 108 1056 l 315 1056 l 315 790 q 312 719 315 757 q 306 660 308 681 l 315 660 q 365 717 335 692 q 435 757 394 742 q 531 772 476 772 q 738 673 658 772 q 817 381 817 574 m 606 383 q 572 551 606 494 q 464 607 538 607 q 351 557 383 607 q 315 404 318 507 l 315 382 q 348 213 315 272 q 467 154 381 154 q 544 181 514 154 q 590 258 575 207 q 606 383 606 310 z "},"ÿ":{"ha":790,"x_min":0,"x_max":790,"o":"m 0 758 l 226 758 l 369 332 q 381 290 376 311 q 390 247 386 269 q 394 200 393 225 l 399 200 q 410 269 403 236 q 428 332 418 301 l 568 758 l 790 758 l 469 -97 q 394 -228 440 -175 q 286 -307 347 -281 q 153 -333 225 -333 q 92 -330 118 -333 q 47 -322 67 -326 l 47 -158 q 84 -164 63 -161 q 129 -167 106 -167 q 203 -149 172 -167 q 256 -99 235 -131 q 289 -32 276 -68 l 301 6 l 0 758 m 163 953 q 190 1023 163 1001 q 257 1044 218 1044 q 324 1023 296 1044 q 353 953 353 1001 q 324 885 353 907 q 257 863 296 863 q 190 885 218 863 q 163 953 163 908 m 436 953 q 464 1023 436 1001 q 532 1044 492 1044 q 599 1023 571 1044 q 628 953 628 1001 q 599 885 628 907 q 532 863 571 863 q 465 885 493 863 q 436 953 436 908 z "},"Ā":{"ha":958,"x_min":0,"x_max":958,"o":"m 732 0 l 660 236 l 299 236 l 226 0 l 0 0 l 350 996 l 607 996 l 958 0 l 732 0 m 538 643 q 519 703 531 667 q 497 776 508 739 q 479 842 486 814 q 460 773 472 814 q 438 695 449 732 q 422 643 428 658 l 351 413 l 610 413 l 538 643 m 708 1218 l 708 1075 l 249 1075 l 249 1218 l 708 1218 z "},"ā":{"ha":839,"x_min":58,"x_max":735,"o":"m 419 774 q 653 708 572 774 q 735 506 735 642 l 735 0 l 590 0 l 550 103 l 544 103 q 478 36 513 63 q 401 -2 444 10 q 293 -14 357 -14 q 173 12 226 -14 q 89 91 119 38 q 58 226 58 144 q 143 405 58 347 q 397 468 228 463 l 529 472 l 529 506 q 498 593 529 565 q 411 621 467 621 q 303 605 356 621 q 197 565 250 589 l 129 706 q 265 756 190 738 q 419 774 339 774 m 449 349 q 310 313 349 346 q 271 225 271 279 q 299 158 271 178 q 371 138 326 138 q 483 177 438 138 q 529 289 529 217 l 529 351 l 449 349 m 649 985 l 649 842 l 189 842 l 189 985 l 649 985 z "},"Ă":{"ha":958,"x_min":0,"x_max":958,"o":"m 732 0 l 660 236 l 299 236 l 226 0 l 0 0 l 350 996 l 607 996 l 958 0 l 732 0 m 538 643 q 519 703 531 667 q 497 776 508 739 q 479 842 486 814 q 460 773 472 814 q 438 695 449 732 q 422 643 428 658 l 351 413 l 610 413 l 538 643 m 746 1304 q 706 1185 742 1238 q 613 1104 671 1133 q 476 1075 554 1075 q 288 1138 357 1075 q 213 1304 218 1200 l 328 1304 q 352 1247 332 1265 q 406 1224 372 1229 q 478 1219 439 1219 q 544 1226 511 1219 q 600 1250 576 1232 q 628 1304 624 1268 l 746 1304 z "},"ă":{"ha":839,"x_min":58,"x_max":735,"o":"m 419 774 q 653 708 572 774 q 735 506 735 642 l 735 0 l 590 0 l 550 103 l 544 103 q 478 36 513 63 q 401 -2 444 10 q 293 -14 357 -14 q 173 12 226 -14 q 89 91 119 38 q 58 226 58 144 q 143 405 58 347 q 397 468 228 463 l 529 472 l 529 506 q 498 593 529 565 q 411 621 467 621 q 303 605 356 621 q 197 565 250 589 l 129 706 q 265 756 190 738 q 419 774 339 774 m 449 349 q 310 313 349 346 q 271 225 271 279 q 299 158 271 178 q 371 138 326 138 q 483 177 438 138 q 529 289 529 217 l 529 351 l 449 349 m 686 1071 q 647 952 682 1004 q 553 871 611 900 q 417 842 494 842 q 228 904 297 842 q 153 1071 158 967 l 268 1071 q 292 1014 272 1032 q 346 991 313 996 q 418 986 379 986 q 484 992 451 986 q 540 1017 517 999 q 568 1071 564 1035 l 686 1071 z "},"Ą":{"ha":958,"x_min":0,"x_max":958,"o":"m 732 0 l 660 236 l 299 236 l 226 0 l 0 0 l 350 996 l 607 996 l 958 0 l 732 0 m 538 643 q 519 703 531 667 q 497 776 508 739 q 479 842 486 814 q 460 773 472 814 q 438 695 449 732 q 422 643 428 658 l 351 413 l 610 413 l 538 643 m 799 -154 q 814 -196 799 -182 q 853 -210 829 -210 q 896 -206 875 -210 q 931 -197 917 -201 l 931 -318 q 883 -328 908 -324 q 825 -333 858 -333 q 701 -290 747 -333 q 656 -178 656 -246 q 676 -100 656 -137 q 731 -31 697 -62 q 808 24 765 0 l 899 0 q 825 -81 851 -44 q 799 -154 799 -118 z "},"ą":{"ha":839,"x_min":58,"x_max":750,"o":"m 419 774 q 653 708 572 774 q 735 506 735 642 l 735 0 l 590 0 l 550 103 l 544 103 q 478 36 513 63 q 401 -2 444 10 q 293 -14 357 -14 q 173 12 226 -14 q 89 91 119 38 q 58 226 58 144 q 143 405 58 347 q 397 468 228 463 l 529 472 l 529 506 q 498 593 529 565 q 411 621 467 621 q 303 605 356 621 q 197 565 250 589 l 129 706 q 265 756 190 738 q 419 774 339 774 m 449 349 q 310 313 349 346 q 271 225 271 279 q 299 158 271 178 q 371 138 326 138 q 483 177 438 138 q 529 289 529 217 l 529 351 l 449 349 m 618 -154 q 633 -196 618 -182 q 672 -210 649 -210 q 715 -206 694 -210 q 750 -197 736 -201 l 750 -318 q 703 -328 728 -324 q 644 -333 678 -333 q 521 -290 567 -333 q 475 -178 475 -246 q 496 -100 475 -137 q 551 -31 517 -62 q 628 24 585 0 l 718 0 q 644 -81 671 -44 q 618 -154 618 -118 z "},"Ć":{"ha":885,"x_min":81,"x_max":836,"o":"m 546 831 q 440 807 486 831 q 361 740 393 783 q 313 633 329 696 q 297 493 297 571 q 323 313 297 388 q 404 200 349 239 q 546 161 460 161 q 667 175 607 161 q 799 214 728 189 l 799 38 q 669 -1 733 11 q 526 -14 606 -14 q 274 49 374 -14 q 128 227 175 113 q 81 494 81 342 q 111 701 81 607 q 201 863 142 794 q 347 968 260 931 q 546 1006 433 1006 q 694 987 619 1006 q 836 936 768 968 l 768 765 q 656 811 713 792 q 546 831 600 831 m 817 1283 q 765 1236 797 1264 q 697 1178 733 1208 q 624 1120 660 1147 q 563 1075 589 1093 l 425 1075 l 425 1093 q 477 1155 447 1119 q 536 1228 507 1190 q 585 1297 565 1267 l 817 1297 l 817 1283 z "},"ć":{"ha":714,"x_min":63,"x_max":692,"o":"m 417 -14 q 225 27 304 -14 q 104 154 146 68 q 63 375 63 240 q 110 601 63 514 q 241 731 157 689 q 435 772 325 772 q 570 757 513 772 q 671 721 628 742 l 610 561 q 519 593 561 581 q 435 606 476 606 q 344 580 381 606 q 291 503 308 554 q 274 376 274 453 q 292 252 274 301 q 347 178 311 203 q 435 154 383 154 q 550 172 500 154 q 647 219 600 189 l 647 43 q 548 -1 600 13 q 417 -14 496 -14 m 692 1050 q 640 1003 672 1031 q 572 944 608 975 q 499 887 535 914 q 438 842 464 860 l 300 842 l 300 860 q 352 922 322 886 q 411 995 382 957 q 460 1064 440 1033 l 692 1064 l 692 1050 z "},"Ĉ":{"ha":885,"x_min":81,"x_max":836,"o":"m 546 831 q 440 807 486 831 q 361 740 393 783 q 313 633 329 696 q 297 493 297 571 q 323 313 297 388 q 404 200 349 239 q 546 161 460 161 q 667 175 607 161 q 799 214 728 189 l 799 38 q 669 -1 733 11 q 526 -14 606 -14 q 274 49 374 -14 q 128 227 175 113 q 81 494 81 342 q 111 701 81 607 q 201 863 142 794 q 347 968 260 931 q 546 1006 433 1006 q 694 987 619 1006 q 836 936 768 968 l 768 765 q 656 811 713 792 q 546 831 600 831 m 644 1297 q 695 1228 664 1267 q 760 1154 726 1190 q 818 1093 793 1118 l 818 1075 l 681 1075 q 601 1127 644 1097 q 522 1194 558 1157 q 444 1128 486 1157 q 367 1075 403 1099 l 229 1075 l 229 1093 q 288 1155 256 1119 q 352 1228 321 1190 q 403 1297 383 1267 l 644 1297 z "},"ĉ":{"ha":714,"x_min":63,"x_max":693,"o":"m 417 -14 q 225 27 304 -14 q 104 154 146 68 q 63 375 63 240 q 110 601 63 514 q 241 731 157 689 q 435 772 325 772 q 570 757 513 772 q 671 721 628 742 l 610 561 q 519 593 561 581 q 435 606 476 606 q 344 580 381 606 q 291 503 308 554 q 274 376 274 453 q 292 252 274 301 q 347 178 311 203 q 435 154 383 154 q 550 172 500 154 q 647 219 600 189 l 647 43 q 548 -1 600 13 q 417 -14 496 -14 m 519 1064 q 570 995 539 1033 q 635 921 601 957 q 693 860 668 885 l 693 842 l 556 842 q 476 894 519 864 q 397 961 433 924 q 319 894 361 924 q 242 842 278 865 l 104 842 l 104 860 q 163 922 131 886 q 227 995 196 957 q 278 1064 258 1033 l 519 1064 z "},"Ċ":{"ha":885,"x_min":81,"x_max":836,"o":"m 546 831 q 440 807 486 831 q 361 740 393 783 q 313 633 329 696 q 297 493 297 571 q 323 313 297 388 q 404 200 349 239 q 546 161 460 161 q 667 175 607 161 q 799 214 728 189 l 799 38 q 669 -1 733 11 q 526 -14 606 -14 q 274 49 374 -14 q 128 227 175 113 q 81 494 81 342 q 111 701 81 607 q 201 863 142 794 q 347 968 260 931 q 546 1006 433 1006 q 694 987 619 1006 q 836 936 768 968 l 768 765 q 656 811 713 792 q 546 831 600 831 m 524 1289 q 603 1267 569 1289 q 636 1188 636 1246 q 603 1108 636 1131 q 524 1086 569 1086 q 444 1108 476 1086 q 411 1188 411 1131 q 444 1267 411 1246 q 524 1289 476 1289 z "},"ċ":{"ha":714,"x_min":63,"x_max":671,"o":"m 417 -14 q 225 27 304 -14 q 104 154 146 68 q 63 375 63 240 q 110 601 63 514 q 241 731 157 689 q 435 772 325 772 q 570 757 513 772 q 671 721 628 742 l 610 561 q 519 593 561 581 q 435 606 476 606 q 344 580 381 606 q 291 503 308 554 q 274 376 274 453 q 292 252 274 301 q 347 178 311 203 q 435 154 383 154 q 550 172 500 154 q 647 219 600 189 l 647 43 q 548 -1 600 13 q 417 -14 496 -14 m 399 1056 q 478 1034 444 1056 q 511 954 511 1013 q 478 875 511 897 q 399 853 444 853 q 319 875 351 853 q 286 954 286 897 q 319 1034 286 1013 q 399 1056 351 1056 z "},"Č":{"ha":885,"x_min":81,"x_max":836,"o":"m 546 831 q 440 807 486 831 q 361 740 393 783 q 313 633 329 696 q 297 493 297 571 q 323 313 297 388 q 404 200 349 239 q 546 161 460 161 q 667 175 607 161 q 799 214 728 189 l 799 38 q 669 -1 733 11 q 526 -14 606 -14 q 274 49 374 -14 q 128 227 175 113 q 81 494 81 342 q 111 701 81 607 q 201 863 142 794 q 347 968 260 931 q 546 1006 433 1006 q 694 987 619 1006 q 836 936 768 968 l 768 765 q 656 811 713 792 q 546 831 600 831 m 403 1075 q 352 1144 383 1107 q 288 1218 321 1182 q 229 1279 256 1254 l 229 1297 l 367 1297 q 444 1245 403 1275 q 522 1178 486 1215 q 601 1245 558 1215 q 681 1297 644 1275 l 818 1297 l 818 1279 q 760 1218 793 1254 q 695 1144 726 1182 q 644 1075 664 1107 l 403 1075 z "},"č":{"ha":714,"x_min":63,"x_max":693,"o":"m 417 -14 q 225 27 304 -14 q 104 154 146 68 q 63 375 63 240 q 110 601 63 514 q 241 731 157 689 q 435 772 325 772 q 570 757 513 772 q 671 721 628 742 l 610 561 q 519 593 561 581 q 435 606 476 606 q 344 580 381 606 q 291 503 308 554 q 274 376 274 453 q 292 252 274 301 q 347 178 311 203 q 435 154 383 154 q 550 172 500 154 q 647 219 600 189 l 647 43 q 548 -1 600 13 q 417 -14 496 -14 m 278 842 q 227 911 258 874 q 163 985 196 949 q 104 1046 131 1021 l 104 1064 l 242 1064 q 319 1012 278 1042 q 397 944 361 982 q 476 1012 433 982 q 556 1064 519 1042 l 693 1064 l 693 1046 q 635 985 668 1021 q 570 911 601 949 q 519 842 539 874 l 278 842 z "},"Ď":{"ha":1028,"x_min":125,"x_max":947,"o":"m 947 506 q 883 226 947 339 q 698 57 819 114 q 406 0 576 0 l 125 0 l 125 992 l 436 992 q 706 936 592 992 q 884 773 821 881 q 947 506 947 665 m 729 500 q 697 681 729 610 q 602 785 665 751 q 447 819 539 819 l 335 819 l 335 174 l 425 174 q 654 256 579 174 q 729 500 729 338 m 393 1075 q 342 1144 374 1107 q 278 1218 311 1182 q 219 1279 246 1254 l 219 1297 l 357 1297 q 435 1245 393 1275 q 513 1178 476 1215 q 592 1245 549 1215 q 671 1297 635 1275 l 808 1297 l 808 1279 q 750 1218 783 1254 q 685 1144 717 1182 q 635 1075 654 1107 l 393 1075 z "},"ď":{"ha":879,"x_min":63,"x_max":1051,"o":"m 1051 1042 q 1020 977 1038 1011 q 983 907 1003 943 q 939 833 963 871 l 818 833 l 818 851 q 830 898 824 872 q 842 951 836 924 q 852 1006 847 979 q 860 1056 857 1033 l 1051 1056 l 1051 1042 m 349 -14 q 142 85 222 -14 q 63 378 63 185 q 143 672 63 572 q 354 772 224 772 q 450 758 408 772 q 522 718 492 743 q 572 661 551 693 l 579 661 q 569 726 575 683 q 564 813 564 768 l 564 1056 l 771 1056 l 771 0 l 613 0 l 572 99 l 564 99 q 515 42 544 68 q 444 1 485 17 q 349 -14 404 -14 m 421 151 q 542 202 507 151 q 578 354 576 253 l 578 376 q 544 546 578 488 q 418 604 510 604 q 311 545 350 604 q 272 375 272 486 q 311 208 272 264 q 421 151 350 151 z "},"Đ":{"ha":1028,"x_min":32,"x_max":947,"o":"m 436 992 q 706 936 592 992 q 884 773 821 881 q 947 506 947 665 q 883 226 947 339 q 698 57 819 114 q 406 0 576 0 l 125 0 l 125 404 l 32 404 l 32 576 l 125 576 l 125 992 l 436 992 m 446 819 l 335 819 l 335 576 l 496 576 l 496 404 l 335 404 l 335 174 l 424 174 q 653 256 576 174 q 729 500 729 338 q 696 681 729 610 q 599 785 663 751 q 446 819 536 819 z "},"đ":{"ha":901,"x_min":63,"x_max":876,"o":"m 349 -14 q 142 81 222 -14 q 63 357 63 175 q 143 636 63 542 q 354 731 224 731 q 450 716 408 731 q 522 676 492 701 q 572 619 551 651 l 579 619 q 569 695 574 649 q 564 776 564 742 l 564 811 l 350 811 l 350 946 l 564 946 l 564 1056 l 771 1056 l 771 946 l 876 946 l 876 811 l 771 811 l 771 0 l 613 0 l 572 99 l 564 99 q 515 42 544 68 q 444 1 485 17 q 349 -14 404 -14 m 421 151 q 542 197 507 151 q 578 336 576 243 l 578 356 q 544 509 578 456 q 418 563 510 563 q 311 509 350 563 q 272 354 272 456 q 311 202 272 253 q 421 151 350 151 z "},"Ē":{"ha":778,"x_min":125,"x_max":696,"o":"m 696 0 l 125 0 l 125 992 l 696 992 l 696 819 l 335 819 l 335 601 l 671 601 l 671 429 l 335 429 l 335 174 l 696 174 l 696 0 m 647 1218 l 647 1075 l 188 1075 l 188 1218 l 647 1218 z "},"ē":{"ha":821,"x_min":63,"x_max":761,"o":"m 421 772 q 602 732 526 772 q 719 615 678 692 q 761 428 761 539 l 761 328 l 272 328 q 324 190 275 240 q 461 140 374 140 q 594 155 535 140 q 718 200 654 169 l 718 40 q 601 -1 663 13 q 451 -14 539 -14 q 250 28 338 -14 q 113 157 163 71 q 63 374 63 243 q 108 595 63 507 q 233 728 153 683 q 421 772 314 772 m 422 625 q 323 586 363 625 q 276 465 283 547 l 567 465 q 551 547 567 511 q 503 604 535 583 q 422 625 471 625 m 640 985 l 640 842 l 181 842 l 181 985 l 640 985 z "},"Ĕ":{"ha":778,"x_min":125,"x_max":696,"o":"m 696 0 l 125 0 l 125 992 l 696 992 l 696 819 l 335 819 l 335 601 l 671 601 l 671 429 l 335 429 l 335 174 l 696 174 l 696 0 m 685 1304 q 645 1185 681 1238 q 551 1104 610 1133 q 415 1075 493 1075 q 226 1138 296 1075 q 151 1304 157 1200 l 267 1304 q 291 1247 271 1265 q 344 1224 311 1229 q 417 1219 378 1219 q 483 1226 450 1219 q 539 1250 515 1232 q 567 1304 563 1268 l 685 1304 z "},"ĕ":{"ha":821,"x_min":63,"x_max":761,"o":"m 421 772 q 602 732 526 772 q 719 615 678 692 q 761 428 761 539 l 761 328 l 272 328 q 324 190 275 240 q 461 140 374 140 q 594 155 535 140 q 718 200 654 169 l 718 40 q 601 -1 663 13 q 451 -14 539 -14 q 250 28 338 -14 q 113 157 163 71 q 63 374 63 243 q 108 595 63 507 q 233 728 153 683 q 421 772 314 772 m 422 625 q 323 586 363 625 q 276 465 283 547 l 567 465 q 551 547 567 511 q 503 604 535 583 q 422 625 471 625 m 678 1071 q 638 952 674 1004 q 544 871 603 900 q 408 842 486 842 q 219 904 289 842 q 144 1071 150 967 l 260 1071 q 284 1014 264 1032 q 338 991 304 996 q 410 986 371 986 q 476 992 443 986 q 532 1017 508 999 q 560 1071 556 1035 l 678 1071 z "},"Ė":{"ha":778,"x_min":125,"x_max":696,"o":"m 696 0 l 125 0 l 125 992 l 696 992 l 696 819 l 335 819 l 335 601 l 671 601 l 671 429 l 335 429 l 335 174 l 696 174 l 696 0 m 418 1289 q 497 1267 464 1289 q 531 1188 531 1246 q 497 1108 531 1131 q 418 1086 464 1086 q 338 1108 371 1086 q 306 1188 306 1131 q 338 1267 306 1246 q 418 1289 371 1289 z "},"ė":{"ha":821,"x_min":63,"x_max":761,"o":"m 421 772 q 602 732 526 772 q 719 615 678 692 q 761 428 761 539 l 761 328 l 272 328 q 324 190 275 240 q 461 140 374 140 q 594 155 535 140 q 718 200 654 169 l 718 40 q 601 -1 663 13 q 451 -14 539 -14 q 250 28 338 -14 q 113 157 163 71 q 63 374 63 243 q 108 595 63 507 q 233 728 153 683 q 421 772 314 772 m 422 625 q 323 586 363 625 q 276 465 283 547 l 567 465 q 551 547 567 511 q 503 604 535 583 q 422 625 471 625 m 411 1056 q 490 1034 457 1056 q 524 954 524 1013 q 490 875 524 897 q 411 853 457 853 q 331 875 364 853 q 299 954 299 897 q 331 1034 299 1013 q 411 1056 364 1056 z "},"Ę":{"ha":778,"x_min":125,"x_max":696,"o":"m 696 0 l 125 0 l 125 992 l 696 992 l 696 819 l 335 819 l 335 601 l 671 601 l 671 429 l 335 429 l 335 174 l 696 174 l 696 0 m 564 -154 q 579 -196 564 -182 q 618 -210 594 -210 q 661 -206 640 -210 q 696 -197 682 -201 l 696 -318 q 649 -328 674 -324 q 590 -333 624 -333 q 467 -290 513 -333 q 421 -178 421 -246 q 442 -100 421 -137 q 497 -31 463 -62 q 574 24 531 0 l 664 0 q 590 -81 617 -44 q 564 -154 564 -118 z "},"ę":{"ha":821,"x_min":63,"x_max":761,"o":"m 574 -154 q 589 -196 574 -182 q 628 -210 604 -210 q 671 -206 650 -210 q 706 -197 692 -201 l 706 -318 q 658 -328 683 -324 q 600 -333 633 -333 q 476 -290 522 -333 q 431 -178 431 -246 q 451 -100 431 -137 q 507 -31 472 -62 q 583 24 542 0 l 718 40 q 631 -43 663 -8 q 587 -104 600 -78 q 574 -154 574 -131 m 421 772 q 602 732 526 772 q 719 615 678 692 q 761 428 761 539 l 761 328 l 272 328 q 324 190 275 240 q 461 140 374 140 q 594 155 535 140 q 718 200 654 169 l 718 40 q 601 -1 663 13 q 451 -14 539 -14 q 250 28 338 -14 q 113 157 163 71 q 63 374 63 243 q 108 595 63 507 q 233 728 153 683 q 421 772 314 772 m 422 625 q 323 586 363 625 q 276 465 283 547 l 567 465 q 551 547 567 511 q 503 604 535 583 q 422 625 471 625 z "},"Ě":{"ha":778,"x_min":124,"x_max":713,"o":"m 696 0 l 125 0 l 125 992 l 696 992 l 696 819 l 335 819 l 335 601 l 671 601 l 671 429 l 335 429 l 335 174 l 696 174 l 696 0 m 297 1075 q 247 1144 278 1107 q 183 1218 215 1182 q 124 1279 150 1254 l 124 1297 l 261 1297 q 339 1245 297 1275 q 417 1178 381 1215 q 496 1245 453 1215 q 575 1297 539 1275 l 713 1297 l 713 1279 q 654 1218 688 1254 q 590 1144 621 1182 q 539 1075 558 1107 l 297 1075 z "},"ě":{"ha":821,"x_min":63,"x_max":761,"o":"m 421 772 q 602 732 526 772 q 719 615 678 692 q 761 428 761 539 l 761 328 l 272 328 q 324 190 275 240 q 461 140 374 140 q 594 155 535 140 q 718 200 654 169 l 718 40 q 601 -1 663 13 q 451 -14 539 -14 q 250 28 338 -14 q 113 157 163 71 q 63 374 63 243 q 108 595 63 507 q 233 728 153 683 q 421 772 314 772 m 422 625 q 323 586 363 625 q 276 465 283 547 l 567 465 q 551 547 567 511 q 503 604 535 583 q 422 625 471 625 m 290 842 q 240 911 271 874 q 176 985 208 949 q 117 1046 143 1021 l 117 1064 l 254 1064 q 332 1012 290 1042 q 410 944 374 982 q 489 1012 446 982 q 568 1064 532 1042 l 706 1064 l 706 1046 q 647 985 681 1021 q 583 911 614 949 q 532 842 551 874 l 290 842 z "},"Ĝ":{"ha":1006,"x_min":81,"x_max":894,"o":"m 501 557 l 894 557 l 894 43 q 733 1 817 17 q 542 -14 649 -14 q 291 44 394 -14 q 134 217 188 103 q 81 497 81 331 q 141 767 81 653 q 317 943 201 881 q 599 1006 432 1006 q 754 989 678 1006 q 893 944 831 972 l 824 776 q 719 815 778 800 q 597 831 661 831 q 438 789 506 831 q 334 672 371 747 q 297 493 297 596 q 324 321 297 396 q 407 203 350 246 q 556 161 464 161 q 631 165 600 161 q 689 175 663 169 l 689 382 l 501 382 l 501 557 m 676 1297 q 727 1228 696 1267 q 792 1154 758 1190 q 850 1093 825 1118 l 850 1075 l 713 1075 q 633 1127 676 1097 q 554 1194 590 1157 q 476 1128 518 1157 q 399 1075 435 1099 l 261 1075 l 261 1093 q 320 1155 288 1119 q 384 1228 353 1190 q 435 1297 415 1267 l 676 1297 z "},"ĝ":{"ha":879,"x_min":63,"x_max":771,"o":"m 354 772 q 479 744 424 772 q 574 661 535 717 l 579 661 l 596 758 l 771 758 l 771 -1 q 728 -183 771 -110 q 601 -295 686 -257 q 392 -333 517 -333 q 242 -324 311 -333 q 108 -289 174 -314 l 108 -124 q 252 -167 178 -153 q 404 -182 326 -182 q 524 -139 485 -182 q 564 -10 564 -96 l 564 6 q 566 54 564 29 q 569 99 568 79 l 564 99 q 471 13 525 39 q 349 -14 417 -14 q 138 90 214 -14 q 63 378 63 193 q 140 668 63 564 q 354 772 218 772 m 419 604 q 338 578 371 604 q 290 502 306 553 q 274 375 274 451 q 310 205 274 261 q 422 149 346 149 q 492 159 463 149 q 540 194 521 169 q 568 257 558 218 q 578 351 578 296 l 578 376 q 561 508 578 458 q 510 581 544 558 q 419 604 475 604 m 557 1064 q 608 995 576 1033 q 672 921 639 957 q 731 860 706 885 l 731 842 l 593 842 q 514 894 557 864 q 435 961 471 924 q 357 894 399 924 q 279 842 315 865 l 142 842 l 142 860 q 201 922 168 886 q 265 995 233 957 q 315 1064 296 1033 l 557 1064 z "},"Ğ":{"ha":1006,"x_min":81,"x_max":894,"o":"m 501 557 l 894 557 l 894 43 q 733 1 817 17 q 542 -14 649 -14 q 291 44 394 -14 q 134 217 188 103 q 81 497 81 331 q 141 767 81 653 q 317 943 201 881 q 599 1006 432 1006 q 754 989 678 1006 q 893 944 831 972 l 824 776 q 719 815 778 800 q 597 831 661 831 q 438 789 506 831 q 334 672 371 747 q 297 493 297 596 q 324 321 297 396 q 407 203 350 246 q 556 161 464 161 q 631 165 600 161 q 689 175 663 169 l 689 382 l 501 382 l 501 557 m 822 1304 q 783 1185 818 1238 q 689 1104 747 1133 q 553 1075 631 1075 q 364 1138 433 1075 q 289 1304 294 1200 l 404 1304 q 428 1247 408 1265 q 482 1224 449 1229 q 554 1219 515 1219 q 620 1226 588 1219 q 676 1250 653 1232 q 704 1304 700 1268 l 822 1304 z "},"ğ":{"ha":879,"x_min":63,"x_max":771,"o":"m 354 772 q 479 744 424 772 q 574 661 535 717 l 579 661 l 596 758 l 771 758 l 771 -1 q 728 -183 771 -110 q 601 -295 686 -257 q 392 -333 517 -333 q 242 -324 311 -333 q 108 -289 174 -314 l 108 -124 q 252 -167 178 -153 q 404 -182 326 -182 q 524 -139 485 -182 q 564 -10 564 -96 l 564 6 q 566 54 564 29 q 569 99 568 79 l 564 99 q 471 13 525 39 q 349 -14 417 -14 q 138 90 214 -14 q 63 378 63 193 q 140 668 63 564 q 354 772 218 772 m 419 604 q 338 578 371 604 q 290 502 306 553 q 274 375 274 451 q 310 205 274 261 q 422 149 346 149 q 492 159 463 149 q 540 194 521 169 q 568 257 558 218 q 578 351 578 296 l 578 376 q 561 508 578 458 q 510 581 544 558 q 419 604 475 604 m 703 1071 q 663 952 699 1004 q 569 871 628 900 q 433 842 511 842 q 244 904 314 842 q 169 1071 175 967 l 285 1071 q 309 1014 289 1032 q 363 991 329 996 q 435 986 396 986 q 501 992 468 986 q 557 1017 533 999 q 585 1071 581 1035 l 703 1071 z "},"Ġ":{"ha":1006,"x_min":81,"x_max":894,"o":"m 501 557 l 894 557 l 894 43 q 733 1 817 17 q 542 -14 649 -14 q 291 44 394 -14 q 134 217 188 103 q 81 497 81 331 q 141 767 81 653 q 317 943 201 881 q 599 1006 432 1006 q 754 989 678 1006 q 893 944 831 972 l 824 776 q 719 815 778 800 q 597 831 661 831 q 438 789 506 831 q 334 672 371 747 q 297 493 297 596 q 324 321 297 396 q 407 203 350 246 q 556 161 464 161 q 631 165 600 161 q 689 175 663 169 l 689 382 l 501 382 l 501 557 m 556 1289 q 635 1267 601 1289 q 668 1188 668 1246 q 635 1108 668 1131 q 556 1086 601 1086 q 476 1108 508 1086 q 443 1188 443 1131 q 476 1267 443 1246 q 556 1289 508 1289 z "},"ġ":{"ha":879,"x_min":63,"x_max":771,"o":"m 354 772 q 479 744 424 772 q 574 661 535 717 l 579 661 l 596 758 l 771 758 l 771 -1 q 728 -183 771 -110 q 601 -295 686 -257 q 392 -333 517 -333 q 242 -324 311 -333 q 108 -289 174 -314 l 108 -124 q 252 -167 178 -153 q 404 -182 326 -182 q 524 -139 485 -182 q 564 -10 564 -96 l 564 6 q 566 54 564 29 q 569 99 568 79 l 564 99 q 471 13 525 39 q 349 -14 417 -14 q 138 90 214 -14 q 63 378 63 193 q 140 668 63 564 q 354 772 218 772 m 419 604 q 338 578 371 604 q 290 502 306 553 q 274 375 274 451 q 310 205 274 261 q 422 149 346 149 q 492 159 463 149 q 540 194 521 169 q 568 257 558 218 q 578 351 578 296 l 578 376 q 561 508 578 458 q 510 581 544 558 q 419 604 475 604 m 436 1056 q 515 1034 482 1056 q 549 954 549 1013 q 515 875 549 897 q 436 853 482 853 q 356 875 389 853 q 324 954 324 897 q 356 1034 324 1013 q 436 1056 389 1056 z "},"Ģ":{"ha":1006,"x_min":81,"x_max":894,"o":"m 501 557 l 894 557 l 894 43 q 733 1 817 17 q 542 -14 649 -14 q 291 44 394 -14 q 134 217 188 103 q 81 497 81 331 q 141 767 81 653 q 317 943 201 881 q 599 1006 432 1006 q 754 989 678 1006 q 893 944 831 972 l 824 776 q 719 815 778 800 q 597 831 661 831 q 438 789 506 831 q 334 672 371 747 q 297 493 297 596 q 324 321 297 396 q 407 203 350 246 q 556 161 464 161 q 631 165 600 161 q 689 175 663 169 l 689 382 l 501 382 l 501 557 m 658 -99 q 627 -163 644 -129 q 590 -233 610 -197 q 546 -307 569 -269 l 425 -307 l 425 -289 q 442 -225 433 -261 q 457 -151 450 -189 q 467 -85 464 -114 l 658 -85 l 658 -99 z "},"ģ":{"ha":879,"x_min":63,"x_max":771,"o":"m 544 1046 q 529 983 538 1019 q 514 909 521 946 q 503 842 507 872 l 311 842 l 311 856 q 342 920 325 886 q 380 991 360 954 q 424 1064 400 1028 l 544 1064 l 544 1046 m 354 772 q 479 744 424 772 q 574 661 535 717 l 579 661 l 596 758 l 771 758 l 771 -1 q 728 -183 771 -110 q 601 -295 686 -257 q 392 -333 517 -333 q 242 -324 311 -333 q 108 -289 174 -314 l 108 -124 q 252 -167 178 -153 q 404 -182 326 -182 q 524 -139 485 -182 q 564 -10 564 -96 l 564 6 q 566 54 564 29 q 569 99 568 79 l 564 99 q 471 13 525 39 q 349 -14 417 -14 q 138 90 214 -14 q 63 378 63 193 q 140 668 63 564 q 354 772 218 772 m 419 604 q 338 578 371 604 q 290 502 306 553 q 274 375 274 451 q 310 205 274 261 q 422 149 346 149 q 492 159 463 149 q 540 194 521 169 q 568 257 558 218 q 578 351 578 296 l 578 376 q 561 508 578 458 q 510 581 544 558 q 419 604 475 604 z "},"Ĥ":{"ha":1063,"x_min":125,"x_max":938,"o":"m 938 0 l 728 0 l 728 428 l 335 428 l 335 0 l 125 0 l 125 992 l 335 992 l 335 603 l 728 603 l 728 992 l 938 992 l 938 0 m 653 1297 q 703 1228 672 1267 q 768 1154 735 1190 q 826 1093 801 1118 l 826 1075 l 689 1075 q 610 1127 653 1097 q 531 1194 567 1157 q 453 1128 494 1157 q 375 1075 411 1099 l 238 1075 l 238 1093 q 297 1155 264 1119 q 360 1228 329 1190 q 411 1297 392 1267 l 653 1297 z "},"ĥ":{"ha":913,"x_min":-79,"x_max":808,"o":"m 315 840 q 312 733 315 785 q 306 661 308 682 l 317 661 q 375 724 342 700 q 449 760 408 749 q 536 772 490 772 q 679 743 618 772 q 774 653 740 714 q 808 494 808 592 l 808 0 l 601 0 l 601 443 q 572 566 601 525 q 479 607 542 607 q 381 578 417 607 q 331 493 346 549 q 315 357 315 438 l 315 0 l 108 0 l 108 1056 l 315 1056 l 315 840 m 336 1361 q 387 1292 356 1331 q 451 1218 418 1254 q 510 1157 485 1182 l 510 1139 l 372 1139 q 293 1191 336 1161 q 214 1258 250 1221 q 136 1192 178 1221 q 58 1139 94 1163 l -79 1139 l -79 1157 q -20 1219 -53 1183 q 44 1292 13 1254 q 94 1361 75 1331 l 336 1361 z "},"Ħ":{"ha":1063,"x_min":0,"x_max":1063,"o":"m 125 0 l 125 725 l 0 725 l 0 860 l 125 860 l 125 992 l 335 992 l 335 860 l 728 860 l 728 992 l 938 992 l 938 860 l 1063 860 l 1063 725 l 938 725 l 938 0 l 728 0 l 728 428 l 335 428 l 335 0 l 125 0 m 335 603 l 728 603 l 728 725 l 335 725 l 335 603 z "},"ħ":{"ha":913,"x_min":3,"x_max":808,"o":"m 315 1056 l 315 946 l 529 946 l 529 811 l 315 811 l 315 799 q 312 692 315 743 q 306 619 308 640 l 318 619 q 376 683 343 658 q 449 719 408 707 q 538 731 490 731 q 681 701 619 731 q 775 611 742 672 q 808 453 808 550 l 808 0 l 601 0 l 601 401 q 572 524 601 483 q 479 565 542 565 q 381 536 417 565 q 331 451 346 507 q 315 315 315 396 l 315 0 l 108 0 l 108 811 l 3 811 l 3 946 l 108 946 l 108 1056 l 315 1056 z "},"Ĩ":{"ha":540,"x_min":-10,"x_max":553,"o":"m 496 0 l 44 0 l 44 119 l 165 175 l 165 817 l 44 872 l 44 992 l 496 992 l 496 872 l 375 817 l 375 175 l 496 119 l 496 0 m -10 1074 q 10 1167 -6 1128 q 51 1233 26 1207 q 108 1271 76 1258 q 175 1283 139 1283 q 230 1273 203 1283 q 283 1248 257 1263 q 333 1223 308 1233 q 383 1213 358 1213 q 424 1231 404 1213 q 451 1285 443 1249 l 553 1285 q 492 1126 544 1178 q 368 1075 439 1075 q 314 1085 340 1075 q 261 1110 288 1096 q 210 1135 235 1125 q 160 1146 185 1146 q 119 1128 139 1146 q 92 1074 100 1110 l -10 1074 z "},"ĩ":{"ha":424,"x_min":-68,"x_max":494,"o":"m 315 0 l 108 0 l 108 758 l 315 758 l 315 0 m -68 840 q -48 934 -64 894 q -7 999 -32 974 q 49 1038 18 1025 q 117 1050 81 1050 q 172 1040 144 1050 q 224 1015 199 1029 q 275 990 250 1000 q 325 979 300 979 q 365 997 346 979 q 393 1051 385 1015 l 494 1051 q 433 893 486 944 q 310 842 381 842 q 256 852 282 842 q 203 877 229 863 q 151 902 176 892 q 101 913 126 913 q 61 894 81 913 q 33 840 42 876 l -68 840 z "},"Ī":{"ha":540,"x_min":40,"x_max":500,"o":"m 496 0 l 44 0 l 44 119 l 165 175 l 165 817 l 44 872 l 44 992 l 496 992 l 496 872 l 375 817 l 375 175 l 496 119 l 496 0 m 500 1218 l 500 1075 l 40 1075 l 40 1218 l 500 1218 z "},"ī":{"ha":424,"x_min":-18,"x_max":442,"o":"m 315 0 l 108 0 l 108 758 l 315 758 l 315 0 m 442 985 l 442 842 l -18 842 l -18 985 l 442 985 z "},"Ĭ":{"ha":540,"x_min":4,"x_max":538,"o":"m 496 0 l 44 0 l 44 119 l 165 175 l 165 817 l 44 872 l 44 992 l 496 992 l 496 872 l 375 817 l 375 175 l 496 119 l 496 0 m 538 1304 q 498 1185 533 1238 q 404 1104 463 1133 q 268 1075 346 1075 q 79 1138 149 1075 q 4 1304 10 1200 l 119 1304 q 144 1247 124 1265 q 197 1224 164 1229 q 269 1219 231 1219 q 335 1226 303 1219 q 392 1250 368 1232 q 419 1304 415 1268 l 538 1304 z "},"ĭ":{"ha":424,"x_min":-54,"x_max":479,"o":"m 315 0 l 108 0 l 108 758 l 315 758 l 315 0 m 479 1071 q 440 952 475 1004 q 346 871 404 900 q 210 842 288 842 q 21 904 90 842 q -54 1071 -49 967 l 61 1071 q 85 1014 65 1032 q 139 991 106 996 q 211 986 172 986 q 277 992 244 986 q 333 1017 310 999 q 361 1071 357 1035 l 479 1071 z "},"Į":{"ha":540,"x_min":44,"x_max":496,"o":"m 496 0 l 44 0 l 44 119 l 165 175 l 165 817 l 44 872 l 44 992 l 496 992 l 496 872 l 375 817 l 375 175 l 496 119 l 496 0 m 356 -154 q 371 -196 356 -182 q 410 -210 386 -210 q 453 -206 432 -210 q 488 -197 474 -201 l 488 -318 q 440 -328 465 -324 q 382 -333 415 -333 q 258 -290 304 -333 q 213 -178 213 -246 q 233 -100 213 -137 q 288 -31 254 -62 q 365 24 322 0 l 456 0 q 382 -81 408 -44 q 356 -154 356 -118 z "},"į":{"ha":424,"x_min":63,"x_max":338,"o":"m 315 758 l 315 0 l 108 0 l 108 758 l 315 758 m 213 1056 q 292 1034 258 1056 q 325 954 325 1013 q 292 875 325 897 q 213 853 258 853 q 133 875 165 853 q 100 954 100 897 q 133 1034 100 1013 q 213 1056 165 1056 m 206 -154 q 221 -196 206 -182 q 260 -210 236 -210 q 303 -206 282 -210 q 338 -197 324 -201 l 338 -318 q 290 -328 315 -324 q 232 -333 265 -333 q 108 -290 154 -333 q 63 -178 63 -246 q 83 -100 63 -137 q 138 -31 104 -62 q 215 24 172 0 l 306 0 q 232 -81 258 -44 q 206 -154 206 -118 z "},"İ":{"ha":540,"x_min":44,"x_max":496,"o":"m 496 0 l 44 0 l 44 119 l 165 175 l 165 817 l 44 872 l 44 992 l 496 992 l 496 872 l 375 817 l 375 175 l 496 119 l 496 0 m 271 1289 q 350 1267 317 1289 q 383 1188 383 1246 q 350 1108 383 1131 q 271 1086 317 1086 q 191 1108 224 1086 q 158 1188 158 1131 q 191 1267 158 1246 q 271 1289 224 1289 z "},"Ĳ":{"ha":1000,"x_min":44,"x_max":875,"o":"m 496 0 l 44 0 l 44 119 l 165 175 l 165 817 l 44 872 l 44 992 l 496 992 l 496 872 l 375 817 l 375 175 l 496 119 l 496 0 m 561 -292 q 490 -287 521 -292 q 438 -276 460 -282 l 438 -101 q 484 -111 460 -107 q 536 -115 508 -115 q 602 -101 572 -115 q 649 -49 632 -87 q 665 63 665 -10 l 665 992 l 875 992 l 875 64 q 835 -142 875 -64 q 725 -256 796 -221 q 561 -292 654 -292 z "},"ĳ":{"ha":847,"x_min":100,"x_max":749,"o":"m 315 758 l 315 0 l 108 0 l 108 758 l 315 758 m 213 1056 q 292 1034 258 1056 q 325 954 325 1013 q 292 875 325 897 q 213 853 258 853 q 133 875 165 853 q 100 954 100 897 q 133 1034 100 1013 q 213 1056 165 1056 m 471 -333 q 398 -328 436 -333 q 335 -317 360 -324 l 335 -154 q 382 -163 360 -160 q 432 -167 404 -167 q 503 -143 474 -167 q 532 -51 532 -119 l 532 758 l 739 758 l 739 -82 q 713 -208 739 -151 q 627 -299 686 -265 q 471 -333 568 -333 m 524 954 q 556 1034 524 1013 q 636 1056 589 1056 q 715 1034 682 1056 q 749 954 749 1013 q 715 875 749 897 q 636 853 682 853 q 556 875 589 853 q 524 954 524 897 z "},"Ĵ":{"ha":460,"x_min":-103,"x_max":525,"o":"m 21 -292 q -50 -287 -19 -292 q -103 -276 -81 -282 l -103 -101 q -56 -111 -81 -107 q -4 -115 -32 -115 q 62 -101 32 -115 q 108 -49 92 -87 q 125 63 125 -10 l 125 992 l 335 992 l 335 64 q 295 -142 335 -64 q 185 -256 256 -221 q 21 -292 114 -292 m 351 1297 q 402 1228 371 1267 q 467 1154 433 1190 q 525 1093 500 1118 l 525 1075 l 388 1075 q 308 1127 351 1097 q 229 1194 265 1157 q 151 1128 193 1157 q 74 1075 110 1099 l -64 1075 l -64 1093 q -5 1155 -37 1119 q 59 1228 28 1190 q 110 1297 90 1267 l 351 1297 z "},"ĵ":{"ha":424,"x_min":-89,"x_max":507,"o":"m 47 -333 q -26 -328 13 -333 q -89 -317 -64 -324 l -89 -154 q -42 -163 -64 -160 q 8 -167 -19 -167 q 79 -143 50 -167 q 108 -51 108 -119 l 108 758 l 315 758 l 315 -82 q 289 -208 315 -151 q 203 -299 263 -265 q 47 -333 144 -333 m 333 1064 q 384 995 353 1033 q 449 921 415 957 q 507 860 482 885 l 507 842 l 369 842 q 290 894 333 864 q 211 961 247 924 q 133 894 175 924 q 56 842 92 865 l -82 842 l -82 860 q -23 922 -56 886 q 41 995 10 957 q 92 1064 72 1033 l 333 1064 z "},"Ķ":{"ha":922,"x_min":125,"x_max":922,"o":"m 922 0 l 683 0 l 424 418 l 335 354 l 335 0 l 125 0 l 125 992 l 335 992 l 335 538 q 376 596 356 567 q 418 654 397 625 l 686 992 l 919 992 l 574 553 l 922 0 m 600 -99 q 569 -163 586 -129 q 531 -233 551 -197 q 488 -307 511 -269 l 367 -307 l 367 -289 q 383 -225 375 -261 q 399 -151 392 -189 q 408 -85 406 -114 l 600 -85 l 600 -99 z "},"ķ":{"ha":861,"x_min":108,"x_max":861,"o":"m 315 583 q 312 498 315 540 q 304 413 308 456 l 307 413 q 335 451 321 432 q 365 490 350 471 q 397 528 381 510 l 610 758 l 843 758 l 542 429 l 861 0 l 622 0 l 404 307 l 315 236 l 315 0 l 108 0 l 108 1056 l 315 1056 l 315 583 m 547 -99 q 516 -163 533 -129 q 478 -233 499 -197 q 435 -307 458 -269 l 314 -307 l 314 -289 q 331 -225 322 -261 q 346 -151 339 -189 q 356 -85 353 -114 l 547 -85 l 547 -99 z "},"ĸ":{"ha":861,"x_min":108,"x_max":861,"o":"m 843 758 l 544 411 l 861 0 l 625 0 l 413 289 l 315 228 l 315 0 l 108 0 l 108 758 l 315 758 l 315 560 q 314 476 314 518 q 311 394 314 435 l 314 394 q 361 452 338 424 q 410 510 385 481 l 622 758 l 843 758 z "},"Ĺ":{"ha":785,"x_min":125,"x_max":738,"o":"m 125 0 l 125 992 l 335 992 l 335 174 l 738 174 l 738 0 l 125 0 m 521 1283 q 469 1236 501 1264 q 401 1178 438 1208 q 328 1120 364 1147 q 267 1075 293 1093 l 129 1075 l 129 1093 q 181 1155 151 1119 q 240 1228 211 1190 q 289 1297 269 1267 l 521 1297 l 521 1283 z "},"ĺ":{"ha":424,"x_min":108,"x_max":506,"o":"m 315 0 l 108 0 l 108 1056 l 315 1056 l 315 0 m 506 1347 q 454 1300 486 1328 q 385 1242 422 1272 q 313 1184 349 1211 q 251 1139 278 1157 l 114 1139 l 114 1157 q 166 1219 136 1183 q 225 1292 196 1254 q 274 1361 254 1331 l 506 1361 l 506 1347 z "},"Ļ":{"ha":785,"x_min":125,"x_max":738,"o":"m 125 0 l 125 992 l 335 992 l 335 174 l 738 174 l 738 0 l 125 0 m 544 -99 q 513 -163 531 -129 q 476 -233 496 -197 q 432 -307 456 -269 l 311 -307 l 311 -289 q 328 -225 319 -261 q 343 -151 336 -189 q 353 -85 350 -114 l 544 -85 l 544 -99 z "},"ļ":{"ha":424,"x_min":96,"x_max":329,"o":"m 315 0 l 108 0 l 108 1056 l 315 1056 l 315 0 m 329 -99 q 298 -163 315 -129 q 260 -233 281 -197 q 217 -307 240 -269 l 96 -307 l 96 -289 q 113 -225 104 -261 q 128 -151 121 -189 q 138 -85 135 -114 l 329 -85 l 329 -99 z "},"Ľ":{"ha":785,"x_min":125,"x_max":776,"o":"m 776 978 q 745 913 763 947 q 708 843 728 879 q 664 769 688 807 l 543 769 l 543 788 q 555 834 549 808 q 567 888 561 860 q 577 942 572 915 q 585 992 582 969 l 776 992 l 776 978 m 125 0 l 125 992 l 335 992 l 335 174 l 738 174 l 738 0 l 125 0 z "},"ľ":{"ha":424,"x_min":108,"x_max":586,"o":"m 586 1042 q 555 977 572 1011 q 517 907 538 943 q 474 833 497 871 l 353 833 l 353 851 q 365 898 358 872 q 376 951 371 924 q 387 1006 382 979 q 394 1056 392 1033 l 586 1056 l 586 1042 m 315 0 l 108 0 l 108 1056 l 315 1056 l 315 0 z "},"Ŀ":{"ha":785,"x_min":125,"x_max":738,"o":"m 125 0 l 125 992 l 335 992 l 335 174 l 738 174 l 738 0 l 125 0 m 610 646 q 689 624 656 646 q 722 544 722 603 q 689 465 722 488 q 610 443 656 443 q 530 465 563 443 q 497 544 497 488 q 530 624 497 603 q 610 646 563 646 z "},"ŀ":{"ha":503,"x_min":108,"x_max":575,"o":"m 315 0 l 108 0 l 108 1056 l 315 1056 l 315 0 m 463 626 q 542 605 508 626 q 575 525 575 583 q 542 446 575 468 q 463 424 508 424 q 383 446 415 424 q 350 525 350 468 q 383 605 350 583 q 463 626 415 626 z "},"Ł":{"ha":785,"x_min":1,"x_max":738,"o":"m 125 0 l 125 333 l 78 306 l 1 439 l 125 514 l 125 992 l 335 992 l 335 642 l 432 701 l 511 568 l 335 461 l 335 174 l 738 174 l 738 0 l 125 0 z "},"ł":{"ha":424,"x_min":-17,"x_max":442,"o":"m 108 0 l 108 324 l 60 294 l -17 428 l 108 504 l 108 1056 l 315 1056 l 315 631 l 363 660 l 442 526 l 315 450 l 315 0 l 108 0 z "},"Ń":{"ha":1129,"x_min":125,"x_max":1004,"o":"m 1004 0 l 738 0 l 306 750 l 300 750 q 305 656 303 703 q 309 561 307 608 q 313 467 311 514 l 313 0 l 125 0 l 125 992 l 390 992 l 821 249 l 825 249 q 822 340 824 294 q 819 431 821 386 q 815 522 817 476 l 815 992 l 1004 992 l 1004 0 m 858 1283 q 807 1236 839 1264 q 738 1178 775 1208 q 666 1120 701 1147 q 604 1075 631 1093 l 467 1075 l 467 1093 q 519 1155 489 1119 q 578 1228 549 1190 q 626 1297 607 1267 l 858 1297 l 858 1283 z "},"ń":{"ha":913,"x_min":108,"x_max":808,"o":"m 539 772 q 735 706 661 772 q 808 494 808 640 l 808 0 l 601 0 l 601 443 q 572 566 601 525 q 479 607 543 607 q 350 542 385 607 q 315 357 315 478 l 315 0 l 108 0 l 108 758 l 267 758 l 294 661 l 306 661 q 367 724 331 700 q 447 760 403 749 q 539 772 492 772 m 750 1050 q 699 1003 731 1031 q 630 944 667 975 q 558 887 593 914 q 496 842 522 860 l 358 842 l 358 860 q 410 922 381 886 q 469 995 440 957 q 518 1064 499 1033 l 750 1064 l 750 1050 z "},"Ņ":{"ha":1129,"x_min":125,"x_max":1004,"o":"m 1004 0 l 738 0 l 306 750 l 300 750 q 305 656 303 703 q 309 561 307 608 q 313 467 311 514 l 313 0 l 125 0 l 125 992 l 390 992 l 821 249 l 825 249 q 822 340 824 294 q 819 431 821 386 q 815 522 817 476 l 815 992 l 1004 992 l 1004 0 m 682 -99 q 651 -163 668 -129 q 613 -233 633 -197 q 569 -307 593 -269 l 449 -307 l 449 -289 q 465 -225 457 -261 q 481 -151 474 -189 q 490 -85 488 -114 l 682 -85 l 682 -99 z "},"ņ":{"ha":913,"x_min":108,"x_max":808,"o":"m 539 772 q 735 706 661 772 q 808 494 808 640 l 808 0 l 601 0 l 601 443 q 572 566 601 525 q 479 607 543 607 q 350 542 385 607 q 315 357 315 478 l 315 0 l 108 0 l 108 758 l 267 758 l 294 661 l 306 661 q 367 724 331 700 q 447 760 403 749 q 539 772 492 772 m 574 -99 q 542 -163 560 -129 q 505 -233 525 -197 q 461 -307 485 -269 l 340 -307 l 340 -289 q 357 -225 349 -261 q 372 -151 365 -189 q 382 -85 379 -114 l 574 -85 l 574 -99 z "},"Ň":{"ha":1129,"x_min":125,"x_max":1004,"o":"m 1004 0 l 738 0 l 306 750 l 300 750 q 305 656 303 703 q 309 561 307 608 q 313 467 311 514 l 313 0 l 125 0 l 125 992 l 390 992 l 821 249 l 825 249 q 822 340 824 294 q 819 431 821 386 q 815 522 817 476 l 815 992 l 1004 992 l 1004 0 m 444 1075 q 394 1144 425 1107 q 330 1218 363 1182 q 271 1279 297 1254 l 271 1297 l 408 1297 q 486 1245 444 1275 q 564 1178 528 1215 q 643 1245 600 1215 q 722 1297 686 1275 l 860 1297 l 860 1279 q 801 1218 835 1254 q 737 1144 768 1182 q 686 1075 706 1107 l 444 1075 z "},"ň":{"ha":913,"x_min":108,"x_max":808,"o":"m 539 772 q 735 706 661 772 q 808 494 808 640 l 808 0 l 601 0 l 601 443 q 572 566 601 525 q 479 607 543 607 q 350 542 385 607 q 315 357 315 478 l 315 0 l 108 0 l 108 758 l 267 758 l 294 661 l 306 661 q 367 724 331 700 q 447 760 403 749 q 539 772 492 772 m 336 842 q 285 911 317 874 q 222 985 254 949 q 163 1046 189 1021 l 163 1064 l 300 1064 q 378 1012 336 1042 q 456 944 419 982 q 535 1012 492 982 q 614 1064 578 1042 l 751 1064 l 751 1046 q 693 985 726 1021 q 628 911 660 949 q 578 842 597 874 l 336 842 z "},"ŉ":{"ha":1069,"x_min":3,"x_max":965,"o":"m 696 772 q 892 706 818 772 q 965 494 965 640 l 965 0 l 758 0 l 758 443 q 729 566 758 525 q 636 607 700 607 q 507 542 542 607 q 472 357 472 478 l 472 0 l 265 0 l 265 758 l 424 758 l 451 661 l 463 661 q 524 724 488 700 q 604 760 560 749 q 696 772 649 772 m 271 976 q 239 872 258 928 q 197 759 219 815 q 151 651 175 703 l 3 651 q 22 738 13 693 q 41 827 32 782 q 58 914 50 872 q 71 992 65 956 l 261 992 l 271 976 z "},"Ŋ":{"ha":1129,"x_min":125,"x_max":1004,"o":"m 689 -292 q 613 -287 646 -292 q 556 -276 579 -282 l 556 -112 q 608 -122 581 -118 q 668 -126 636 -126 q 753 -113 719 -126 q 803 -72 786 -100 q 821 3 819 -43 l 306 750 l 300 750 q 306 659 303 711 q 310 556 308 607 q 313 467 313 504 l 313 0 l 125 0 l 125 992 l 390 992 l 821 381 l 825 381 q 821 470 824 419 q 817 571 818 521 q 815 654 815 621 l 815 992 l 1004 992 l 1004 0 q 965 -165 1004 -100 q 854 -260 925 -229 q 689 -292 783 -292 z "},"ŋ":{"ha":913,"x_min":108,"x_max":808,"o":"m 563 -333 q 496 -328 531 -333 q 438 -317 461 -324 l 438 -154 q 477 -163 458 -160 q 518 -167 496 -167 q 577 -143 553 -167 q 601 -51 601 -119 l 601 458 q 571 569 601 532 q 479 607 540 607 q 381 578 417 607 q 330 493 344 549 q 315 357 315 438 l 315 0 l 108 0 l 108 758 l 267 758 l 294 661 l 307 661 q 368 724 332 700 q 449 760 404 749 q 539 772 493 772 q 681 743 621 772 q 775 653 742 714 q 808 494 808 592 l 808 -82 q 784 -208 808 -151 q 706 -299 760 -265 q 563 -333 651 -333 z "},"Ō":{"ha":1106,"x_min":81,"x_max":1025,"o":"m 1025 497 q 997 288 1025 382 q 910 126 968 194 q 763 22 853 58 q 553 -14 674 -14 q 342 23 432 -14 q 195 127 253 60 q 109 289 138 194 q 81 499 81 383 q 131 767 81 653 q 287 944 182 881 q 554 1007 392 1007 q 819 944 715 1007 q 974 766 924 881 q 1025 497 1025 651 m 301 497 q 328 318 301 393 q 410 203 354 243 q 553 163 465 163 q 698 203 643 163 q 778 318 753 243 q 804 497 804 393 q 746 743 804 654 q 554 832 688 832 q 410 792 465 832 q 328 676 354 751 q 301 497 301 601 m 782 1218 l 782 1075 l 322 1075 l 322 1218 l 782 1218 z "},"ō":{"ha":860,"x_min":63,"x_max":797,"o":"m 797 381 q 772 213 797 286 q 698 88 746 139 q 582 12 650 38 q 428 -14 514 -14 q 281 12 349 -14 q 165 88 214 38 q 90 213 117 139 q 63 381 63 286 q 107 594 63 507 q 235 726 151 681 q 432 772 318 772 q 621 726 539 772 q 750 594 703 681 q 797 381 797 507 m 274 381 q 290 255 274 306 q 340 178 306 204 q 431 153 375 153 q 520 178 486 153 q 570 255 554 204 q 586 381 586 306 q 570 506 586 456 q 519 581 554 556 q 429 606 485 606 q 310 549 347 606 q 274 381 274 493 m 660 985 l 660 842 l 200 842 l 200 985 l 660 985 z "},"Ŏ":{"ha":1106,"x_min":81,"x_max":1025,"o":"m 1025 497 q 997 288 1025 382 q 910 126 968 194 q 763 22 853 58 q 553 -14 674 -14 q 342 23 432 -14 q 195 127 253 60 q 109 289 138 194 q 81 499 81 383 q 131 767 81 653 q 287 944 182 881 q 554 1007 392 1007 q 819 944 715 1007 q 974 766 924 881 q 1025 497 1025 651 m 301 497 q 328 318 301 393 q 410 203 354 243 q 553 163 465 163 q 698 203 643 163 q 778 318 753 243 q 804 497 804 393 q 746 743 804 654 q 554 832 688 832 q 410 792 465 832 q 328 676 354 751 q 301 497 301 601 m 819 1304 q 780 1185 815 1238 q 686 1104 744 1133 q 550 1075 628 1075 q 361 1138 431 1075 q 286 1304 292 1200 l 401 1304 q 426 1247 406 1265 q 479 1224 446 1229 q 551 1219 513 1219 q 617 1226 585 1219 q 674 1250 650 1232 q 701 1304 697 1268 l 819 1304 z "},"ŏ":{"ha":860,"x_min":63,"x_max":797,"o":"m 797 381 q 772 213 797 286 q 698 88 746 139 q 582 12 650 38 q 428 -14 514 -14 q 281 12 349 -14 q 165 88 214 38 q 90 213 117 139 q 63 381 63 286 q 107 594 63 507 q 235 726 151 681 q 432 772 318 772 q 621 726 539 772 q 750 594 703 681 q 797 381 797 507 m 274 381 q 290 255 274 306 q 340 178 306 204 q 431 153 375 153 q 520 178 486 153 q 570 255 554 204 q 586 381 586 306 q 570 506 586 456 q 519 581 554 556 q 429 606 485 606 q 310 549 347 606 q 274 381 274 493 m 697 1071 q 658 952 693 1004 q 564 871 622 900 q 428 842 506 842 q 239 904 308 842 q 164 1071 169 967 l 279 1071 q 303 1014 283 1032 q 357 991 324 996 q 429 986 390 986 q 495 992 463 986 q 551 1017 528 999 q 579 1071 575 1035 l 697 1071 z "},"Ő":{"ha":1106,"x_min":81,"x_max":1025,"o":"m 1025 497 q 997 288 1025 382 q 910 126 968 194 q 763 22 853 58 q 553 -14 674 -14 q 342 23 432 -14 q 195 127 253 60 q 109 289 138 194 q 81 499 81 383 q 131 767 81 653 q 287 944 182 881 q 554 1007 392 1007 q 819 944 715 1007 q 974 766 924 881 q 1025 497 1025 651 m 301 497 q 328 318 301 393 q 410 203 354 243 q 553 163 465 163 q 698 203 643 163 q 778 318 753 243 q 804 497 804 393 q 746 743 804 654 q 554 832 688 832 q 410 792 465 832 q 328 676 354 751 q 301 497 301 601 m 856 1283 q 818 1238 844 1265 q 757 1179 792 1210 q 688 1122 722 1149 q 629 1075 654 1094 l 519 1075 l 519 1093 q 564 1156 539 1119 q 613 1229 589 1192 q 651 1297 636 1267 l 856 1297 l 856 1283 m 586 1283 q 549 1238 575 1265 q 488 1179 522 1210 q 419 1122 453 1149 q 360 1075 385 1094 l 250 1075 l 250 1093 q 294 1156 269 1119 q 342 1229 318 1192 q 382 1297 365 1267 l 586 1297 l 586 1283 z "},"ő":{"ha":860,"x_min":63,"x_max":797,"o":"m 797 381 q 772 213 797 286 q 698 88 746 139 q 582 12 650 38 q 428 -14 514 -14 q 281 12 349 -14 q 165 88 214 38 q 90 213 117 139 q 63 381 63 286 q 107 594 63 507 q 235 726 151 681 q 432 772 318 772 q 621 726 539 772 q 750 594 703 681 q 797 381 797 507 m 274 381 q 290 255 274 306 q 340 178 306 204 q 431 153 375 153 q 520 178 486 153 q 570 255 554 204 q 586 381 586 306 q 570 506 586 456 q 519 581 554 556 q 429 606 485 606 q 310 549 347 606 q 274 381 274 493 m 733 1050 q 696 1004 722 1032 q 635 946 669 976 q 566 888 600 915 q 507 842 532 861 l 397 842 l 397 860 q 442 922 417 886 q 490 996 467 958 q 529 1064 514 1033 l 733 1064 l 733 1050 m 464 1050 q 426 1004 453 1032 q 365 946 400 976 q 297 888 331 915 q 238 842 263 861 l 128 842 l 128 860 q 172 922 147 886 q 219 996 196 958 q 260 1064 243 1033 l 464 1064 l 464 1050 z "},"Œ":{"ha":1351,"x_min":81,"x_max":1269,"o":"m 526 1007 q 606 1003 563 1007 q 681 992 650 999 l 1269 992 l 1269 819 l 888 819 l 888 601 l 1244 601 l 1244 429 l 888 429 l 888 174 l 1269 174 l 1269 0 l 678 0 q 604 -10 647 -6 q 525 -14 561 -14 q 275 50 374 -14 q 128 229 176 114 q 81 499 81 344 q 128 767 81 653 q 275 944 176 881 q 526 1007 374 1007 m 526 832 q 424 809 467 832 q 353 742 381 786 q 311 637 325 699 q 297 497 297 575 q 322 318 297 393 q 397 203 346 243 q 525 163 447 163 q 608 169 565 163 q 678 189 651 176 l 678 804 q 610 825 653 818 q 526 832 567 832 z "},"œ":{"ha":1358,"x_min":63,"x_max":1299,"o":"m 949 772 q 1135 732 1057 772 q 1256 615 1214 692 q 1299 428 1299 539 l 1299 328 l 793 328 q 849 190 797 239 q 989 140 900 140 q 1128 155 1065 140 q 1256 200 1190 169 l 1256 40 q 1134 -1 1197 13 q 981 -14 1071 -14 q 822 12 894 -14 q 696 92 749 38 q 581 13 649 39 q 431 -14 513 -14 q 240 32 322 -14 q 110 166 157 78 q 63 381 63 254 q 106 594 63 507 q 231 726 149 681 q 429 772 314 772 q 574 746 506 772 q 689 667 642 719 q 762 726 722 703 q 849 760 801 749 q 949 772 896 772 m 429 606 q 310 549 347 606 q 274 381 274 493 q 290 255 274 306 q 340 178 306 204 q 431 153 375 153 q 520 178 486 153 q 570 255 554 204 q 586 381 586 306 q 570 506 586 456 q 519 581 554 556 q 429 606 485 606 m 953 625 q 847 586 889 625 q 799 465 806 547 l 1104 465 q 1087 547 1104 511 q 1037 604 1069 583 q 953 625 1004 625 z "},"Ŕ":{"ha":917,"x_min":125,"x_max":917,"o":"m 414 992 q 636 959 549 992 q 767 860 724 926 q 810 694 810 794 q 784 576 810 626 q 716 490 758 525 q 625 432 674 454 l 917 0 l 683 0 l 447 381 l 335 381 l 335 0 l 125 0 l 125 992 l 414 992 m 399 819 l 335 819 l 335 551 l 403 551 q 552 586 507 551 q 597 689 597 621 q 576 765 597 736 q 510 806 554 793 q 399 819 467 819 m 763 1283 q 711 1236 743 1264 q 642 1178 679 1208 q 570 1120 606 1147 q 508 1075 535 1093 l 371 1075 l 371 1093 q 423 1155 393 1119 q 482 1228 453 1190 q 531 1297 511 1267 l 763 1297 l 763 1283 z "},"ŕ":{"ha":631,"x_min":108,"x_max":646,"o":"m 532 772 q 568 771 547 772 q 601 767 589 769 l 586 572 q 558 577 576 575 q 525 579 539 579 q 447 569 485 579 q 380 536 410 558 q 333 477 350 514 q 315 386 315 440 l 315 0 l 108 0 l 108 758 l 265 758 l 296 631 l 306 631 q 361 701 328 669 q 438 753 394 733 q 532 772 482 772 m 646 1050 q 594 1003 626 1031 q 526 944 563 975 q 453 887 489 914 q 392 842 418 860 l 254 842 l 254 860 q 306 922 276 886 q 365 995 336 957 q 414 1064 394 1033 l 646 1064 l 646 1050 z "},"Ŗ":{"ha":917,"x_min":125,"x_max":917,"o":"m 414 992 q 636 959 549 992 q 767 860 724 926 q 810 694 810 794 q 784 576 810 626 q 716 490 758 525 q 625 432 674 454 l 917 0 l 683 0 l 447 381 l 335 381 l 335 0 l 125 0 l 125 992 l 414 992 m 399 819 l 335 819 l 335 551 l 403 551 q 552 586 507 551 q 597 689 597 621 q 576 765 597 736 q 510 806 554 793 q 399 819 467 819 m 614 -99 q 583 -163 600 -129 q 545 -233 565 -197 q 501 -307 525 -269 l 381 -307 l 381 -289 q 397 -225 389 -261 q 413 -151 406 -189 q 422 -85 419 -114 l 614 -85 l 614 -99 z "},"ŗ":{"ha":631,"x_min":100,"x_max":601,"o":"m 532 772 q 568 771 547 772 q 601 767 589 769 l 586 572 q 558 577 576 575 q 525 579 539 579 q 447 569 485 579 q 380 536 410 558 q 333 477 350 514 q 315 386 315 440 l 315 0 l 108 0 l 108 758 l 265 758 l 296 631 l 306 631 q 361 701 328 669 q 438 753 394 733 q 532 772 482 772 m 333 -99 q 302 -163 319 -129 q 265 -233 285 -197 q 221 -307 244 -269 l 100 -307 l 100 -289 q 117 -225 108 -261 q 132 -151 125 -189 q 142 -85 139 -114 l 333 -85 l 333 -99 z "},"Ř":{"ha":917,"x_min":125,"x_max":917,"o":"m 414 992 q 636 959 549 992 q 767 860 724 926 q 810 694 810 794 q 784 576 810 626 q 716 490 758 525 q 625 432 674 454 l 917 0 l 683 0 l 447 381 l 335 381 l 335 0 l 125 0 l 125 992 l 414 992 m 399 819 l 335 819 l 335 551 l 403 551 q 552 586 507 551 q 597 689 597 621 q 576 765 597 736 q 510 806 554 793 q 399 819 467 819 m 349 1075 q 298 1144 329 1107 q 234 1218 267 1182 q 175 1279 201 1254 l 175 1297 l 313 1297 q 390 1245 349 1275 q 468 1178 432 1215 q 547 1245 504 1215 q 626 1297 590 1275 l 764 1297 l 764 1279 q 706 1218 739 1254 q 641 1144 672 1182 q 590 1075 610 1107 l 349 1075 z "},"ř":{"ha":631,"x_min":58,"x_max":647,"o":"m 532 772 q 568 771 547 772 q 601 767 589 769 l 586 572 q 558 577 576 575 q 525 579 539 579 q 447 569 485 579 q 380 536 410 558 q 333 477 350 514 q 315 386 315 440 l 315 0 l 108 0 l 108 758 l 265 758 l 296 631 l 306 631 q 361 701 328 669 q 438 753 394 733 q 532 772 482 772 m 232 842 q 181 911 213 874 q 117 985 150 949 q 58 1046 85 1021 l 58 1064 l 196 1064 q 274 1012 232 1042 q 351 944 315 982 q 431 1012 388 982 q 510 1064 474 1042 l 647 1064 l 647 1046 q 589 985 622 1021 q 524 911 556 949 q 474 842 493 874 l 232 842 z "},"Ś":{"ha":765,"x_min":64,"x_max":710,"o":"m 710 275 q 667 122 710 188 q 542 22 624 57 q 344 -14 461 -14 q 244 -7 293 -14 q 149 13 194 0 q 64 46 104 26 l 64 242 q 210 185 135 211 q 361 160 286 160 q 444 174 413 160 q 490 211 475 188 q 504 265 504 235 q 478 329 504 303 q 410 378 453 356 q 311 428 367 401 q 236 467 276 444 q 159 524 196 490 q 99 607 122 558 q 75 724 75 656 q 116 876 75 813 q 233 972 157 939 q 411 1006 308 1006 q 559 988 489 1006 q 706 936 629 969 l 638 772 q 515 815 569 800 q 404 831 461 831 q 338 818 365 831 q 295 783 310 806 q 281 731 281 761 q 301 672 281 696 q 364 625 322 647 q 468 572 406 603 q 598 497 544 536 q 681 406 651 458 q 710 275 710 353 m 688 1283 q 636 1236 668 1264 q 567 1178 604 1208 q 495 1120 531 1147 q 433 1075 460 1093 l 296 1075 l 296 1093 q 348 1155 318 1119 q 407 1228 378 1190 q 456 1297 436 1267 l 688 1297 l 688 1283 z "},"ś":{"ha":690,"x_min":63,"x_max":639,"o":"m 638 225 q 601 95 638 149 q 493 14 565 42 q 314 -14 421 -14 q 178 -3 235 -14 q 64 31 121 7 l 64 201 q 196 156 125 174 q 321 138 267 138 q 408 156 382 138 q 433 203 433 174 q 423 238 433 222 q 378 272 413 253 q 269 322 343 292 q 153 383 199 353 q 85 455 107 413 q 63 561 63 497 q 144 719 63 667 q 363 772 226 772 q 497 758 433 772 q 629 713 561 744 l 567 564 q 461 603 511 588 q 360 619 411 619 q 291 607 314 619 q 268 569 268 594 q 280 537 268 551 q 326 506 292 522 q 426 461 360 489 q 539 406 492 435 q 612 335 586 378 q 638 225 638 293 m 639 1050 q 588 1003 619 1031 q 519 944 556 975 q 447 887 482 914 q 385 842 411 860 l 247 842 l 247 860 q 299 922 269 886 q 358 995 329 957 q 407 1064 388 1033 l 639 1064 l 639 1050 z "},"Ŝ":{"ha":765,"x_min":64,"x_max":710,"o":"m 710 275 q 667 122 710 188 q 542 22 624 57 q 344 -14 461 -14 q 244 -7 293 -14 q 149 13 194 0 q 64 46 104 26 l 64 242 q 210 185 135 211 q 361 160 286 160 q 444 174 413 160 q 490 211 475 188 q 504 265 504 235 q 478 329 504 303 q 410 378 453 356 q 311 428 367 401 q 236 467 276 444 q 159 524 196 490 q 99 607 122 558 q 75 724 75 656 q 116 876 75 813 q 233 972 157 939 q 411 1006 308 1006 q 559 988 489 1006 q 706 936 629 969 l 638 772 q 515 815 569 800 q 404 831 461 831 q 338 818 365 831 q 295 783 310 806 q 281 731 281 761 q 301 672 281 696 q 364 625 322 647 q 468 572 406 603 q 598 497 544 536 q 681 406 651 458 q 710 275 710 353 m 515 1297 q 566 1228 535 1267 q 631 1154 597 1190 q 689 1093 664 1118 l 689 1075 l 551 1075 q 472 1127 515 1097 q 393 1194 429 1157 q 315 1128 357 1157 q 238 1075 274 1099 l 100 1075 l 100 1093 q 159 1155 126 1119 q 223 1228 192 1190 q 274 1297 254 1267 l 515 1297 z "},"ŝ":{"ha":690,"x_min":51,"x_max":640,"o":"m 638 225 q 601 95 638 149 q 493 14 565 42 q 314 -14 421 -14 q 178 -3 235 -14 q 64 31 121 7 l 64 201 q 196 156 125 174 q 321 138 267 138 q 408 156 382 138 q 433 203 433 174 q 423 238 433 222 q 378 272 413 253 q 269 322 343 292 q 153 383 199 353 q 85 455 107 413 q 63 561 63 497 q 144 719 63 667 q 363 772 226 772 q 497 758 433 772 q 629 713 561 744 l 567 564 q 461 603 511 588 q 360 619 411 619 q 291 607 314 619 q 268 569 268 594 q 280 537 268 551 q 326 506 292 522 q 426 461 360 489 q 539 406 492 435 q 612 335 586 378 q 638 225 638 293 m 467 1064 q 517 995 486 1033 q 582 921 549 957 q 640 860 615 885 l 640 842 l 503 842 q 424 894 467 864 q 344 961 381 924 q 267 894 308 924 q 189 842 225 865 l 51 842 l 51 860 q 110 922 78 886 q 174 995 143 957 q 225 1064 206 1033 l 467 1064 z "},"Ş":{"ha":765,"x_min":64,"x_max":710,"o":"m 710 275 q 667 122 710 188 q 542 22 624 57 q 344 -14 461 -14 q 244 -7 293 -14 q 149 13 194 0 q 64 46 104 26 l 64 242 q 210 185 135 211 q 361 160 286 160 q 444 174 413 160 q 490 211 475 188 q 504 265 504 235 q 478 329 504 303 q 410 378 453 356 q 311 428 367 401 q 236 467 276 444 q 159 524 196 490 q 99 607 122 558 q 75 724 75 656 q 116 876 75 813 q 233 972 157 939 q 411 1006 308 1006 q 559 988 489 1006 q 706 936 629 969 l 638 772 q 515 815 569 800 q 404 831 461 831 q 338 818 365 831 q 295 783 310 806 q 281 731 281 761 q 301 672 281 696 q 364 625 322 647 q 468 572 406 603 q 598 497 544 536 q 681 406 651 458 q 710 275 710 353 m 526 -169 q 481 -290 526 -247 q 317 -333 436 -333 q 262 -329 286 -333 q 218 -319 238 -325 l 218 -206 q 266 -215 238 -211 q 315 -219 294 -219 q 349 -210 335 -219 q 364 -178 364 -201 q 339 -133 364 -153 q 251 -104 314 -114 l 304 0 l 435 0 l 417 -42 q 469 -67 444 -50 q 510 -110 494 -85 q 526 -169 526 -135 z "},"ş":{"ha":690,"x_min":63,"x_max":638,"o":"m 638 225 q 601 95 638 149 q 493 14 565 42 q 314 -14 421 -14 q 178 -3 235 -14 q 64 31 121 7 l 64 201 q 196 156 125 174 q 321 138 267 138 q 408 156 382 138 q 433 203 433 174 q 423 238 433 222 q 378 272 413 253 q 269 322 343 292 q 153 383 199 353 q 85 455 107 413 q 63 561 63 497 q 144 719 63 667 q 363 772 226 772 q 497 758 433 772 q 629 713 561 744 l 567 564 q 461 603 511 588 q 360 619 411 619 q 291 607 314 619 q 268 569 268 594 q 280 537 268 551 q 326 506 292 522 q 426 461 360 489 q 539 406 492 435 q 612 335 586 378 q 638 225 638 293 m 500 -169 q 455 -290 500 -247 q 290 -333 410 -333 q 235 -329 260 -333 q 192 -319 211 -325 l 192 -206 q 240 -215 211 -211 q 289 -219 268 -219 q 323 -210 308 -219 q 338 -178 338 -201 q 313 -133 338 -153 q 225 -104 288 -114 l 278 0 l 408 0 l 390 -42 q 443 -67 418 -50 q 484 -110 468 -85 q 500 -169 500 -135 z "},"Š":{"ha":765,"x_min":64,"x_max":710,"o":"m 710 275 q 667 122 710 188 q 542 22 624 57 q 344 -14 461 -14 q 244 -7 293 -14 q 149 13 194 0 q 64 46 104 26 l 64 242 q 210 185 135 211 q 361 160 286 160 q 444 174 413 160 q 490 211 475 188 q 504 265 504 235 q 478 329 504 303 q 410 378 453 356 q 311 428 367 401 q 236 467 276 444 q 159 524 196 490 q 99 607 122 558 q 75 724 75 656 q 116 876 75 813 q 233 972 157 939 q 411 1006 308 1006 q 559 988 489 1006 q 706 936 629 969 l 638 772 q 515 815 569 800 q 404 831 461 831 q 338 818 365 831 q 295 783 310 806 q 281 731 281 761 q 301 672 281 696 q 364 625 322 647 q 468 572 406 603 q 598 497 544 536 q 681 406 651 458 q 710 275 710 353 m 274 1075 q 223 1144 254 1107 q 159 1218 192 1182 q 100 1279 126 1254 l 100 1297 l 238 1297 q 315 1245 274 1275 q 393 1178 357 1215 q 472 1245 429 1215 q 551 1297 515 1275 l 689 1297 l 689 1279 q 631 1218 664 1254 q 566 1144 597 1182 q 515 1075 535 1107 l 274 1075 z "},"š":{"ha":690,"x_min":51,"x_max":640,"o":"m 638 225 q 601 95 638 149 q 493 14 565 42 q 314 -14 421 -14 q 178 -3 235 -14 q 64 31 121 7 l 64 201 q 196 156 125 174 q 321 138 267 138 q 408 156 382 138 q 433 203 433 174 q 423 238 433 222 q 378 272 413 253 q 269 322 343 292 q 153 383 199 353 q 85 455 107 413 q 63 561 63 497 q 144 719 63 667 q 363 772 226 772 q 497 758 433 772 q 629 713 561 744 l 567 564 q 461 603 511 588 q 360 619 411 619 q 291 607 314 619 q 268 569 268 594 q 280 537 268 551 q 326 506 292 522 q 426 461 360 489 q 539 406 492 435 q 612 335 586 378 q 638 225 638 293 m 225 842 q 174 911 206 874 q 110 985 143 949 q 51 1046 78 1021 l 51 1064 l 189 1064 q 267 1012 225 1042 q 344 944 308 982 q 424 1012 381 982 q 503 1064 467 1042 l 640 1064 l 640 1046 q 582 985 615 1021 q 517 911 549 949 q 467 842 486 874 l 225 842 z "},"Ț":{"ha":804,"x_min":28,"x_max":776,"o":"m 507 0 l 297 0 l 297 817 l 28 817 l 28 992 l 776 992 l 776 817 l 507 817 l 507 0 m 519 -99 q 488 -163 506 -129 q 451 -233 471 -197 q 407 -307 431 -269 l 286 -307 l 286 -289 q 303 -225 294 -261 q 318 -151 311 -189 q 328 -85 325 -114 l 519 -85 l 519 -99 z "},"ț":{"ha":603,"x_min":32,"x_max":558,"o":"m 428 151 q 494 158 463 151 q 558 175 526 165 l 558 21 q 476 -3 525 7 q 368 -14 426 -14 q 247 8 300 -14 q 162 85 193 31 q 131 238 131 140 l 131 603 l 32 603 l 32 690 l 146 760 l 206 919 l 338 919 l 338 758 l 550 758 l 550 603 l 338 603 l 338 238 q 363 173 338 194 q 428 151 388 151 m 451 -99 q 420 -163 438 -129 q 383 -233 403 -197 q 339 -307 363 -269 l 218 -307 l 218 -289 q 235 -225 226 -261 q 250 -151 243 -189 q 260 -85 257 -114 l 451 -85 l 451 -99 z "},"Ť":{"ha":804,"x_min":28,"x_max":776,"o":"m 507 0 l 297 0 l 297 817 l 28 817 l 28 992 l 776 992 l 776 817 l 507 817 l 507 0 m 282 1075 q 231 1144 263 1107 q 167 1218 200 1182 q 108 1279 135 1254 l 108 1297 l 246 1297 q 324 1245 282 1275 q 401 1178 365 1215 q 481 1245 438 1215 q 560 1297 524 1275 l 697 1297 l 697 1279 q 639 1218 672 1254 q 574 1144 606 1182 q 524 1075 543 1107 l 282 1075 z "},"ť":{"ha":603,"x_min":32,"x_max":792,"o":"m 792 1042 q 760 977 778 1011 q 723 907 743 943 q 679 833 703 871 l 558 833 l 558 851 q 570 898 564 872 q 582 951 576 924 q 592 1006 588 979 q 600 1056 597 1033 l 792 1056 l 792 1042 m 428 151 q 494 158 463 151 q 558 175 526 165 l 558 21 q 476 -3 525 7 q 368 -14 426 -14 q 247 8 300 -14 q 162 85 193 31 q 131 238 131 140 l 131 603 l 32 603 l 32 690 l 146 760 l 206 919 l 338 919 l 338 758 l 550 758 l 550 603 l 338 603 l 338 238 q 363 173 338 194 q 428 151 388 151 z "},"Ŧ":{"ha":804,"x_min":28,"x_max":776,"o":"m 297 0 l 297 404 l 129 404 l 129 576 l 297 576 l 297 817 l 28 817 l 28 992 l 776 992 l 776 817 l 507 817 l 507 576 l 675 576 l 675 404 l 507 404 l 507 0 l 297 0 z "},"ŧ":{"ha":603,"x_min":32,"x_max":558,"o":"m 44 338 l 44 472 l 526 472 l 526 338 l 44 338 m 428 151 q 494 158 463 151 q 558 175 526 165 l 558 21 q 476 -3 525 7 q 368 -14 426 -14 q 247 8 300 -14 q 162 85 193 31 q 131 238 131 140 l 131 603 l 32 603 l 32 690 l 146 760 l 206 919 l 338 919 l 338 758 l 550 758 l 550 603 l 338 603 l 338 238 q 363 173 338 194 q 428 151 388 151 z "},"Ũ":{"ha":1050,"x_min":118,"x_max":932,"o":"m 932 350 q 887 165 932 247 q 751 34 842 82 q 521 -14 660 -14 q 221 87 324 -14 q 118 353 118 188 l 118 992 l 328 992 l 328 385 q 378 213 328 263 q 526 163 428 163 q 639 186 596 163 q 702 260 682 210 q 722 386 722 310 l 722 992 l 932 992 l 932 350 m 244 1074 q 265 1167 249 1128 q 306 1233 281 1207 q 362 1271 331 1258 q 429 1283 393 1283 q 484 1273 457 1283 q 537 1248 511 1263 q 588 1223 563 1233 q 638 1213 613 1213 q 678 1231 658 1213 q 706 1285 697 1249 l 807 1285 q 746 1126 799 1178 q 622 1075 693 1075 q 568 1085 594 1075 q 515 1110 542 1096 q 464 1135 489 1125 q 414 1146 439 1146 q 374 1128 393 1146 q 346 1074 354 1110 l 244 1074 z "},"ũ":{"ha":913,"x_min":104,"x_max":804,"o":"m 804 758 l 804 0 l 646 0 l 618 97 l 607 97 q 547 34 583 58 q 465 -2 510 10 q 374 -14 421 -14 q 232 15 293 -14 q 138 106 171 44 q 104 264 104 167 l 104 758 l 311 758 l 311 315 q 340 193 311 235 q 433 151 369 151 q 533 181 497 151 q 583 265 568 210 q 597 401 597 321 l 597 758 l 804 758 m 176 840 q 197 934 181 894 q 238 999 213 974 q 294 1038 263 1025 q 361 1050 325 1050 q 416 1040 389 1050 q 469 1015 443 1029 q 519 990 494 1000 q 569 979 544 979 q 610 997 590 979 q 638 1051 629 1015 l 739 1051 q 678 893 731 944 q 554 842 625 842 q 500 852 526 842 q 447 877 474 863 q 396 902 421 892 q 346 913 371 913 q 306 894 325 913 q 278 840 286 876 l 176 840 z "},"Ū":{"ha":1050,"x_min":118,"x_max":932,"o":"m 932 350 q 887 165 932 247 q 751 34 842 82 q 521 -14 660 -14 q 221 87 324 -14 q 118 353 118 188 l 118 992 l 328 992 l 328 385 q 378 213 328 263 q 526 163 428 163 q 639 186 596 163 q 702 260 682 210 q 722 386 722 310 l 722 992 l 932 992 l 932 350 m 754 1218 l 754 1075 l 294 1075 l 294 1218 l 754 1218 z "},"ū":{"ha":913,"x_min":104,"x_max":804,"o":"m 804 758 l 804 0 l 646 0 l 618 97 l 607 97 q 547 34 583 58 q 465 -2 510 10 q 374 -14 421 -14 q 232 15 293 -14 q 138 106 171 44 q 104 264 104 167 l 104 758 l 311 758 l 311 315 q 340 193 311 235 q 433 151 369 151 q 533 181 497 151 q 583 265 568 210 q 597 401 597 321 l 597 758 l 804 758 m 686 985 l 686 842 l 226 842 l 226 985 l 686 985 z "},"Ŭ":{"ha":1050,"x_min":118,"x_max":932,"o":"m 932 350 q 887 165 932 247 q 751 34 842 82 q 521 -14 660 -14 q 221 87 324 -14 q 118 353 118 188 l 118 992 l 328 992 l 328 385 q 378 213 328 263 q 526 163 428 163 q 639 186 596 163 q 702 260 682 210 q 722 386 722 310 l 722 992 l 932 992 l 932 350 m 792 1304 q 752 1185 788 1238 q 658 1104 717 1133 q 522 1075 600 1075 q 333 1138 403 1075 q 258 1304 264 1200 l 374 1304 q 398 1247 378 1265 q 451 1224 418 1229 q 524 1219 485 1219 q 590 1226 557 1219 q 646 1250 622 1232 q 674 1304 669 1268 l 792 1304 z "},"ŭ":{"ha":913,"x_min":104,"x_max":804,"o":"m 804 758 l 804 0 l 646 0 l 618 97 l 607 97 q 547 34 583 58 q 465 -2 510 10 q 374 -14 421 -14 q 232 15 293 -14 q 138 106 171 44 q 104 264 104 167 l 104 758 l 311 758 l 311 315 q 340 193 311 235 q 433 151 369 151 q 533 181 497 151 q 583 265 568 210 q 597 401 597 321 l 597 758 l 804 758 m 724 1071 q 684 952 719 1004 q 590 871 649 900 q 454 842 532 842 q 265 904 335 842 q 190 1071 196 967 l 306 1071 q 330 1014 310 1032 q 383 991 350 996 q 456 986 417 986 q 522 992 489 986 q 578 1017 554 999 q 606 1071 601 1035 l 724 1071 z "},"Ů":{"ha":1050,"x_min":118,"x_max":932,"o":"m 932 350 q 887 165 932 247 q 751 34 842 82 q 521 -14 660 -14 q 221 87 324 -14 q 118 353 118 188 l 118 992 l 328 992 l 328 385 q 378 213 328 263 q 526 163 428 163 q 639 186 596 163 q 702 260 682 210 q 722 386 722 310 l 722 992 l 932 992 l 932 350 m 522 1074 q 401 1117 447 1074 q 354 1235 354 1160 q 401 1353 354 1310 q 522 1396 447 1396 q 644 1353 594 1396 q 694 1236 694 1310 q 645 1117 694 1160 q 522 1074 596 1074 m 522 1169 q 569 1187 550 1169 q 588 1235 588 1204 q 569 1283 588 1265 q 522 1300 550 1300 q 476 1283 494 1300 q 457 1235 457 1265 q 474 1187 457 1204 q 522 1169 490 1169 z "},"ů":{"ha":913,"x_min":104,"x_max":804,"o":"m 804 758 l 804 0 l 646 0 l 618 97 l 607 97 q 547 34 583 58 q 465 -2 510 10 q 374 -14 421 -14 q 232 15 293 -14 q 138 106 171 44 q 104 264 104 167 l 104 758 l 311 758 l 311 315 q 340 193 311 235 q 433 151 369 151 q 533 181 497 151 q 583 265 568 210 q 597 401 597 321 l 597 758 l 804 758 m 454 840 q 333 883 379 840 q 286 1001 286 926 q 333 1119 286 1076 q 454 1163 379 1163 q 576 1119 526 1163 q 626 1003 626 1076 q 577 883 626 926 q 454 840 528 840 m 454 936 q 501 953 482 936 q 519 1001 519 971 q 501 1049 519 1032 q 454 1067 482 1067 q 408 1049 426 1067 q 389 1001 389 1032 q 406 953 389 971 q 454 936 422 936 z "},"Ű":{"ha":1050,"x_min":118,"x_max":932,"o":"m 932 350 q 887 165 932 247 q 751 34 842 82 q 521 -14 660 -14 q 221 87 324 -14 q 118 353 118 188 l 118 992 l 328 992 l 328 385 q 378 213 328 263 q 526 163 428 163 q 639 186 596 163 q 702 260 682 210 q 722 386 722 310 l 722 992 l 932 992 l 932 350 m 828 1283 q 790 1238 817 1265 q 729 1179 764 1210 q 660 1122 694 1149 q 601 1075 626 1094 l 492 1075 l 492 1093 q 536 1156 511 1119 q 585 1229 561 1192 q 624 1297 608 1267 l 828 1297 l 828 1283 m 558 1283 q 521 1238 547 1265 q 460 1179 494 1210 q 391 1122 425 1149 q 332 1075 357 1094 l 222 1075 l 222 1093 q 266 1156 242 1119 q 314 1229 290 1192 q 354 1297 338 1267 l 558 1297 l 558 1283 z "},"ű":{"ha":913,"x_min":104,"x_max":804,"o":"m 804 758 l 804 0 l 646 0 l 618 97 l 607 97 q 547 34 583 58 q 465 -2 510 10 q 374 -14 421 -14 q 232 15 293 -14 q 138 106 171 44 q 104 264 104 167 l 104 758 l 311 758 l 311 315 q 340 193 311 235 q 433 151 369 151 q 533 181 497 151 q 583 265 568 210 q 597 401 597 321 l 597 758 l 804 758 m 760 1050 q 722 1004 749 1032 q 661 946 696 976 q 592 888 626 915 q 533 842 558 861 l 424 842 l 424 860 q 468 922 443 886 q 517 996 493 958 q 556 1064 540 1033 l 760 1064 l 760 1050 m 490 1050 q 453 1004 479 1032 q 392 946 426 976 q 323 888 357 915 q 264 842 289 861 l 154 842 l 154 860 q 198 922 174 886 q 246 996 222 958 q 286 1064 269 1033 l 490 1064 l 490 1050 z "},"Ų":{"ha":1050,"x_min":118,"x_max":932,"o":"m 674 -139 q 690 -192 674 -174 q 731 -210 707 -210 q 772 -206 753 -210 q 806 -197 792 -201 l 806 -318 q 758 -328 783 -324 q 700 -333 733 -333 q 576 -289 622 -333 q 531 -168 531 -244 q 551 -78 531 -121 q 607 1 572 -35 q 683 60 642 36 l 814 79 q 734 -4 765 35 q 688 -76 703 -43 q 674 -139 674 -108 m 932 350 q 887 165 932 247 q 751 34 842 82 q 521 -14 660 -14 q 221 87 324 -14 q 118 353 118 188 l 118 992 l 328 992 l 328 385 q 378 213 328 263 q 526 163 428 163 q 639 186 596 163 q 702 260 682 210 q 722 386 722 310 l 722 992 l 932 992 l 932 350 z "},"ų":{"ha":913,"x_min":104,"x_max":804,"o":"m 804 758 l 804 0 l 646 0 l 618 97 l 607 97 q 547 34 583 58 q 465 -2 510 10 q 374 -14 421 -14 q 232 15 293 -14 q 138 106 171 44 q 104 264 104 167 l 104 758 l 311 758 l 311 315 q 340 193 311 235 q 433 151 369 151 q 533 181 497 151 q 583 265 568 210 q 597 401 597 321 l 597 758 l 804 758 m 660 -154 q 675 -196 660 -182 q 714 -210 690 -210 q 757 -206 736 -210 q 792 -197 778 -201 l 792 -318 q 744 -328 769 -324 q 686 -333 719 -333 q 563 -290 608 -333 q 517 -178 517 -246 q 538 -100 517 -137 q 592 -31 558 -62 q 669 24 626 0 l 760 0 q 686 -81 713 -44 q 660 -154 660 -118 z "},"Ŵ":{"ha":1343,"x_min":0,"x_max":1343,"o":"m 1343 992 l 1090 0 l 851 0 l 717 521 q 706 567 713 536 q 692 633 700 597 q 679 702 685 669 q 671 753 674 735 q 663 702 669 735 q 650 634 657 669 q 636 567 643 599 q 625 519 629 536 l 492 0 l 253 0 l 0 992 l 207 992 l 333 450 q 346 392 339 426 q 360 322 353 358 q 373 250 367 285 q 382 190 379 215 q 390 251 385 217 q 403 320 396 285 q 416 387 410 356 q 428 436 422 418 l 572 992 l 771 992 l 915 436 q 926 387 919 418 q 940 319 933 356 q 953 249 947 283 q 961 190 958 215 q 974 273 965 225 q 992 369 982 321 q 1010 450 1003 418 l 1136 992 l 1343 992 m 793 1297 q 844 1228 813 1267 q 908 1154 875 1190 q 967 1093 942 1118 l 967 1075 l 829 1075 q 750 1127 793 1097 q 671 1194 707 1157 q 593 1128 635 1157 q 515 1075 551 1099 l 378 1075 l 378 1093 q 437 1155 404 1119 q 501 1228 469 1190 q 551 1297 532 1267 l 793 1297 z "},"ŵ":{"ha":1189,"x_min":14,"x_max":1175,"o":"m 674 265 q 658 335 668 289 q 635 435 647 382 q 611 534 622 489 q 596 600 600 579 l 590 600 q 576 534 586 579 q 553 435 565 489 q 529 335 540 382 q 513 263 518 288 l 451 0 l 229 0 l 14 758 l 219 758 l 307 422 q 324 339 317 388 q 339 245 332 290 q 349 174 346 200 l 354 174 q 360 226 356 193 q 370 293 364 258 q 381 356 376 328 q 389 394 386 385 l 482 758 l 710 758 l 799 394 q 812 332 804 375 q 826 244 819 289 q 832 174 832 200 l 838 174 q 847 242 840 197 q 863 338 854 288 q 882 422 872 388 l 972 758 l 1175 758 l 957 0 l 732 0 l 674 265 m 715 1064 q 766 995 735 1033 q 831 921 797 957 q 889 860 864 885 l 889 842 l 751 842 q 672 894 715 864 q 593 961 629 924 q 515 894 557 924 q 438 842 474 865 l 300 842 l 300 860 q 359 922 326 886 q 423 995 392 957 q 474 1064 454 1033 l 715 1064 z "},"Ŷ":{"ha":867,"x_min":0,"x_max":867,"o":"m 433 583 l 640 992 l 867 992 l 538 386 l 538 0 l 329 0 l 329 379 l 0 992 l 228 992 l 433 583 m 554 1297 q 605 1228 574 1267 q 669 1154 636 1190 q 728 1093 703 1118 l 728 1075 l 590 1075 q 511 1127 554 1097 q 432 1194 468 1157 q 354 1128 396 1157 q 276 1075 313 1099 l 139 1075 l 139 1093 q 198 1155 165 1119 q 262 1228 231 1190 q 313 1297 293 1267 l 554 1297 z "},"ŷ":{"ha":790,"x_min":0,"x_max":790,"o":"m 0 758 l 226 758 l 369 332 q 381 290 376 311 q 390 247 386 269 q 394 200 393 225 l 399 200 q 410 269 403 236 q 428 332 418 301 l 568 758 l 790 758 l 469 -97 q 394 -228 440 -175 q 286 -307 347 -281 q 153 -333 225 -333 q 92 -330 118 -333 q 47 -322 67 -326 l 47 -158 q 84 -164 63 -161 q 129 -167 106 -167 q 203 -149 172 -167 q 256 -99 235 -131 q 289 -32 276 -68 l 301 6 l 0 758 m 517 1064 q 567 995 536 1033 q 632 921 599 957 q 690 860 665 885 l 690 842 l 553 842 q 474 894 517 864 q 394 961 431 924 q 317 894 358 924 q 239 842 275 865 l 101 842 l 101 860 q 160 922 128 886 q 224 995 193 957 q 275 1064 256 1033 l 517 1064 z "},"Ÿ":{"ha":867,"x_min":0,"x_max":867,"o":"m 433 583 l 640 992 l 867 992 l 538 386 l 538 0 l 329 0 l 329 379 l 0 992 l 228 992 l 433 583 m 200 1186 q 228 1256 200 1235 q 294 1278 256 1278 q 362 1256 333 1278 q 390 1186 390 1235 q 362 1118 390 1140 q 294 1096 333 1096 q 228 1119 256 1096 q 200 1186 200 1142 m 474 1186 q 501 1256 474 1235 q 569 1278 529 1278 q 637 1256 608 1278 q 665 1186 665 1235 q 637 1118 665 1140 q 569 1096 608 1096 q 502 1119 531 1096 q 474 1186 474 1142 z "},"Ź":{"ha":804,"x_min":33,"x_max":771,"o":"m 771 0 l 33 0 l 33 136 l 508 818 l 46 818 l 46 992 l 758 992 l 758 856 l 283 174 l 771 174 l 771 0 m 703 1283 q 651 1236 683 1264 q 583 1178 619 1208 q 510 1120 546 1147 q 449 1075 475 1093 l 311 1075 l 311 1093 q 363 1155 333 1119 q 422 1228 393 1190 q 471 1297 451 1267 l 703 1297 l 703 1283 z "},"ź":{"ha":678,"x_min":38,"x_max":636,"o":"m 636 0 l 38 0 l 38 122 l 389 600 l 58 600 l 58 758 l 624 758 l 624 624 l 282 158 l 636 158 l 636 0 m 632 1050 q 581 1003 613 1031 q 512 944 549 975 q 440 887 475 914 q 378 842 404 860 l 240 842 l 240 860 q 292 922 263 886 q 351 995 322 957 q 400 1064 381 1033 l 632 1064 l 632 1050 z "},"Ż":{"ha":804,"x_min":33,"x_max":771,"o":"m 771 0 l 33 0 l 33 136 l 508 818 l 46 818 l 46 992 l 758 992 l 758 856 l 283 174 l 771 174 l 771 0 m 410 1289 q 489 1267 456 1289 q 522 1188 522 1246 q 489 1108 522 1131 q 410 1086 456 1086 q 330 1108 363 1086 q 297 1188 297 1131 q 330 1267 297 1246 q 410 1289 363 1289 z "},"ż":{"ha":678,"x_min":38,"x_max":636,"o":"m 636 0 l 38 0 l 38 122 l 389 600 l 58 600 l 58 758 l 624 758 l 624 624 l 282 158 l 636 158 l 636 0 m 339 1056 q 418 1034 385 1056 q 451 954 451 1013 q 418 875 451 897 q 339 853 385 853 q 259 875 292 853 q 226 954 226 897 q 259 1034 226 1013 q 339 1056 292 1056 z "},"Ž":{"ha":804,"x_min":33,"x_max":771,"o":"m 771 0 l 33 0 l 33 136 l 508 818 l 46 818 l 46 992 l 758 992 l 758 856 l 283 174 l 771 174 l 771 0 m 289 1075 q 238 1144 269 1107 q 174 1218 207 1182 q 115 1279 142 1254 l 115 1297 l 253 1297 q 331 1245 289 1275 q 408 1178 372 1215 q 488 1245 444 1215 q 567 1297 531 1275 l 704 1297 l 704 1279 q 646 1218 679 1254 q 581 1144 613 1182 q 531 1075 550 1107 l 289 1075 z "},"ž":{"ha":678,"x_min":38,"x_max":636,"o":"m 636 0 l 38 0 l 38 122 l 389 600 l 58 600 l 58 758 l 624 758 l 624 624 l 282 158 l 636 158 l 636 0 m 218 842 q 167 911 199 874 q 103 985 136 949 q 44 1046 71 1021 l 44 1064 l 182 1064 q 260 1012 218 1042 q 338 944 301 982 q 417 1012 374 982 q 496 1064 460 1042 l 633 1064 l 633 1046 q 575 985 608 1021 q 510 911 542 949 q 460 842 479 874 l 218 842 z "},"ſ":{"ha":532,"x_min":108,"x_max":564,"o":"m 401 899 q 335 872 354 899 q 315 806 315 846 l 315 0 l 108 0 l 108 814 q 141 965 108 911 q 234 1040 174 1018 q 375 1063 294 1063 q 488 1053 442 1063 q 564 1031 533 1043 l 515 879 q 465 892 492 886 q 401 899 438 899 z "},"ƒ":{"ha":718,"x_min":8,"x_max":781,"o":"m 260 -335 q 70 -269 132 -335 q 8 -101 8 -204 q 17 -31 8 -61 q 35 21 25 -1 l 200 -33 q 190 -69 193 -51 q 186 -106 186 -87 q 204 -162 186 -142 q 250 -182 222 -182 q 302 -157 282 -182 q 322 -83 322 -132 l 322 603 l 208 603 l 208 703 l 322 758 l 322 814 q 355 965 322 911 q 448 1040 388 1018 q 590 1063 508 1063 q 701 1053 651 1063 q 781 1031 750 1043 l 728 879 q 676 892 704 886 q 613 899 649 899 q 549 872 569 899 q 529 806 529 846 l 529 758 l 708 758 l 708 603 l 529 603 l 529 -67 q 496 -217 529 -157 q 402 -306 463 -276 q 260 -335 342 -335 z "},"Ǻ":{"ha":958,"x_min":0,"x_max":958,"o":"m 339 892 q 317 936 325 911 q 310 990 310 961 q 356 1108 310 1065 q 478 1151 403 1151 q 600 1108 550 1151 q 650 992 650 1065 q 642 936 650 961 q 618 892 633 911 l 958 0 l 733 0 l 661 224 l 299 224 l 225 0 l 0 0 l 339 892 m 344 400 l 617 400 l 547 596 q 526 658 540 618 q 498 737 511 697 q 479 799 485 776 q 465 753 475 783 q 445 691 456 724 q 426 632 435 658 q 413 596 417 606 l 344 400 m 478 926 q 526 943 510 926 q 543 990 543 960 q 524 1038 543 1021 q 478 1056 506 1056 q 430 1038 447 1056 q 413 990 413 1021 q 430 944 413 961 q 478 926 447 926 m 396 1200 q 437 1240 415 1218 q 479 1287 458 1263 q 514 1331 500 1311 l 746 1331 l 746 1322 q 710 1292 735 1310 q 652 1256 685 1275 q 588 1219 619 1236 q 533 1189 557 1201 l 396 1189 l 396 1200 z "},"ǻ":{"ha":839,"x_min":58,"x_max":735,"o":"m 419 774 q 653 708 572 774 q 735 506 735 642 l 735 0 l 590 0 l 550 103 l 544 103 q 478 36 513 63 q 401 -2 444 10 q 293 -14 357 -14 q 173 12 226 -14 q 89 91 119 38 q 58 226 58 144 q 143 405 58 347 q 397 468 228 463 l 529 472 l 529 506 q 498 593 529 565 q 411 621 467 621 q 303 605 356 621 q 197 565 250 589 l 129 706 q 265 756 190 738 q 419 774 339 774 m 449 349 q 310 313 349 346 q 271 225 271 279 q 299 158 271 178 q 371 138 326 138 q 483 177 438 138 q 529 289 529 217 l 529 351 l 449 349 m 425 1039 q 378 1022 397 1039 q 360 974 360 1004 q 376 926 360 943 q 425 908 393 908 q 472 926 453 908 q 490 974 490 943 q 472 1022 490 1004 q 425 1039 453 1039 m 425 1135 q 513 1115 474 1135 q 574 1060 551 1096 q 597 975 597 1025 q 548 856 597 899 q 425 813 499 813 q 303 856 350 813 q 257 974 257 899 q 303 1092 257 1049 q 425 1135 350 1135 m 669 1322 q 617 1281 656 1307 q 533 1231 578 1256 q 457 1189 489 1206 l 319 1189 l 319 1200 q 360 1240 339 1218 q 403 1287 382 1263 q 438 1331 424 1311 l 669 1331 l 669 1322 z "},"Ǽ":{"ha":1322,"x_min":0,"x_max":1240,"o":"m 1240 0 l 649 0 l 649 236 l 315 236 l 214 0 l 0 0 l 444 992 l 1240 992 l 1240 819 l 858 819 l 858 601 l 1215 601 l 1215 429 l 858 429 l 858 174 l 1240 174 l 1240 0 m 392 413 l 649 413 l 649 813 l 563 813 l 392 413 m 996 1283 q 944 1236 976 1264 q 876 1178 913 1208 q 803 1120 839 1147 q 742 1075 768 1093 l 604 1075 l 604 1093 q 656 1155 626 1119 q 715 1228 686 1190 q 764 1297 744 1267 l 996 1297 l 996 1283 z "},"ǽ":{"ha":1274,"x_min":58,"x_max":1214,"o":"m 890 772 q 1059 732 986 772 q 1173 615 1132 692 q 1214 428 1214 539 l 1214 328 l 724 328 q 776 190 726 240 q 913 140 825 140 q 1044 155 982 140 q 1171 200 1107 169 l 1171 40 q 1053 -1 1114 13 q 901 -14 992 -14 q 785 1 840 -14 q 685 48 729 17 q 607 126 640 79 q 526 47 567 78 q 432 1 485 15 q 300 -14 379 -14 q 180 12 235 -14 q 92 91 125 38 q 58 226 58 144 q 95 359 58 307 q 205 438 132 411 q 386 468 278 464 l 515 472 l 515 529 q 485 599 515 576 q 403 621 456 621 q 298 606 349 621 q 196 568 247 592 l 129 706 q 263 756 189 738 q 415 774 336 774 q 550 751 492 774 q 647 685 608 729 q 751 751 692 729 q 890 772 810 772 m 439 349 q 308 313 344 346 q 271 225 271 279 q 297 158 271 178 q 365 138 322 138 q 442 155 408 138 q 495 206 475 172 q 515 289 515 240 l 515 351 l 439 349 m 886 625 q 776 586 818 625 q 728 465 735 547 l 1019 465 q 1003 547 1019 511 q 958 604 988 583 q 886 625 929 625 m 940 1050 q 889 1003 921 1031 q 820 944 857 975 q 748 887 783 914 q 686 842 713 860 l 549 842 l 549 860 q 601 922 571 886 q 660 995 631 957 q 708 1064 689 1033 l 940 1064 l 940 1050 z "},"Ǿ":{"ha":1106,"x_min":81,"x_max":1025,"o":"m 1025 497 q 997 288 1025 382 q 910 126 968 194 q 763 22 853 58 q 553 -14 674 -14 q 429 -3 486 -14 q 325 31 372 8 l 264 -61 l 154 13 l 215 104 q 114 272 147 172 q 81 499 81 372 q 131 767 81 653 q 287 944 182 881 q 554 1007 392 1007 q 682 995 624 1007 q 788 960 740 983 l 844 1044 l 953 974 l 893 885 q 992 719 960 818 q 1025 497 1025 621 m 804 497 q 769 699 804 621 l 431 189 q 486 169 456 176 q 553 163 517 163 q 698 203 643 163 q 778 318 753 243 q 804 497 804 393 m 301 497 q 310 382 301 435 q 339 289 319 329 l 682 801 q 624 824 656 817 q 554 832 592 832 q 410 792 465 832 q 328 676 354 751 q 301 497 301 601 m 851 1283 q 800 1236 832 1264 q 731 1178 768 1208 q 659 1120 694 1147 q 597 1075 624 1093 l 460 1075 l 460 1093 q 512 1155 482 1119 q 571 1228 542 1190 q 619 1297 600 1267 l 851 1297 l 851 1283 z "},"ǿ":{"ha":860,"x_min":63,"x_max":797,"o":"m 797 381 q 752 166 797 254 q 624 32 707 78 q 428 -14 542 -14 q 345 -6 385 -14 q 269 17 306 3 l 224 -51 l 119 19 l 165 88 q 90 212 117 139 q 63 381 63 285 q 161 671 63 569 q 432 772 260 772 q 520 763 478 772 q 600 738 563 754 l 638 793 l 740 719 l 701 663 q 772 542 747 613 q 797 381 797 471 m 274 381 q 277 319 274 347 q 286 268 281 292 l 501 590 q 469 601 488 597 q 429 606 450 606 q 310 549 347 606 q 274 381 274 493 m 586 381 q 584 432 586 408 q 578 476 582 456 l 368 163 q 397 155 382 157 q 431 153 413 153 q 520 178 486 153 q 570 255 554 204 q 586 381 586 306 m 725 1050 q 674 1003 706 1031 q 605 944 642 975 q 533 887 568 914 q 471 842 497 860 l 333 842 l 333 860 q 385 922 356 886 q 444 995 415 957 q 493 1064 474 1033 l 725 1064 l 725 1050 z "},"Ș":{"ha":765,"x_min":64,"x_max":710,"o":"m 710 275 q 667 122 710 188 q 542 22 624 57 q 344 -14 461 -14 q 244 -7 293 -14 q 149 13 194 0 q 64 46 104 26 l 64 242 q 210 185 135 211 q 361 160 286 160 q 444 174 413 160 q 490 211 475 188 q 504 265 504 235 q 478 329 504 303 q 410 378 453 356 q 311 428 367 401 q 236 467 276 444 q 159 524 196 490 q 99 607 122 558 q 75 724 75 656 q 116 876 75 813 q 233 972 157 939 q 411 1006 308 1006 q 559 988 489 1006 q 706 936 629 969 l 638 772 q 515 815 569 800 q 404 831 461 831 q 338 818 365 831 q 295 783 310 806 q 281 731 281 761 q 301 672 281 696 q 364 625 322 647 q 468 572 406 603 q 598 497 544 536 q 681 406 651 458 q 710 275 710 353 m 489 -99 q 458 -163 475 -129 q 420 -233 440 -197 q 376 -307 400 -269 l 256 -307 l 256 -289 q 272 -225 264 -261 q 288 -151 281 -189 q 297 -85 294 -114 l 489 -85 l 489 -99 z "},"ș":{"ha":690,"x_min":63,"x_max":638,"o":"m 638 225 q 601 95 638 149 q 493 14 565 42 q 314 -14 421 -14 q 178 -3 235 -14 q 64 31 121 7 l 64 201 q 196 156 125 174 q 321 138 267 138 q 408 156 382 138 q 433 203 433 174 q 423 238 433 222 q 378 272 413 253 q 269 322 343 292 q 153 383 199 353 q 85 455 107 413 q 63 561 63 497 q 144 719 63 667 q 363 772 226 772 q 497 758 433 772 q 629 713 561 744 l 567 564 q 461 603 511 588 q 360 619 411 619 q 291 607 314 619 q 268 569 268 594 q 280 537 268 551 q 326 506 292 522 q 426 461 360 489 q 539 406 492 435 q 612 335 586 378 q 638 225 638 293 m 463 -99 q 431 -163 449 -129 q 394 -233 414 -197 q 350 -307 374 -269 l 229 -307 l 229 -289 q 246 -225 238 -261 q 261 -151 254 -189 q 271 -85 268 -114 l 463 -85 l 463 -99 z "},"ˆ":{"ha":700,"x_min":56,"x_max":644,"o":"m 471 1064 q 522 995 490 1033 q 586 921 553 957 q 644 860 619 885 l 644 842 l 507 842 q 428 894 471 864 q 349 961 385 924 q 271 894 313 924 q 193 842 229 865 l 56 842 l 56 860 q 115 922 82 886 q 178 995 147 957 q 229 1064 210 1033 l 471 1064 z "},"ˇ":{"ha":700,"x_min":56,"x_max":644,"o":"m 229 842 q 178 911 210 874 q 115 985 147 949 q 56 1046 82 1021 l 56 1064 l 193 1064 q 271 1012 229 1042 q 349 944 313 982 q 428 1012 385 982 q 507 1064 471 1042 l 644 1064 l 644 1046 q 586 985 619 1021 q 522 911 553 949 q 471 842 490 874 l 229 842 z "},"ˉ":{"ha":571,"x_min":56,"x_max":515,"o":"m 515 985 l 515 842 l 56 842 l 56 985 l 515 985 z "},"˘":{"ha":644,"x_min":56,"x_max":589,"o":"m 589 1071 q 549 952 585 1004 q 456 871 514 900 q 319 842 397 842 q 131 904 200 842 q 56 1071 61 967 l 171 1071 q 195 1014 175 1032 q 249 991 215 996 q 321 986 282 986 q 387 992 354 986 q 443 1017 419 999 q 471 1071 467 1035 l 589 1071 z "},"˙":{"ha":336,"x_min":56,"x_max":281,"o":"m 168 1056 q 247 1034 214 1056 q 281 954 281 1013 q 247 875 281 897 q 168 853 214 853 q 88 875 121 853 q 56 954 56 897 q 88 1034 56 1013 q 168 1056 121 1056 z "},"˚":{"ha":451,"x_min":56,"x_max":396,"o":"m 224 840 q 102 883 149 840 q 56 1001 56 926 q 102 1119 56 1076 q 224 1163 149 1163 q 346 1119 296 1163 q 396 1003 396 1076 q 347 883 396 926 q 224 840 297 840 m 224 936 q 270 953 251 936 q 289 1001 289 971 q 270 1049 289 1032 q 224 1067 251 1067 q 177 1049 196 1067 q 158 1001 158 1032 q 175 953 158 971 q 224 936 192 936 z "},"˛":{"ha":386,"x_min":56,"x_max":331,"o":"m 199 -154 q 214 -196 199 -182 q 253 -210 229 -210 q 296 -206 275 -210 q 331 -197 317 -201 l 331 -318 q 283 -328 308 -324 q 225 -333 258 -333 q 101 -290 147 -333 q 56 -178 56 -246 q 76 -100 56 -137 q 131 -31 97 -62 q 208 24 165 0 l 299 0 q 225 -81 251 -44 q 199 -154 199 -118 z "},"˜":{"ha":674,"x_min":56,"x_max":618,"o":"m 56 840 q 76 934 60 894 q 117 999 92 974 q 173 1038 142 1025 q 240 1050 204 1050 q 295 1040 268 1050 q 348 1015 322 1029 q 399 990 374 1000 q 449 979 424 979 q 489 997 469 979 q 517 1051 508 1015 l 618 1051 q 557 893 610 944 q 433 842 504 842 q 379 852 406 842 q 326 877 353 863 q 275 902 300 892 q 225 913 250 913 q 185 894 204 913 q 157 840 165 876 l 56 840 z "},"˝":{"ha":717,"x_min":56,"x_max":661,"o":"m 661 1050 q 624 1004 650 1032 q 563 946 597 976 q 494 888 528 915 q 435 842 460 861 l 325 842 l 325 860 q 369 922 344 886 q 418 996 394 958 q 457 1064 442 1033 l 661 1064 l 661 1050 m 392 1050 q 354 1004 381 1032 q 293 946 328 976 q 224 888 258 915 q 165 842 190 861 l 56 842 l 56 860 q 99 922 75 886 q 147 996 124 958 q 188 1064 171 1033 l 392 1064 l 392 1050 z "},"΄":{"ha":408,"x_min":56,"x_max":353,"o":"m 56 842 l 56 860 l 121 1078 l 353 1078 l 353 1064 l 194 842 l 56 842 z "},"΅":{"ha":1097,"x_min":189,"x_max":908,"o":"m 424 842 l 424 860 l 475 1078 l 707 1078 l 707 1064 l 563 842 l 424 842 m 283 863 q 217 885 244 863 q 189 953 189 908 q 217 1023 189 1001 q 283 1044 244 1044 q 351 1023 322 1044 q 379 953 379 1001 q 351 885 379 907 q 283 863 322 863 m 813 863 q 745 885 774 863 q 717 953 717 908 q 744 1023 717 1001 q 813 1044 772 1044 q 880 1023 851 1044 q 908 953 908 1001 q 880 885 908 907 q 813 863 851 863 z "},"Ά":{"ha":1111,"x_min":14,"x_max":1111,"o":"m 885 0 l 813 236 l 451 236 l 379 0 l 153 0 l 503 996 l 760 996 l 1111 0 l 885 0 m 690 643 q 672 703 683 667 q 650 776 661 739 q 632 842 639 814 q 613 773 625 814 q 591 695 601 732 q 575 643 581 658 l 504 413 l 763 413 l 690 643 m 14 756 l 14 774 l 79 992 l 311 992 l 311 978 l 153 756 l 14 756 z "},"·":{"ha":396,"x_min":79,"x_max":317,"o":"m 79 656 q 114 745 79 719 q 199 771 149 771 q 282 745 247 771 q 317 656 317 719 q 282 567 317 594 q 199 540 247 540 q 114 567 149 540 q 79 656 79 594 z "},"Έ":{"ha":1089,"x_min":14,"x_max":1007,"o":"m 1007 0 l 436 0 l 436 992 l 1007 992 l 1007 819 l 646 819 l 646 601 l 982 601 l 982 429 l 646 429 l 646 174 l 1007 174 l 1007 0 m 14 756 l 14 774 l 79 992 l 311 992 l 311 978 l 153 756 l 14 756 z "},"Ή":{"ha":1374,"x_min":14,"x_max":1249,"o":"m 1249 0 l 1039 0 l 1039 428 l 646 428 l 646 0 l 436 0 l 436 992 l 646 992 l 646 603 l 1039 603 l 1039 992 l 1249 992 l 1249 0 m 14 756 l 14 774 l 79 992 l 311 992 l 311 978 l 153 756 l 14 756 z "},"Ί":{"ha":879,"x_min":14,"x_max":835,"o":"m 835 0 l 383 0 l 383 119 l 504 175 l 504 817 l 383 872 l 383 992 l 835 992 l 835 872 l 714 817 l 714 175 l 835 119 l 835 0 m 14 756 l 14 774 l 79 992 l 311 992 l 311 978 l 153 756 l 14 756 z "},"Ό":{"ha":1347,"x_min":14,"x_max":1267,"o":"m 1267 497 q 1238 288 1267 382 q 1152 126 1210 194 q 1005 22 1094 58 q 794 -14 915 -14 q 584 23 674 -14 q 437 127 494 60 q 351 289 379 194 q 322 499 322 383 q 373 767 322 653 q 528 944 424 881 q 796 1007 633 1007 q 1061 944 957 1007 q 1216 766 1165 881 q 1267 497 1267 651 m 543 497 q 569 318 543 393 q 651 203 596 243 q 794 163 707 163 q 940 203 885 163 q 1020 318 994 243 q 1046 497 1046 393 q 988 743 1046 654 q 796 832 929 832 q 651 792 707 832 q 569 676 596 751 q 543 497 543 601 m 14 756 l 14 774 l 79 992 l 311 992 l 311 978 l 153 756 l 14 756 z "},"Ύ":{"ha":1247,"x_min":14,"x_max":1247,"o":"m 814 583 l 1021 992 l 1247 992 l 918 386 l 918 0 l 710 0 l 710 379 l 381 992 l 608 992 l 814 583 m 14 756 l 14 774 l 79 992 l 311 992 l 311 978 l 153 756 l 14 756 z "},"Ώ":{"ha":1311,"x_min":14,"x_max":1264,"o":"m 303 0 l 303 176 l 513 176 q 402 274 447 217 q 334 405 357 332 q 311 564 311 478 q 369 790 311 690 q 533 949 426 890 q 783 1007 639 1007 q 1035 949 929 1007 q 1198 790 1140 890 q 1256 563 1256 689 q 1233 404 1256 476 q 1164 274 1210 332 q 1051 176 1118 217 l 1264 176 l 1264 0 l 856 0 l 856 189 q 972 281 932 225 q 1025 403 1011 338 q 1039 535 1039 469 q 1008 694 1039 628 q 919 796 976 760 q 783 832 863 832 q 647 796 704 832 q 558 693 589 760 q 528 533 528 626 q 544 403 528 468 q 601 282 561 338 q 708 189 640 226 l 708 0 l 303 0 m 14 756 l 14 774 l 79 992 l 311 992 l 311 978 l 153 756 l 14 756 z "},"ΐ":{"ha":557,"x_min":-71,"x_max":649,"o":"m 376 -14 q 220 20 279 -14 q 135 111 161 54 q 108 238 108 168 l 108 758 l 315 758 l 315 268 q 344 176 315 200 q 415 153 374 153 q 465 156 443 153 q 513 165 488 160 l 513 3 q 450 -9 488 -4 q 376 -14 413 -14 m 164 842 l 164 860 l 215 1078 l 447 1078 l 447 1064 l 303 842 l 164 842 m 24 863 q -43 885 -15 863 q -71 953 -71 908 q -43 1023 -71 1001 q 24 1044 -15 1044 q 91 1023 63 1044 q 119 953 119 1001 q 91 885 119 907 q 24 863 63 863 m 553 863 q 485 885 514 863 q 457 953 457 908 q 485 1023 457 1001 q 553 1044 513 1044 q 620 1023 592 1044 q 649 953 649 1001 q 620 885 649 907 q 553 863 592 863 z "},"Α":{"ha":958,"x_min":0,"x_max":958,"o":"m 732 0 l 660 236 l 299 236 l 226 0 l 0 0 l 350 996 l 607 996 l 958 0 l 732 0 m 538 643 q 519 703 531 667 q 497 776 508 739 q 479 842 486 814 q 460 773 472 814 q 438 695 449 732 q 422 643 428 658 l 351 413 l 610 413 l 538 643 z "},"Β":{"ha":933,"x_min":125,"x_max":860,"o":"m 433 992 q 733 936 632 992 q 835 740 835 881 q 817 639 835 685 q 765 564 799 593 q 682 526 731 535 l 682 519 q 772 485 732 510 q 836 413 813 460 q 860 288 860 365 q 816 133 860 197 q 690 34 772 68 q 496 0 608 0 l 125 0 l 125 992 l 433 992 m 457 599 q 584 628 549 599 q 619 713 619 657 q 578 794 619 769 q 446 819 536 819 l 335 819 l 335 599 l 457 599 m 335 432 l 335 174 l 472 174 q 604 210 567 174 q 642 308 642 247 q 626 374 642 346 q 571 417 610 401 q 465 432 532 432 l 335 432 z "},"Γ":{"ha":735,"x_min":125,"x_max":665,"o":"m 125 0 l 125 992 l 665 992 l 665 819 l 332 819 l 332 0 l 125 0 z "},"Δ":{"ha":932,"x_min":14,"x_max":918,"o":"m 14 0 l 14 114 l 336 996 l 593 996 l 918 110 l 918 0 l 14 0 m 256 176 l 675 176 l 526 643 q 508 703 519 667 q 484 776 496 739 q 465 842 472 814 q 446 773 458 814 q 422 695 433 732 q 406 643 411 658 l 256 176 z "},"Ε":{"ha":778,"x_min":125,"x_max":696,"o":"m 696 0 l 125 0 l 125 992 l 696 992 l 696 819 l 335 819 l 335 601 l 671 601 l 671 429 l 335 429 l 335 174 l 696 174 l 696 0 z "},"Ζ":{"ha":804,"x_min":33,"x_max":771,"o":"m 771 0 l 33 0 l 33 136 l 508 818 l 46 818 l 46 992 l 758 992 l 758 856 l 283 174 l 771 174 l 771 0 z "},"Η":{"ha":1063,"x_min":125,"x_max":938,"o":"m 938 0 l 728 0 l 728 428 l 335 428 l 335 0 l 125 0 l 125 992 l 335 992 l 335 603 l 728 603 l 728 992 l 938 992 l 938 0 z "},"Θ":{"ha":1106,"x_min":81,"x_max":1025,"o":"m 376 418 l 376 590 l 729 590 l 729 418 l 376 418 m 1025 497 q 997 288 1025 382 q 910 126 968 194 q 763 22 853 58 q 553 -14 674 -14 q 342 23 432 -14 q 195 127 253 60 q 109 289 138 194 q 81 499 81 383 q 131 767 81 653 q 287 944 182 881 q 554 1007 392 1007 q 819 944 715 1007 q 974 766 924 881 q 1025 497 1025 651 m 301 497 q 328 318 301 393 q 410 203 354 243 q 553 163 465 163 q 698 203 643 163 q 778 318 753 243 q 804 497 804 393 q 746 743 804 654 q 554 832 688 832 q 410 792 465 832 q 328 676 354 751 q 301 497 301 601 z "},"Ι":{"ha":540,"x_min":44,"x_max":496,"o":"m 496 0 l 44 0 l 44 119 l 165 175 l 165 817 l 44 872 l 44 992 l 496 992 l 496 872 l 375 817 l 375 175 l 496 119 l 496 0 z "},"Κ":{"ha":922,"x_min":125,"x_max":922,"o":"m 922 0 l 683 0 l 424 418 l 335 354 l 335 0 l 125 0 l 125 992 l 335 992 l 335 538 q 376 596 356 567 q 418 654 397 625 l 686 992 l 919 992 l 574 553 l 922 0 z "},"Λ":{"ha":931,"x_min":0,"x_max":931,"o":"m 0 0 l 336 996 l 593 996 l 931 0 l 704 0 l 518 643 q 501 703 511 667 q 482 776 492 739 q 465 842 472 814 q 448 773 458 814 q 428 695 438 732 q 414 643 419 658 l 226 0 l 0 0 z "},"Μ":{"ha":1310,"x_min":125,"x_max":1185,"o":"m 544 0 l 306 778 l 300 778 q 304 694 301 750 q 310 576 307 639 q 313 461 313 513 l 313 0 l 125 0 l 125 992 l 411 992 l 646 233 l 650 233 l 899 992 l 1185 992 l 1185 0 l 989 0 l 989 469 q 991 578 989 517 q 995 694 993 639 q 999 776 997 749 l 993 776 l 738 0 l 544 0 z "},"Ν":{"ha":1129,"x_min":125,"x_max":1004,"o":"m 1004 0 l 738 0 l 306 750 l 300 750 q 305 656 303 703 q 309 561 307 608 q 313 467 311 514 l 313 0 l 125 0 l 125 992 l 390 992 l 821 249 l 825 249 q 822 340 824 294 q 819 431 821 386 q 815 522 817 476 l 815 992 l 1004 992 l 1004 0 z "},"Ξ":{"ha":869,"x_min":82,"x_max":788,"o":"m 82 0 l 82 175 l 788 175 l 788 0 l 82 0 m 165 429 l 165 604 l 704 604 l 704 429 l 165 429 m 110 817 l 110 992 l 760 992 l 760 817 l 110 817 z "},"Ο":{"ha":1106,"x_min":81,"x_max":1025,"o":"m 1025 497 q 997 288 1025 382 q 910 126 968 194 q 763 22 853 58 q 553 -14 674 -14 q 342 23 432 -14 q 195 127 253 60 q 109 289 138 194 q 81 499 81 383 q 131 767 81 653 q 287 944 182 881 q 554 1007 392 1007 q 819 944 715 1007 q 974 766 924 881 q 1025 497 1025 651 m 301 497 q 328 318 301 393 q 410 203 354 243 q 553 163 465 163 q 698 203 643 163 q 778 318 753 243 q 804 497 804 393 q 746 743 804 654 q 554 832 688 832 q 410 792 465 832 q 328 676 354 751 q 301 497 301 601 z "},"Π":{"ha":1049,"x_min":125,"x_max":924,"o":"m 125 0 l 125 992 l 924 992 l 924 0 l 714 0 l 714 817 l 335 817 l 335 0 l 125 0 z "},"Ρ":{"ha":872,"x_min":125,"x_max":810,"o":"m 442 992 q 722 909 633 992 q 810 682 810 826 q 790 558 810 617 q 726 452 771 499 q 607 379 681 406 q 425 353 533 353 l 335 353 l 335 0 l 125 0 l 125 992 l 442 992 m 431 819 l 335 819 l 335 525 l 404 525 q 507 540 464 525 q 574 589 550 556 q 597 675 597 622 q 557 784 597 749 q 431 819 517 819 z "},"Σ":{"ha":804,"x_min":33,"x_max":771,"o":"m 33 0 l 33 165 l 339 519 l 46 836 l 46 992 l 758 992 l 758 819 l 432 819 q 370 821 404 819 q 297 826 336 822 l 546 551 l 546 499 l 256 165 q 345 172 304 169 q 433 174 386 174 l 771 174 l 771 0 l 33 0 z "},"Τ":{"ha":804,"x_min":28,"x_max":776,"o":"m 507 0 l 297 0 l 297 817 l 28 817 l 28 992 l 776 992 l 776 817 l 507 817 l 507 0 z "},"Υ":{"ha":867,"x_min":0,"x_max":867,"o":"m 433 583 l 640 992 l 867 992 l 538 386 l 538 0 l 329 0 l 329 379 l 0 992 l 228 992 l 433 583 z "},"Φ":{"ha":1258,"x_min":67,"x_max":1192,"o":"m 535 -14 l 535 125 q 300 165 392 128 q 157 260 208 201 q 86 385 106 318 q 67 514 67 451 q 89 653 67 586 q 164 775 111 721 q 307 862 217 829 q 535 897 397 894 l 535 1006 l 724 1006 l 724 897 q 951 862 861 894 q 1094 775 1042 829 q 1169 653 1147 721 q 1192 514 1192 586 q 1171 384 1192 451 q 1099 259 1150 317 q 957 165 1049 201 q 724 125 865 128 l 724 -14 l 535 -14 m 535 288 l 535 733 q 365 699 424 729 q 285 620 307 668 q 264 515 264 572 q 288 403 264 453 q 370 322 311 353 q 535 288 429 292 m 724 288 q 888 322 829 292 q 971 403 947 353 q 994 515 994 453 q 973 620 994 572 q 893 699 951 668 q 724 733 835 729 l 724 288 z "},"Χ":{"ha":926,"x_min":0,"x_max":926,"o":"m 926 0 l 686 0 l 456 375 l 225 0 l 0 0 l 329 511 l 21 992 l 253 992 l 467 635 l 676 992 l 903 992 l 592 500 l 926 0 z "},"Ψ":{"ha":1222,"x_min":118,"x_max":1104,"o":"m 517 0 l 517 254 q 340 283 415 254 q 216 363 265 311 q 142 488 167 415 q 118 650 118 561 l 118 992 l 315 992 l 315 639 q 340 511 315 558 q 410 444 364 464 q 517 424 456 424 l 517 992 l 706 992 l 706 424 q 806 443 760 424 q 879 509 851 463 q 907 636 907 556 l 907 992 l 1104 992 l 1104 653 q 1059 441 1104 531 q 925 303 1014 351 q 706 254 836 254 l 706 0 l 517 0 z "},"Ω":{"ha":1056,"x_min":47,"x_max":1008,"o":"m 47 0 l 47 176 l 257 176 q 147 274 192 217 q 78 405 101 332 q 56 564 56 478 q 113 790 56 690 q 277 949 171 890 q 528 1007 383 1007 q 779 949 674 1007 q 942 790 885 890 q 1000 563 1000 689 q 977 404 1000 476 q 908 274 954 332 q 796 176 863 217 l 1008 176 l 1008 0 l 600 0 l 600 189 q 716 281 676 225 q 769 403 756 338 q 783 535 783 469 q 752 694 783 628 q 664 796 721 760 q 528 832 607 832 q 391 796 449 832 q 303 693 333 760 q 272 533 272 626 q 289 403 272 468 q 345 282 306 338 q 453 189 385 226 l 453 0 l 47 0 z "},"Ϊ":{"ha":540,"x_min":38,"x_max":503,"o":"m 496 0 l 44 0 l 44 119 l 165 175 l 165 817 l 44 872 l 44 992 l 496 992 l 496 872 l 375 817 l 375 175 l 496 119 l 496 0 m 38 1186 q 65 1256 38 1235 q 132 1278 93 1278 q 199 1256 171 1278 q 228 1186 228 1235 q 199 1118 228 1140 q 132 1096 171 1096 q 65 1119 93 1096 q 38 1186 38 1142 m 311 1186 q 339 1256 311 1235 q 407 1278 367 1278 q 474 1256 446 1278 q 503 1186 503 1235 q 474 1118 503 1140 q 407 1096 446 1096 q 340 1119 368 1096 q 311 1186 311 1142 z "},"Ϋ":{"ha":867,"x_min":0,"x_max":867,"o":"m 433 583 l 640 992 l 867 992 l 538 386 l 538 0 l 329 0 l 329 379 l 0 992 l 228 992 l 433 583 m 200 1186 q 228 1256 200 1235 q 294 1278 256 1278 q 362 1256 333 1278 q 390 1186 390 1235 q 362 1118 390 1140 q 294 1096 333 1096 q 228 1119 256 1096 q 200 1186 200 1142 m 474 1186 q 501 1256 474 1235 q 569 1278 529 1278 q 637 1256 608 1278 q 665 1186 665 1235 q 637 1118 665 1140 q 569 1096 608 1096 q 502 1119 531 1096 q 474 1186 474 1142 z "},"ά":{"ha":913,"x_min":63,"x_max":868,"o":"m 346 -14 q 193 34 257 -14 q 96 170 129 82 q 63 376 63 258 q 142 672 63 571 q 353 772 221 772 q 448 758 407 772 q 519 718 489 743 q 572 661 550 693 l 578 661 l 596 758 l 771 758 l 771 240 q 788 176 771 193 q 828 160 806 160 q 850 163 838 160 q 868 167 863 165 l 868 4 q 844 -4 861 0 q 809 -11 828 -8 q 775 -14 790 -14 q 663 11 706 -14 q 596 100 619 36 l 582 100 q 528 43 561 69 q 449 1 494 17 q 346 -14 403 -14 m 422 149 q 513 172 479 149 q 563 245 547 196 q 578 369 578 294 l 578 378 q 544 547 578 489 q 419 604 510 604 q 310 546 346 604 q 274 375 274 488 q 310 206 274 264 q 422 149 346 149 m 365 842 l 365 860 l 431 1078 l 663 1078 l 663 1064 l 504 842 l 365 842 z "},"έ":{"ha":700,"x_min":49,"x_max":657,"o":"m 385 -14 q 133 47 218 -14 q 49 210 49 108 q 69 302 49 265 q 128 360 90 339 q 217 392 165 382 l 217 399 q 117 457 150 415 q 85 560 85 499 q 117 672 85 624 q 217 746 150 719 q 385 772 283 772 q 531 758 457 772 q 657 711 604 743 l 600 565 q 497 608 543 596 q 400 619 450 619 q 308 598 338 619 q 279 536 279 576 q 309 478 279 496 q 399 461 339 461 l 511 461 l 511 313 l 400 313 q 318 303 349 313 q 274 276 288 294 q 260 228 260 257 q 298 161 260 182 q 410 140 336 140 q 524 155 474 140 q 633 206 575 169 l 633 43 q 526 0 583 14 q 385 -14 469 -14 m 328 842 l 328 860 l 393 1078 l 625 1078 l 625 1064 l 467 842 l 328 842 z "},"ή":{"ha":899,"x_min":108,"x_max":794,"o":"m 588 -333 l 588 443 q 559 566 588 525 q 469 607 531 607 q 377 578 411 607 q 329 493 343 549 q 315 357 315 438 l 315 0 l 108 0 l 108 758 l 267 758 l 294 661 l 306 661 q 365 724 331 700 q 440 760 399 749 q 529 772 482 772 q 668 743 608 772 q 761 653 728 714 q 794 494 794 592 l 794 -333 l 588 -333 m 332 842 l 332 860 l 397 1078 l 629 1078 l 629 1064 l 471 842 l 332 842 z "},"ί":{"ha":557,"x_min":108,"x_max":513,"o":"m 376 -14 q 220 20 279 -14 q 135 111 161 54 q 108 238 108 168 l 108 758 l 315 758 l 315 268 q 344 176 315 200 q 415 153 374 153 q 465 156 443 153 q 513 165 488 160 l 513 3 q 450 -9 488 -4 q 376 -14 413 -14 m 157 842 l 157 860 l 222 1078 l 454 1078 l 454 1064 l 296 842 l 157 842 z "},"ΰ":{"ha":885,"x_min":104,"x_max":867,"o":"m 432 -12 q 272 13 335 -12 q 172 84 208 38 q 119 194 135 131 q 104 332 104 257 l 104 758 l 311 758 l 311 325 q 324 222 311 260 q 366 168 338 183 q 439 153 394 153 q 528 178 493 153 q 578 263 563 204 q 594 417 594 321 q 581 587 594 507 q 546 758 568 667 l 754 758 q 780 644 769 699 q 796 533 790 589 q 801 411 801 476 q 710 90 801 193 q 432 -12 618 -12 m 382 842 l 382 860 l 433 1078 l 665 1078 l 665 1064 l 521 842 l 382 842 m 242 863 q 175 885 203 863 q 147 953 147 908 q 175 1023 147 1001 q 242 1044 203 1044 q 309 1023 281 1044 q 338 953 338 1001 q 309 885 338 907 q 242 863 281 863 m 771 863 q 703 885 732 863 q 675 953 675 908 q 703 1023 675 1001 q 771 1044 731 1044 q 838 1023 810 1044 q 867 953 867 1001 q 838 885 867 907 q 771 863 810 863 z "},"α":{"ha":913,"x_min":63,"x_max":868,"o":"m 346 -14 q 193 34 257 -14 q 96 170 129 82 q 63 376 63 258 q 142 672 63 571 q 353 772 221 772 q 448 758 407 772 q 519 718 489 743 q 572 661 550 693 l 578 661 l 596 758 l 771 758 l 771 240 q 788 176 771 193 q 828 160 806 160 q 850 163 838 160 q 868 167 863 165 l 868 4 q 844 -4 861 0 q 809 -11 828 -8 q 775 -14 790 -14 q 663 11 706 -14 q 596 100 619 36 l 582 100 q 528 43 561 69 q 449 1 494 17 q 346 -14 403 -14 m 422 149 q 513 172 479 149 q 563 245 547 196 q 578 369 578 294 l 578 378 q 544 547 578 489 q 419 604 510 604 q 310 546 346 604 q 274 375 274 488 q 310 206 274 264 q 422 149 346 149 z "},"β":{"ha":879,"x_min":108,"x_max":817,"o":"m 108 -333 l 108 733 q 149 919 108 846 q 266 1027 190 992 q 444 1063 342 1063 q 615 1033 544 1063 q 724 944 686 1003 q 763 796 763 885 q 740 681 763 729 q 676 603 717 632 q 578 563 635 574 l 578 558 q 703 518 650 549 q 787 433 757 488 q 817 293 817 378 q 773 127 817 196 q 656 22 729 58 q 494 -14 583 -14 q 421 -9 450 -14 q 367 6 392 -4 q 315 29 343 15 l 315 -333 l 108 -333 m 456 151 q 564 194 525 151 q 603 311 603 236 q 580 403 603 368 q 522 455 557 439 q 450 471 488 471 l 388 471 l 388 626 l 438 626 q 501 645 475 626 q 542 697 528 664 q 556 771 556 729 q 522 869 556 836 q 443 901 489 901 q 375 885 404 901 q 331 831 346 868 q 315 732 315 794 l 315 199 q 383 164 350 176 q 456 151 417 151 z "},"γ":{"ha":782,"x_min":0,"x_max":740,"o":"m 264 -292 l 264 18 l 0 758 l 213 758 l 346 338 q 362 288 353 317 q 379 231 371 258 q 393 183 388 203 l 399 183 q 474 336 444 253 q 518 523 504 419 q 532 758 532 626 l 740 758 q 717 485 740 611 q 634 244 693 358 q 471 14 575 129 l 471 -292 l 264 -292 z "},"δ":{"ha":846,"x_min":49,"x_max":783,"o":"m 413 -14 q 225 25 307 -14 q 96 136 143 64 q 49 310 49 208 q 83 468 49 404 q 171 573 117 532 q 285 638 225 614 q 220 685 250 657 q 173 751 190 713 q 156 842 156 790 q 194 959 156 910 q 299 1035 232 1008 q 454 1063 367 1063 q 568 1052 514 1063 q 669 1019 622 1042 q 754 958 717 996 l 676 819 q 572 890 628 867 q 464 913 517 913 q 399 901 424 913 q 365 871 375 889 q 356 835 356 853 q 374 785 356 806 q 426 746 393 764 q 506 704 460 728 q 668 597 607 653 q 756 477 729 542 q 783 333 783 413 q 738 140 783 217 q 608 24 692 63 q 413 -14 525 -14 m 418 153 q 503 176 468 153 q 557 242 539 200 q 575 336 575 283 q 557 428 575 388 q 505 499 539 468 q 425 553 471 531 q 355 518 386 539 q 302 471 324 497 q 269 410 281 444 q 257 332 257 375 q 276 236 257 276 q 333 174 296 196 q 418 153 369 153 z "},"ε":{"ha":700,"x_min":49,"x_max":657,"o":"m 385 -14 q 133 47 218 -14 q 49 210 49 108 q 69 302 49 265 q 128 360 90 339 q 217 392 165 382 l 217 399 q 117 457 150 415 q 85 560 85 499 q 117 672 85 624 q 217 746 150 719 q 385 772 283 772 q 531 758 457 772 q 657 711 604 743 l 600 565 q 497 608 543 596 q 400 619 450 619 q 308 598 338 619 q 279 536 279 576 q 309 478 279 496 q 399 461 339 461 l 511 461 l 511 313 l 400 313 q 318 303 349 313 q 274 276 288 294 q 260 228 260 257 q 298 161 260 182 q 410 140 336 140 q 524 155 474 140 q 633 206 575 169 l 633 43 q 526 0 583 14 q 385 -14 469 -14 z "},"ζ":{"ha":674,"x_min":63,"x_max":672,"o":"m 401 -281 q 449 -182 432 -228 q 465 -106 465 -136 q 456 -60 465 -76 q 418 -33 446 -44 q 336 -8 390 -21 q 183 52 243 15 q 92 144 122 89 q 63 278 63 200 q 103 457 63 372 q 209 625 143 542 q 349 797 275 708 l 443 911 q 396 904 425 907 q 338 901 367 901 q 290 900 308 900 l 93 900 l 93 1056 l 672 1056 l 672 925 l 492 700 q 372 544 421 611 q 299 421 324 476 q 274 313 274 365 q 290 244 274 274 q 343 194 306 215 q 447 157 381 174 q 580 112 532 138 q 647 48 628 86 q 667 -49 667 10 q 658 -126 667 -89 q 635 -202 650 -164 q 597 -281 619 -240 l 401 -281 z "},"η":{"ha":899,"x_min":108,"x_max":794,"o":"m 588 -333 l 588 443 q 559 566 588 525 q 469 607 531 607 q 377 578 411 607 q 329 493 343 549 q 315 357 315 438 l 315 0 l 108 0 l 108 758 l 267 758 l 294 661 l 306 661 q 365 724 331 700 q 440 760 399 749 q 529 772 482 772 q 668 743 608 772 q 761 653 728 714 q 794 494 794 592 l 794 -333 l 588 -333 z "},"θ":{"ha":846,"x_min":63,"x_max":783,"o":"m 422 -14 q 222 51 301 -14 q 102 236 142 115 q 63 525 63 357 q 99 815 63 694 q 214 999 135 935 q 422 1063 293 1063 q 623 999 543 1063 q 743 816 703 936 q 783 525 783 696 q 747 236 783 357 q 632 51 711 115 q 422 -14 553 -14 m 422 139 q 507 169 474 139 q 557 268 540 200 q 575 449 574 336 l 269 449 q 287 270 271 339 q 336 170 303 201 q 422 139 369 139 m 271 604 l 575 604 q 555 781 572 714 q 506 879 538 849 q 424 910 474 910 q 340 879 372 910 q 291 781 307 849 q 271 604 275 714 z "},"ι":{"ha":557,"x_min":108,"x_max":513,"o":"m 376 -14 q 220 20 279 -14 q 135 111 161 54 q 108 238 108 168 l 108 758 l 315 758 l 315 268 q 344 176 315 200 q 415 153 374 153 q 465 156 443 153 q 513 165 488 160 l 513 3 q 450 -9 488 -4 q 376 -14 413 -14 z "},"κ":{"ha":861,"x_min":108,"x_max":861,"o":"m 843 758 l 544 411 l 861 0 l 625 0 l 413 289 l 315 228 l 315 0 l 108 0 l 108 758 l 315 758 l 315 560 q 314 476 314 518 q 311 394 314 435 l 314 394 q 361 452 338 424 q 410 510 385 481 l 622 758 l 843 758 z "},"λ":{"ha":797,"x_min":0,"x_max":797,"o":"m 678 -14 q 587 6 622 -14 q 531 60 551 25 q 494 140 510 94 l 435 325 q 416 381 426 353 q 396 440 406 410 q 380 499 386 469 q 371 558 374 529 l 367 558 q 351 447 363 497 q 319 329 339 396 l 226 0 l 0 0 l 274 753 l 258 797 q 195 879 236 863 q 100 896 154 896 q 57 893 76 896 q 24 888 38 890 l 24 1051 q 53 1057 36 1054 q 92 1061 71 1060 q 136 1063 113 1063 q 272 1044 215 1063 q 370 981 329 1026 q 443 850 411 935 l 650 297 q 687 210 672 240 q 716 170 701 181 q 750 160 731 160 q 775 162 765 160 q 797 167 785 164 l 797 7 q 765 -3 786 1 q 719 -11 743 -8 q 678 -14 696 -14 z "},"μ":{"ha":943,"x_min":108,"x_max":899,"o":"m 108 -333 l 108 758 l 315 758 l 315 315 q 345 193 315 235 q 439 151 375 151 q 560 216 526 151 q 594 401 594 281 l 594 758 l 801 758 l 801 240 q 819 176 801 193 q 858 160 836 160 q 881 163 868 160 q 899 167 893 165 l 899 4 q 875 -4 892 0 q 840 -11 858 -8 q 806 -14 821 -14 q 691 12 736 -14 q 622 101 646 38 l 613 101 q 568 38 594 64 q 510 -1 542 13 q 443 -14 479 -14 q 368 2 401 -14 q 313 47 335 18 l 308 47 q 313 3 311 33 q 315 -59 314 -26 q 315 -117 315 -92 l 315 -333 l 108 -333 z "},"ν":{"ha":782,"x_min":0,"x_max":740,"o":"m 271 0 l 0 758 l 213 758 l 346 338 q 362 288 353 317 q 379 231 371 258 q 393 183 388 203 l 399 183 q 474 336 444 253 q 518 523 504 419 q 532 758 532 626 l 740 758 q 715 480 740 608 q 628 234 690 351 q 457 0 567 117 l 271 0 z "},"ξ":{"ha":729,"x_min":63,"x_max":686,"o":"m 415 -281 q 462 -184 444 -228 q 479 -106 479 -140 q 469 -59 479 -75 q 431 -32 458 -43 q 351 -8 403 -21 q 200 49 265 13 q 99 142 135 85 q 63 283 63 199 q 85 403 63 351 q 153 492 107 456 q 268 549 199 528 l 268 556 q 178 590 214 567 q 124 647 142 613 q 106 728 106 682 q 126 812 106 778 q 190 869 147 846 q 301 908 233 893 q 232 905 269 907 q 165 901 194 903 q 122 900 135 900 l 107 900 l 107 1056 l 686 1056 l 686 908 l 635 908 q 500 903 560 908 q 397 882 440 897 q 332 835 354 867 q 310 754 310 804 q 326 687 310 715 q 385 642 343 658 q 499 626 426 626 l 650 626 l 650 471 l 497 471 q 369 454 419 471 q 297 402 319 438 q 274 311 274 367 q 297 222 274 251 q 364 181 321 193 q 465 156 407 168 q 601 108 556 138 q 664 42 647 79 q 681 -37 681 4 q 674 -119 681 -79 q 651 -198 667 -158 q 611 -281 636 -237 l 415 -281 z "},"ο":{"ha":860,"x_min":63,"x_max":797,"o":"m 797 381 q 772 213 797 286 q 698 88 746 139 q 582 12 650 38 q 428 -14 514 -14 q 281 12 349 -14 q 165 88 214 38 q 90 213 117 139 q 63 381 63 286 q 107 594 63 507 q 235 726 151 681 q 432 772 318 772 q 621 726 539 772 q 750 594 703 681 q 797 381 797 507 m 274 381 q 290 255 274 306 q 340 178 306 204 q 431 153 375 153 q 520 178 486 153 q 570 255 554 204 q 586 381 586 306 q 570 506 586 456 q 519 581 554 556 q 429 606 485 606 q 310 549 347 606 q 274 381 274 493 z "},"π":{"ha":1038,"x_min":32,"x_max":993,"o":"m 835 -14 q 683 39 739 -14 q 626 208 626 92 l 626 603 l 397 603 l 397 0 l 190 0 l 190 603 l 32 603 l 32 758 l 993 758 l 993 603 l 833 603 l 833 217 q 852 165 833 182 q 897 149 871 149 q 943 156 921 149 q 985 172 965 163 l 985 24 q 919 -2 961 10 q 835 -14 878 -14 z "},"ρ":{"ha":858,"x_min":88,"x_max":796,"o":"m 88 -333 l 88 381 q 129 593 88 506 q 249 726 171 681 q 436 772 328 772 q 626 726 546 772 q 751 592 707 681 q 796 372 796 503 q 749 160 796 246 q 628 30 701 74 q 474 -14 554 -14 q 378 1 421 -14 q 297 39 335 17 l 285 39 q 292 -46 288 7 q 296 -143 296 -99 l 296 -333 l 88 -333 m 444 153 q 518 176 486 153 q 567 247 550 199 q 585 372 585 296 q 545 552 585 499 q 432 606 506 606 q 329 556 363 606 q 296 390 296 506 l 296 211 q 365 167 325 182 q 444 153 404 153 z "},"σ":{"ha":910,"x_min":63,"x_max":851,"o":"m 421 -14 q 231 36 311 -14 q 106 173 150 86 q 63 369 63 260 q 112 595 63 510 q 250 720 161 681 q 457 760 339 760 l 851 760 l 851 603 l 678 603 q 738 529 715 568 q 772 447 761 490 q 782 350 782 403 q 761 225 782 289 q 697 107 740 161 q 584 19 653 53 q 421 -14 515 -14 m 424 153 q 510 181 478 153 q 558 259 543 210 q 572 368 572 308 q 565 469 572 425 q 541 547 557 514 q 500 603 525 581 l 463 603 q 363 582 406 603 q 297 510 319 561 q 274 369 274 460 q 288 256 274 304 q 335 180 303 207 q 424 153 368 153 z "},"τ":{"ha":757,"x_min":32,"x_max":699,"o":"m 472 -14 q 345 8 401 -14 q 256 85 289 31 q 222 238 222 140 l 222 603 l 32 603 l 32 758 l 699 758 l 699 603 l 429 603 l 429 238 q 440 189 429 208 q 472 160 451 169 q 519 151 493 151 q 586 158 554 151 q 650 175 618 165 l 650 21 q 573 -3 619 7 q 472 -14 526 -14 z "},"υ":{"ha":885,"x_min":104,"x_max":801,"o":"m 432 -12 q 272 13 335 -12 q 172 84 208 38 q 119 194 135 131 q 104 332 104 257 l 104 758 l 311 758 l 311 325 q 324 222 311 260 q 366 168 338 183 q 439 153 394 153 q 528 178 493 153 q 578 263 563 204 q 594 417 594 321 q 581 587 594 507 q 546 758 568 667 l 754 758 q 780 644 769 699 q 796 533 790 589 q 801 411 801 476 q 710 90 801 193 q 432 -12 618 -12 z "},"φ":{"ha":1131,"x_min":63,"x_max":1068,"o":"m 471 -333 l 471 -6 q 249 58 340 7 q 110 191 158 108 q 63 379 63 274 q 106 571 63 488 q 241 704 150 654 q 471 763 332 754 l 471 1056 l 663 1056 l 663 763 q 885 701 794 751 q 1022 568 975 650 q 1068 379 1068 486 q 1023 190 1068 274 q 888 56 978 107 q 663 -6 799 6 l 663 -333 l 471 -333 m 471 144 l 471 614 q 367 574 411 606 q 299 493 322 543 q 275 379 275 443 q 298 264 275 314 q 365 183 321 214 q 471 144 408 153 m 663 144 q 768 183 725 153 q 833 264 811 214 q 856 379 856 314 q 804 538 856 475 q 663 611 753 600 l 663 144 z "},"χ":{"ha":864,"x_min":7,"x_max":871,"o":"m 739 -333 q 641 -314 678 -333 q 576 -251 604 -294 q 511 -135 549 -207 l 188 506 q 140 575 163 556 q 85 594 117 594 q 51 592 71 594 q 7 582 31 589 l 7 747 q 59 762 33 756 q 126 768 85 768 q 218 750 181 768 q 286 695 256 732 q 347 599 317 658 l 694 -81 q 725 -127 710 -110 q 759 -152 740 -144 q 803 -160 778 -160 q 833 -158 818 -160 q 871 -151 849 -157 l 871 -312 q 832 -324 851 -319 q 790 -331 813 -329 q 739 -333 768 -333 m 15 -335 l 364 243 l 446 63 l 224 -335 l 15 -335 m 511 133 l 429 314 l 663 758 l 871 758 l 511 133 z "},"ψ":{"ha":1151,"x_min":104,"x_max":1068,"o":"m 485 -333 l 485 -12 q 284 27 369 -8 q 151 143 199 63 q 104 363 104 224 l 104 758 l 296 758 l 296 357 q 313 235 296 279 q 370 171 329 190 q 485 146 411 151 l 485 1056 l 676 1056 l 676 147 q 794 178 750 154 q 858 254 839 203 q 878 392 878 306 q 863 572 878 483 q 824 758 847 661 l 1015 758 q 1056 572 1043 661 q 1068 390 1068 482 q 1017 162 1068 249 q 878 35 967 75 q 676 -12 790 -6 l 676 -333 l 485 -333 z "},"ω":{"ha":1204,"x_min":76,"x_max":1128,"o":"m 382 -14 q 213 35 281 -14 q 110 170 144 83 q 76 368 76 257 q 115 604 76 507 q 208 758 153 701 l 393 758 q 330 665 358 721 q 284 537 301 610 q 267 375 267 464 q 298 210 267 274 q 399 147 329 147 q 464 167 440 147 q 497 225 488 188 q 507 317 507 263 l 507 517 l 697 517 l 697 317 q 707 225 697 263 q 740 167 717 188 q 806 147 764 147 q 881 176 853 147 q 924 256 910 204 q 938 372 938 307 q 922 530 938 458 q 879 659 907 601 q 811 758 851 717 l 996 758 q 1067 658 1038 715 q 1113 530 1097 601 q 1128 368 1128 458 q 1094 170 1128 257 q 992 35 1060 83 q 822 -14 924 -14 q 683 26 733 -14 q 606 143 632 67 l 599 143 q 553 58 582 93 q 483 4 525 22 q 382 -14 442 -14 z "},"ϊ":{"ha":557,"x_min":-19,"x_max":513,"o":"m 376 -14 q 220 20 279 -14 q 135 111 161 54 q 108 238 108 168 l 108 758 l 315 758 l 315 268 q 344 176 315 200 q 415 153 374 153 q 465 156 443 153 q 513 165 488 160 l 513 3 q 450 -9 488 -4 q 376 -14 413 -14 m -19 953 q 8 1023 -19 1001 q 75 1044 36 1044 q 142 1023 114 1044 q 171 953 171 1001 q 142 885 171 907 q 75 863 114 863 q 8 885 36 863 q -19 953 -19 908 m 254 953 q 282 1023 254 1001 q 350 1044 310 1044 q 417 1023 389 1044 q 446 953 446 1001 q 417 885 446 907 q 350 863 389 863 q 283 885 311 863 q 254 953 254 908 z "},"ϋ":{"ha":885,"x_min":104,"x_max":801,"o":"m 432 -12 q 272 13 335 -12 q 172 84 208 38 q 119 194 135 131 q 104 332 104 257 l 104 758 l 311 758 l 311 325 q 324 222 311 260 q 366 168 338 183 q 439 153 394 153 q 528 178 493 153 q 578 263 563 204 q 594 417 594 321 q 581 587 594 507 q 546 758 568 667 l 754 758 q 780 644 769 699 q 796 533 790 589 q 801 411 801 476 q 710 90 801 193 q 432 -12 618 -12 m 199 953 q 226 1023 199 1001 q 293 1044 254 1044 q 360 1023 332 1044 q 389 953 389 1001 q 360 885 389 907 q 293 863 332 863 q 226 885 254 863 q 199 953 199 908 m 472 953 q 500 1023 472 1001 q 568 1044 528 1044 q 635 1023 607 1044 q 664 953 664 1001 q 635 885 664 907 q 568 863 607 863 q 501 885 529 863 q 472 953 472 908 z "},"ό":{"ha":860,"x_min":63,"x_max":797,"o":"m 797 381 q 772 213 797 286 q 698 88 746 139 q 582 12 650 38 q 428 -14 514 -14 q 281 12 349 -14 q 165 88 214 38 q 90 213 117 139 q 63 381 63 286 q 107 594 63 507 q 235 726 151 681 q 432 772 318 772 q 621 726 539 772 q 750 594 703 681 q 797 381 797 507 m 274 381 q 290 255 274 306 q 340 178 306 204 q 431 153 375 153 q 520 178 486 153 q 570 255 554 204 q 586 381 586 306 q 570 506 586 456 q 519 581 554 556 q 429 606 485 606 q 310 549 347 606 q 274 381 274 493 m 374 842 l 374 860 l 439 1078 l 671 1078 l 671 1064 l 513 842 l 374 842 z "},"ύ":{"ha":885,"x_min":104,"x_max":801,"o":"m 432 -12 q 272 13 335 -12 q 172 84 208 38 q 119 194 135 131 q 104 332 104 257 l 104 758 l 311 758 l 311 325 q 324 222 311 260 q 366 168 338 183 q 439 153 394 153 q 528 178 493 153 q 578 263 563 204 q 594 417 594 321 q 581 587 594 507 q 546 758 568 667 l 754 758 q 780 644 769 699 q 796 533 790 589 q 801 411 801 476 q 710 90 801 193 q 432 -12 618 -12 m 375 842 l 375 860 l 440 1078 l 672 1078 l 672 1064 l 514 842 l 375 842 z "},"ώ":{"ha":1204,"x_min":76,"x_max":1128,"o":"m 382 -14 q 213 35 281 -14 q 110 170 144 83 q 76 368 76 257 q 115 604 76 507 q 208 758 153 701 l 393 758 q 330 665 358 721 q 284 537 301 610 q 267 375 267 464 q 298 210 267 274 q 399 147 329 147 q 464 167 440 147 q 497 225 488 188 q 507 317 507 263 l 507 517 l 697 517 l 697 317 q 707 225 697 263 q 740 167 717 188 q 806 147 764 147 q 881 176 853 147 q 924 256 910 204 q 938 372 938 307 q 922 530 938 458 q 879 659 907 601 q 811 758 851 717 l 996 758 q 1067 658 1038 715 q 1113 530 1097 601 q 1128 368 1128 458 q 1094 170 1128 257 q 992 35 1060 83 q 822 -14 924 -14 q 683 26 733 -14 q 606 143 632 67 l 599 143 q 553 58 582 93 q 483 4 525 22 q 382 -14 442 -14 m 546 842 l 546 860 l 611 1078 l 843 1078 l 843 1064 l 685 842 l 546 842 z "},"Ё":{"ha":778,"x_min":125,"x_max":696,"o":"m 125 0 l 125 992 l 696 992 l 696 819 l 335 819 l 335 601 l 671 601 l 671 429 l 335 429 l 335 174 l 696 174 l 696 0 l 125 0 m 288 1094 q 220 1120 243 1094 q 197 1193 197 1146 q 221 1269 197 1243 q 288 1294 244 1294 q 356 1268 332 1294 q 379 1193 379 1242 q 356 1119 379 1144 q 288 1094 332 1094 m 549 1094 q 481 1120 504 1094 q 457 1194 457 1146 q 481 1268 457 1242 q 549 1294 506 1294 q 616 1269 593 1294 q 639 1193 639 1243 q 616 1120 639 1146 q 549 1094 593 1094 z "},"Ђ":{"ha":1063,"x_min":28,"x_max":1001,"o":"m 703 -18 q 638 -14 668 -18 q 581 -3 608 -10 l 581 163 q 623 155 606 157 q 657 153 640 153 q 755 189 721 153 q 788 293 789 225 l 788 293 q 747 405 788 367 q 624 443 706 443 q 515 428 571 443 q 417 390 460 414 l 471 501 l 471 -1 l 261 -1 l 261 815 l 28 815 l 28 990 l 768 990 l 768 815 l 471 815 l 471 482 l 414 564 q 534 602 471 589 q 665 615 597 615 q 913 530 826 615 q 1000 292 1000 444 l 1000 292 q 966 125 1001 194 q 864 19 931 56 q 703 -18 797 -18 z "},"Ѓ":{"ha":782,"x_min":125,"x_max":738,"o":"m 125 0 l 125 992 l 738 992 l 738 818 l 335 818 l 335 0 l 125 0 m 328 1075 l 328 1093 l 482 1297 l 714 1297 l 714 1283 l 465 1075 l 328 1075 z "},"Є":{"ha":906,"x_min":81,"x_max":851,"o":"m 547 -14 q 292 44 396 -14 q 134 216 188 103 q 81 494 81 329 q 139 767 81 653 q 305 944 197 882 q 561 1006 413 1006 q 708 989 633 1006 q 851 940 783 972 l 776 778 q 667 817 721 804 q 564 831 613 831 q 419 795 479 831 q 328 689 360 760 q 294 514 297 618 l 207 594 l 726 594 l 726 419 l 203 419 l 293 500 q 323 312 292 388 q 419 199 354 236 q 582 161 485 161 q 696 173 632 161 q 824 204 760 185 l 824 36 q 692 -1 764 13 q 547 -14 621 -14 z "},"Ѕ":{"ha":760,"x_min":58,"x_max":704,"o":"m 338 -14 q 238 -7 288 -14 q 144 13 189 0 q 58 46 99 26 l 58 242 q 210 179 143 199 q 342 160 278 160 q 433 174 399 160 q 483 211 467 188 q 499 265 499 235 q 473 329 499 303 q 404 378 447 356 q 306 428 361 401 q 231 467 271 444 q 153 524 190 490 q 93 607 117 558 q 69 724 69 656 q 110 876 69 813 q 227 972 151 939 q 406 1006 303 1006 q 553 988 483 1006 q 700 936 624 969 l 632 772 q 510 815 564 800 q 399 831 456 831 q 332 818 360 831 q 290 783 304 806 q 275 731 275 761 q 296 672 275 696 q 358 625 317 647 q 463 572 400 603 q 592 497 539 536 q 675 406 646 458 q 704 275 704 353 q 661 122 704 188 q 537 22 618 57 q 338 -14 456 -14 z "},"І":{"ha":460,"x_min":125,"x_max":335,"o":"m 125 0 l 125 992 l 335 992 l 335 0 l 125 0 z "},"Ї":{"ha":460,"x_min":25,"x_max":435,"o":"m 125 0 l 125 992 l 335 992 l 335 0 l 125 0 m 115 1094 q 49 1120 72 1094 q 25 1193 25 1146 q 49 1268 25 1242 q 115 1294 72 1294 q 183 1269 160 1294 q 207 1194 207 1243 q 184 1119 207 1144 q 115 1094 161 1094 m 344 1094 q 276 1119 300 1094 q 253 1193 253 1144 q 276 1268 253 1242 q 344 1294 300 1294 q 412 1268 389 1294 q 435 1193 435 1242 q 412 1120 435 1146 q 344 1094 389 1094 z "},"Ј":{"ha":460,"x_min":-103,"x_max":335,"o":"m 21 -292 q -50 -287 -19 -292 q -103 -276 -81 -282 l -103 -101 q -56 -111 -81 -107 q -4 -115 -32 -115 q 62 -101 32 -115 q 108 -49 92 -87 q 125 63 125 -10 l 125 992 l 335 992 l 335 64 q 295 -142 335 -64 q 185 -256 256 -221 q 21 -292 114 -292 z "},"Љ":{"ha":1436,"x_min":7,"x_max":1374,"o":"m 132 -15 q 68 -11 103 -15 q 7 0 33 -7 l 7 178 q 44 169 26 172 q 79 167 61 167 q 139 183 115 167 q 176 237 163 200 q 194 333 190 274 q 203 453 199 388 q 213 598 208 518 q 222 775 217 678 q 232 992 226 872 l 882 992 l 882 650 l 989 650 q 1276 568 1179 650 q 1374 325 1374 486 q 1277 83 1374 165 q 990 0 1181 0 l 672 0 l 672 817 l 415 817 q 408 672 411 742 q 401 538 404 603 q 393 413 397 474 q 383 296 389 353 q 344 120 374 189 q 262 18 314 51 q 132 -15 210 -15 m 882 174 l 975 174 q 1113 212 1068 174 q 1158 328 1158 250 q 1113 441 1158 406 q 972 476 1068 476 l 882 476 l 882 174 z "},"Њ":{"ha":1476,"x_min":125,"x_max":1414,"o":"m 125 0 l 125 992 l 335 992 l 335 619 l 707 619 l 707 992 l 917 992 l 917 618 l 1026 618 q 1315 539 1215 618 q 1414 307 1414 460 q 1316 78 1414 157 q 1029 0 1218 0 l 707 0 l 707 444 l 335 444 l 335 0 l 125 0 m 917 174 l 1013 174 q 1153 208 1107 174 q 1199 313 1199 243 q 1152 413 1199 381 q 1011 444 1106 444 l 917 444 l 917 174 z "},"Ћ":{"ha":1081,"x_min":28,"x_max":992,"o":"m 261 0 l 261 817 l 28 817 l 28 992 l 764 992 l 764 817 l 471 817 l 471 485 l 410 560 q 541 597 475 583 q 675 610 607 610 q 910 533 828 610 q 990 294 992 457 l 989 0 l 779 0 l 781 294 q 742 402 781 367 q 625 438 704 438 q 517 423 571 438 q 410 388 463 408 l 471 504 l 471 0 l 261 0 z "},"Ќ":{"ha":963,"x_min":125,"x_max":956,"o":"m 713 0 l 383 500 l 383 524 l 699 992 l 921 992 l 585 499 l 588 549 l 956 0 l 713 0 m 125 0 l 125 992 l 333 992 l 333 0 l 125 0 m 222 428 l 222 603 l 465 603 l 465 428 l 222 428 m 382 1075 l 382 1093 l 536 1297 l 768 1297 l 768 1283 l 519 1075 l 382 1075 z "},"Ў":{"ha":896,"x_min":11,"x_max":896,"o":"m 219 -14 q 155 -10 189 -14 q 90 4 121 -6 l 90 181 q 139 171 114 175 q 192 167 164 167 q 288 186 253 167 q 342 241 322 206 q 376 322 361 276 l 393 175 l 11 992 l 239 992 l 413 563 q 428 526 418 549 q 449 481 439 504 q 464 439 458 457 l 471 439 q 486 480 476 456 q 506 530 496 504 q 524 575 517 556 l 685 992 l 896 992 l 603 303 q 498 114 551 183 q 378 15 444 44 q 219 -14 311 -14 m 471 1068 q 277 1122 347 1068 q 193 1292 207 1176 l 371 1292 q 403 1214 378 1240 q 471 1188 428 1188 q 539 1213 514 1188 q 571 1292 564 1239 l 749 1292 q 665 1122 735 1176 q 471 1068 594 1068 z "}}}
